<svg width="50" height="71" viewBox="0 0 50 71" fill="none" xmlns="http://www.w3.org/2000/svg">
<path d="M48.0367 16.8652C47.4792 14.9958 47.7112 12.8322 46.6541 11.1957C45.582 9.53572 43.364 8.63901 41.8599 7.29192C40.3562 5.94456 39.3551 3.95765 37.5021 2.99726C35.6752 2.05027 33.2599 2.25809 31.1732 1.75869C29.1568 1.27574 27.1864 0 25 0C22.8136 0 20.8432 1.27578 18.8269 1.75869C16.7401 2.25809 14.3248 2.05027 12.498 2.99726C10.6449 3.95765 9.64388 5.94456 8.14011 7.29192C6.63603 8.63897 4.418 9.53568 3.3459 11.1957C2.28876 12.8322 2.52075 14.9958 1.96326 16.8652C1.42413 18.6714 0 20.4365 0 22.3951C0 24.3536 1.42413 26.1187 1.96326 27.925C2.52075 29.7943 2.28876 31.9579 3.3459 33.5944C4.418 35.2544 6.63603 36.1511 8.14011 37.4982C9.64384 38.8456 10.6449 40.8325 12.498 41.7929C14.3248 42.7399 16.7401 42.532 18.8269 43.0314C20.8432 43.5144 22.8136 44.7901 25 44.7901C27.1864 44.7901 29.1568 43.5144 31.1732 43.0314C33.2599 42.532 35.6752 42.7399 37.5021 41.7929C39.3551 40.8325 40.3562 38.8456 41.8599 37.4982C43.364 36.1512 45.582 35.2544 46.6541 33.5944C47.7112 31.9579 47.4792 29.7943 48.0367 27.925C48.5759 26.1187 50 24.3536 50 22.3951C50 20.4365 48.5759 18.6714 48.0367 16.8652ZM25 40.2654C13.9823 40.2654 5.05098 32.2648 5.05098 22.3951C5.05098 12.5254 13.9823 4.52472 25 4.52472C36.0177 4.52472 44.949 12.5254 44.949 22.3951C44.949 32.2647 36.0177 40.2654 25 40.2654Z" fill="#088395"/>
<path d="M25 38.605C22.5578 38.605 20.1879 38.1762 17.9561 37.3305C15.8011 36.514 13.8661 35.3454 12.2048 33.8572C10.5434 32.369 9.23892 30.6356 8.32743 28.7052C7.38346 26.7059 6.90479 24.5829 6.90479 22.3952C6.90479 20.2075 7.38341 18.0845 8.32743 16.0852C9.23892 14.1548 10.5434 12.4214 12.2048 10.9332C13.8661 9.44494 15.8011 8.27634 17.9561 7.45983C20.1879 6.61418 22.5579 6.18542 25 6.18542C27.4422 6.18542 29.8121 6.61418 32.0439 7.45983C34.1989 8.2763 36.134 9.4449 37.7953 10.9332C39.4566 12.4214 40.7611 14.1548 41.6726 16.0852C42.6166 18.0845 43.0953 20.2075 43.0953 22.3952C43.0953 24.5829 42.6166 26.7059 41.6726 28.7052C40.7611 30.6356 39.4566 32.369 37.7953 33.8572C36.134 35.3455 34.1989 36.514 32.0439 37.3305C29.8121 38.1762 27.4422 38.605 25 38.605ZM25 8.02659C22.8339 8.02659 20.7335 8.40627 18.757 9.15516C16.8472 9.87879 15.1317 10.915 13.6581 12.2351C12.1845 13.5551 11.0277 15.0919 10.2199 16.8027C9.38396 18.5732 8.96011 20.4548 8.96011 22.3952C8.96011 24.3356 9.38401 26.2172 10.2199 27.9877C11.0277 29.6985 12.1845 31.2353 13.6581 32.5553C15.1317 33.8754 16.8472 34.9116 18.757 35.6353C20.7335 36.3841 22.8339 36.7638 25 36.7638C27.1661 36.7638 29.2666 36.3841 31.243 35.6353C33.1528 34.9116 34.8684 33.8754 36.3419 32.5553C37.8156 31.2353 38.9723 29.6985 39.7801 27.9877C40.6161 26.2172 41.0399 24.3356 41.0399 22.3952C41.0399 20.4548 40.616 18.5732 39.7801 16.8027C38.9723 15.0919 37.8156 13.5551 36.3419 12.2351C34.8684 10.915 33.1528 9.87875 31.243 9.15516C29.2666 8.40627 27.1661 8.02659 25 8.02659Z" fill="#088395"/>
<path d="M23.1073 32.5244C22.1592 32.5244 21.3015 32.0539 20.8689 31.2964C20.0767 29.9093 17.8026 26.3803 13.8046 23.5744C13.4119 23.2987 13.2555 22.8291 13.4156 22.4058C13.5755 21.9831 14.0177 21.6957 14.516 21.6907C14.5479 21.6903 14.58 21.6902 14.612 21.6902C16.2617 21.6902 17.9104 22.1178 19.38 22.9267C20.4659 23.5249 21.4681 24.3388 22.3309 25.3169C23.4263 23.4658 24.9384 21.424 26.5477 19.6423C28.1911 17.8226 30.7089 15.4075 33.3701 14.2354C33.5236 14.1677 33.687 14.1334 33.8558 14.1334C34.2838 14.1334 34.6755 14.3614 34.8535 14.7142C35.0328 15.0695 34.9647 15.4727 34.6761 15.7665C29.7344 20.7955 27.3415 26.0536 25.4917 30.9866C25.1822 31.8119 24.3597 32.4097 23.3963 32.5094C23.3007 32.5193 23.2035 32.5244 23.1073 32.5244Z" fill="#088395"/>
<path d="M26.2962 46.0099L18.8398 65.3341C18.5798 66.007 17.571 66.1205 17.1337 65.5258L12.961 59.8532C12.7219 59.5284 12.2687 59.3883 11.8569 59.5114L4.66474 61.6648C3.9108 61.8906 3.19537 61.2435 3.4549 60.5702L10.5599 42.1567C10.9215 42.4499 11.3166 42.7182 11.7539 42.9448C13.155 43.671 14.6986 43.8327 16.1917 43.9891C16.9967 44.0731 17.7572 44.1529 18.4434 44.3172C19.0891 44.4719 19.7683 44.7364 20.4879 45.0167C21.8157 45.5345 23.3213 46.1209 25 46.1209C25.4443 46.1209 25.8765 46.0797 26.2962 46.0099Z" fill="#088395"/>
<path d="M41.4722 59.1351L34.2508 57.0607C33.8371 56.9421 33.3863 57.0873 33.1514 57.4142L29.0567 63.1325C28.6277 63.7322 27.6171 63.6295 27.3483 62.9591L24.1523 54.9933L27.7563 45.6531C28.3724 45.461 28.9578 45.2326 29.5121 45.0168C30.2317 44.7365 30.9109 44.472 31.5567 44.3173C32.2429 44.153 33.0033 44.0732 33.8083 43.9892C34.8144 43.8839 35.8432 43.7758 36.8357 43.4943L42.6668 58.0272C42.9356 58.6971 42.2294 59.3526 41.4722 59.1351Z" fill="#088395"/>
<path d="M25 70.953C36.2139 70.953 45.3046 70.524 45.3046 69.9949C45.3046 69.4657 36.2139 69.0367 25 69.0367C13.786 69.0367 4.69531 69.4657 4.69531 69.9949C4.69531 70.524 13.786 70.953 25 70.953Z" fill="#D3DDD8"/>
</svg>
