<svg width="323" height="297" viewBox="0 0 323 297" fill="none" xmlns="http://www.w3.org/2000/svg">
<path d="M81.0687 42.5244H41.5593V121.515H81.0687V42.5244Z" fill="#E0E0E0"/>
<path d="M79.0881 42.5244H39.5787V121.515H79.0881V42.5244Z" fill="#F5F5F5"/>
<path d="M74.1824 51.078H44.4879V112.955H74.1824V51.078Z" fill="white"/>
<path d="M74.1823 112.961C74.1823 112.961 74.1823 112.854 74.1823 112.658C74.1823 112.462 74.1823 112.159 74.1823 111.779C74.1823 111.001 74.1823 109.86 74.1823 108.387C74.1823 105.417 74.1823 101.099 74.1522 95.6399C74.1522 84.7282 74.1263 69.2723 74.1048 51.0899L74.2039 51.2266H44.5137L44.6214 51.0781C44.6214 74.4223 44.6214 95.9429 44.6214 112.961L44.5352 112.842L66.1504 112.902L72.1194 112.931H73.6871H74.2297H73.7043H72.1539H66.2021L44.5352 112.991H44.4491V112.872C44.4491 95.8538 44.4491 74.3332 44.4491 50.989V50.8405H44.5611H74.2512H74.3503V51.084C74.3503 69.3198 74.3115 84.7994 74.3029 95.735C74.3029 101.182 74.2814 105.488 74.2728 108.447C74.2728 109.914 74.2728 111.042 74.2728 111.815C74.2728 112.189 74.2728 112.48 74.2728 112.676C74.2728 112.872 74.1823 112.961 74.1823 112.961Z" fill="#E0E0E0"/>
<path d="M79.2039 42.5244C78.9997 43.0295 78.7634 43.5086 78.4977 43.956C78.0411 44.7994 77.3865 45.9518 76.6458 47.1992C75.905 48.4466 75.2074 49.5455 74.6906 50.3296C74.4308 50.7725 74.1426 51.1821 73.8292 51.5532C74.0523 51.0714 74.3044 50.6164 74.5829 50.193L76.4864 47.0091L78.3814 43.8075C78.6287 43.3484 78.9039 42.9192 79.2039 42.5244Z" fill="#E0E0E0"/>
<path d="M74.3331 112.759C75.8076 115.987 77.5412 118.976 79.5011 121.669L74.3331 112.759Z" fill="white"/>
<path d="M79.514 121.693C79.1826 121.363 78.8792 120.982 78.6096 120.558C77.921 119.593 77.2684 118.58 76.6543 117.523C75.9394 116.281 75.3408 115.099 74.9317 114.226C74.6964 113.766 74.4944 113.274 74.3287 112.759C74.5951 113.183 74.8384 113.634 75.0566 114.107C75.4872 114.951 76.1074 116.103 76.818 117.333C77.5286 118.562 78.2177 119.643 78.7172 120.416C79.0046 120.815 79.2709 121.241 79.514 121.693Z" fill="#E0E0E0"/>
<path d="M39.574 121.449L44.742 112.646L39.574 121.449Z" fill="white"/>
<path d="M44.7506 112.646C43.9711 114.203 43.1345 115.704 42.2441 117.143C41.4109 118.643 40.5196 120.081 39.574 121.449C40.3535 119.893 41.1901 118.392 42.0805 116.953C42.9137 115.452 43.805 114.014 44.7506 112.646Z" fill="#E0E0E0"/>
<path d="M39.5787 42.5244C40.4715 43.846 41.3111 45.2341 42.0938 46.6824C42.932 48.0652 43.7142 49.5108 44.4367 51.0127C43.5454 49.6908 42.7072 48.3028 41.9259 46.8547C41.0865 45.4717 40.303 44.0261 39.5787 42.5244Z" fill="#E0E0E0"/>
<path d="M64.9316 63.6411H54.9875V102.578H64.9316V63.6411Z" fill="#E0E0E0"/>
<path d="M134.338 31.0127V65.6073H98.3169L97.0206 31.2562L134.338 31.0127Z" fill="#E0E0E0"/>
<path d="M97.0162 31.2562V65.53H133.037V31.2562H97.0162Z" fill="white"/>
<path d="M133.21 65.7677H96.8484V31.0187H133.21V65.7677ZM97.1929 65.2984H132.869V31.482H97.1929V65.2984Z" fill="#E0E0E0"/>
<path d="M129.14 35.5153H100.922V61.2711H129.14V35.5153Z" fill="white"/>
<path d="M129.14 35.5152H128.597H127.047H121.233L100.922 35.6399L101.004 35.5271C101.004 43.3976 101.004 52.1175 101.004 61.2829L100.918 61.1641H129.135L129.062 61.2592C129.062 53.4243 129.092 47.0032 129.101 42.5185C129.101 40.285 129.101 38.5387 129.101 37.3388C129.101 36.7448 129.101 36.2933 129.101 35.9785C129.101 35.6637 129.101 35.5033 129.101 35.5033C129.101 35.5033 129.101 35.6518 129.101 35.9548C129.101 36.2577 129.101 36.7151 129.101 37.2972C129.101 38.4852 129.101 40.2316 129.122 42.4591C129.122 46.9497 129.144 53.4005 129.157 61.2592V61.3601H129.088H100.871H100.78V61.2354C100.78 52.07 100.78 43.3501 100.78 35.4796V35.4023H100.862L121.228 35.4558L127.025 35.4914H128.558H129.079L129.14 35.5152Z" fill="#E0E0E0"/>
<path d="M97.0206 31.1611C97.2433 31.3088 97.4516 31.4944 97.6408 31.7136C98.0069 32.0818 98.5021 32.6046 99.0534 33.1986C99.6046 33.7926 100.07 34.3866 100.406 34.7845C100.598 34.9997 100.771 35.2449 100.922 35.5152C100.236 34.8533 99.5751 34.1436 98.9414 33.3886C98.2676 32.7031 97.626 31.9591 97.0206 31.1611Z" fill="#E0E0E0"/>
<path d="M133.042 31.2562C132.449 32.0601 131.816 32.8044 131.147 33.4837C130.513 34.2252 129.842 34.904 129.14 35.5152C129.732 34.7114 130.365 33.967 131.035 33.2877C131.667 32.5447 132.338 31.8657 133.042 31.2562Z" fill="#E0E0E0"/>
<path d="M133.011 65.5359L128.993 61.0453L133.011 65.5359Z" fill="white"/>
<path d="M128.993 61.0453C129.716 61.6987 130.406 62.417 131.06 63.1956C131.748 63.9144 132.4 64.6963 133.011 65.5359C132.288 64.8863 131.599 64.1678 130.949 63.3856C130.258 62.6697 129.604 61.8877 128.993 61.0453Z" fill="#E0E0E0"/>
<path d="M97.0206 65.5301C97.6058 64.736 98.2319 64.0015 98.894 63.3323C99.5206 62.5973 100.184 61.9244 100.879 61.3186C100.296 62.1172 99.6698 62.8539 99.006 63.5223C98.3801 64.2567 97.7166 64.9277 97.0206 65.5301Z" fill="#E0E0E0"/>
<path d="M106.65 43.5401V52.165H124.407V43.5401H106.65Z" fill="#E0E0E0"/>
<path d="M281.092 186.023C281.092 186.023 277.858 183.944 275.321 194.398C272.784 204.853 272.031 210.739 272.031 210.739C272.031 210.739 271.303 212.973 270.144 211.85C268.986 210.727 267.19 207.241 265.541 208.286C263.891 209.332 263.538 212.23 264.317 216.204C265.097 220.178 266.574 228.963 266.703 229.759C266.833 230.555 266.63 231.773 265.756 231.185C264.882 230.597 259.533 224.508 257.573 228.173C255.614 231.838 259.119 242.429 259.485 243.582C259.851 244.734 259.735 245.304 259.348 245.69C258.96 246.076 257.31 243.795 255.739 242.126C254.167 240.457 252.138 238.954 251.143 241.2C250.149 243.445 250.665 251.814 257.845 264.098L261.441 269.486L266.665 267.995C277.703 263.867 281.682 257.511 281.833 254.885C281.983 252.26 279.679 251.856 277.72 251.915C275.76 251.975 273.439 252.48 273.293 251.85C273.146 251.22 273.293 250.662 274.076 250.068C274.86 249.474 282.194 243.683 282.186 239.138C282.177 234.594 275.256 235.2 274.296 234.98C273.336 234.761 273.697 233.585 274.132 233.056C274.567 232.527 279.511 226.599 281.833 224.015C284.154 221.431 285.144 218.871 284.214 216.62C283.284 214.369 280.381 215.812 278.969 215.782C277.556 215.753 277.914 213.353 277.914 213.353C277.914 213.353 279.809 208.007 282.22 197.463C284.632 186.92 281.023 186.011 281.023 186.011" fill="#EBEBEB"/>
<path d="M260.76 270.977C262.543 263.255 265.876 249.622 268.697 237.891C271.518 226.159 274.063 215.545 275.876 207.846C276.777 203.997 277.504 200.885 278.03 198.723C278.284 197.653 278.46 196.816 278.615 196.24C278.681 195.966 278.733 195.753 278.77 195.598C278.805 195.45 278.826 195.378 278.826 195.378C278.826 195.378 278.826 195.456 278.783 195.604C278.74 195.753 278.706 195.972 278.646 196.252C278.516 196.846 278.331 197.671 278.09 198.746C277.608 200.914 276.897 204.039 276.001 207.894C274.218 215.616 271.695 226.237 268.874 237.962C266.053 249.688 262.698 263.326 260.885 271.024" fill="#E0E0E0"/>
<path d="M267.914 213.293C267.985 213.44 268.047 213.595 268.099 213.757C268.211 214.06 268.361 214.511 268.529 215.064C268.895 216.174 269.391 217.725 269.869 219.447C270.347 221.17 270.799 222.685 271.161 223.861C271.312 224.389 271.445 224.841 271.548 225.197C271.607 225.355 271.651 225.523 271.678 225.696C271.606 225.55 271.544 225.395 271.492 225.233C271.38 224.93 271.23 224.484 271.062 223.926C270.704 222.809 270.243 221.253 269.744 219.53C269.244 217.808 268.796 216.299 268.452 215.129L268.056 213.792C267.993 213.635 267.945 213.467 267.914 213.293Z" fill="#E0E0E0"/>
<path d="M272.181 225.72C272.16 225.661 274.434 224.176 277.259 222.394C280.084 220.612 282.384 219.222 282.427 219.281C282.47 219.34 280.17 220.825 277.345 222.601C274.52 224.378 272.181 225.785 272.181 225.72Z" fill="#E0E0E0"/>
<path d="M267.246 243.469C267.372 243.413 267.502 243.377 267.633 243.362L268.689 243.148C269.576 242.97 270.807 242.714 272.155 242.358C273.503 242.001 274.714 241.639 275.601 241.354L276.639 241.027C276.764 240.973 276.895 240.941 277.026 240.932C276.907 241.007 276.783 241.067 276.656 241.11C276.415 241.211 276.066 241.354 275.631 241.514C274.77 241.835 273.547 242.233 272.186 242.584C270.825 242.934 269.602 243.178 268.702 243.308C268.271 243.38 267.892 243.427 267.638 243.451C267.508 243.472 267.377 243.478 267.246 243.469Z" fill="#E0E0E0"/>
<path d="M261.604 233.388C261.697 233.496 261.781 233.617 261.854 233.751L262.487 234.796C263.017 235.681 263.736 236.917 264.524 238.289C265.312 239.661 266.023 240.908 266.527 241.823L267.117 242.91C267.194 243.039 267.262 243.179 267.319 243.326C267.225 243.221 267.141 243.099 267.069 242.964L266.436 241.924C265.907 241.033 265.187 239.804 264.395 238.431C263.603 237.059 262.901 235.806 262.397 234.897L261.807 233.81C261.727 233.681 261.66 233.539 261.604 233.388Z" fill="#E0E0E0"/>
<path d="M255.816 248.292C255.932 248.433 256.038 248.59 256.13 248.761C256.346 249.106 256.617 249.557 256.944 250.092C257.629 251.22 258.559 252.795 259.584 254.541C260.609 256.287 261.527 257.873 262.168 259.032L262.943 260.404C263.042 260.569 263.13 260.746 263.206 260.932C263.093 260.788 262.987 260.631 262.892 260.463L262.078 259.132C261.397 257.998 260.463 256.43 259.438 254.683C258.413 252.937 257.496 251.351 256.854 250.193C256.544 249.64 256.281 249.177 256.083 248.815C255.982 248.653 255.892 248.478 255.816 248.292Z" fill="#E0E0E0"/>
<path d="M263.137 260.558C263.295 260.492 263.457 260.442 263.62 260.41L264.951 260.077C266.075 259.792 267.625 259.388 269.326 258.889C271.027 258.39 272.56 257.867 273.667 257.481L274.981 257.03C275.14 256.964 275.303 256.917 275.467 256.887C275.316 256.982 275.159 257.058 274.998 257.113C274.692 257.244 274.249 257.428 273.706 257.636C272.603 258.063 271.075 258.604 269.369 259.109C267.664 259.614 266.109 260 264.981 260.243C264.417 260.368 263.956 260.457 263.641 260.511C263.475 260.549 263.306 260.564 263.137 260.558Z" fill="#E0E0E0"/>
<path d="M290.7 270.763C290.7 270.846 231.531 270.917 158.563 270.917C85.595 270.917 26.4257 270.864 26.4257 270.763C26.4257 270.662 85.582 270.609 158.58 270.609C231.578 270.609 290.7 270.68 290.7 270.763Z" fill="#263238"/>
<path d="M209.888 64.0477L205.79 68.8817L211.26 77.7029L215.358 72.8689L209.888 64.0477Z" fill="#263238"/>
<path d="M213.43 63.362L204.997 73.3531L199.084 63.8491C201.41 59.3466 204.183 55.9489 207.504 53.858L213.43 63.362Z" fill="#455A64"/>
<path d="M206.418 71.678C206.371 71.7374 204.945 69.5753 203.231 66.8607C201.517 64.1461 200.165 61.9008 200.217 61.8414C200.268 61.782 201.69 63.9442 203.404 66.6587C205.118 69.3733 206.466 71.6246 206.418 71.678Z" fill="#263238"/>
<path d="M208.012 69.7772C207.671 69.3199 207.355 68.8296 207.065 68.31C206.496 67.3893 205.725 66.1122 204.877 64.6866L202.723 61.0276L202.077 59.9168C201.922 59.6435 201.841 59.5188 201.841 59.501C201.927 59.3941 203.361 61.6453 205.058 64.4906C205.919 65.9162 206.66 67.217 207.211 68.1734C207.512 68.6744 207.78 69.2111 208.012 69.7772Z" fill="#263238"/>
<path d="M210.165 67.2408C209.819 66.785 209.498 66.2946 209.205 65.7736C208.632 64.8411 207.857 63.5402 207.004 62.0968L204.851 58.3783L204.205 57.2438C204.121 57.1086 204.046 56.9635 203.981 56.8102C204.351 57.2318 204.683 57.7123 204.971 58.2417C205.553 59.1624 206.337 60.4573 207.185 61.9008C208.034 63.3442 208.796 64.6688 209.338 65.637C209.646 66.1386 209.923 66.6751 210.165 67.2408Z" fill="#263238"/>
<path d="M212.108 64.8649C212.06 64.9183 210.643 62.7383 208.942 59.9941C207.241 57.2498 205.906 54.9748 205.953 54.9154C206.001 54.856 207.413 57.0419 209.114 59.7921C210.816 62.5423 212.155 64.8114 212.108 64.8649Z" fill="#263238"/>
<path d="M282.05 70.0523L278.325 64.6757L272.241 72.6946L275.966 78.0712L282.05 70.0523Z" fill="#263238"/>
<path d="M282.229 75.343L274.554 64.2649L281.113 55.6222C284.49 58.5922 287.1 62.2334 288.783 66.7003L282.229 75.343Z" fill="#455A64"/>
<path d="M275.838 66.1241C275.795 66.0588 277.28 63.9798 279.158 61.479C281.036 58.9783 282.603 57.0003 282.634 57.0597C282.664 57.1191 281.191 59.1981 279.313 61.7047C277.435 64.2114 275.881 66.1835 275.838 66.1241Z" fill="#263238"/>
<path d="M277.302 68.2328C277.608 67.734 277.942 67.2692 278.301 66.8428C278.934 66.0112 279.821 64.8767 280.808 63.6293L283.344 60.4633L284.115 59.5129C284.3 59.2871 284.391 59.1743 284.404 59.1683C284.486 59.2812 282.931 61.378 280.958 63.8609C279.972 65.1024 279.068 66.2369 278.405 67.0032C278.061 67.4524 277.692 67.8635 277.302 68.2328Z" fill="#263238"/>
<path d="M279.249 71.0425C279.558 70.539 279.897 70.0702 280.261 69.6406C280.902 68.8031 281.802 67.6626 282.806 66.4152L285.39 63.2432L286.178 62.2928C286.274 62.1747 286.375 62.0637 286.479 61.9602C286.195 62.4932 285.865 62.9777 285.498 63.4036C284.86 64.253 283.96 65.3995 282.961 66.6469C281.962 67.8943 281.04 69.0229 280.377 69.8069C280.024 70.2581 279.647 70.6712 279.249 71.0425Z" fill="#263238"/>
<path d="M281.07 73.6026C281.027 73.5373 282.535 71.4761 284.434 68.9872C286.333 66.4984 287.909 64.5382 287.952 64.6035C287.995 64.6689 286.488 66.73 284.589 69.213C282.69 71.6959 281.113 73.6561 281.07 73.6026Z" fill="#263238"/>
<path d="M247.668 44.3838H241.285V58.123H247.668V44.3838Z" fill="#263238"/>
<path d="M251.079 48.4942H237.943V33.6858C242.547 32.1176 246.94 32.0226 251.092 33.6858L251.079 48.4942Z" fill="#088395"/>
<path d="M251.247 33.7452C251.093 33.878 250.93 33.9894 250.76 34.0778C250.31 34.351 249.849 34.5851 249.378 34.7787C248.672 35.0785 247.953 35.3127 247.224 35.4797C246.339 35.6733 245.446 35.7766 244.55 35.7885C243.655 35.7904 242.761 35.699 241.875 35.5153C241.147 35.3596 240.428 35.1353 239.722 34.8441C239.251 34.6538 238.787 34.4257 238.335 34.161C238.164 34.0792 238.001 33.9695 237.849 33.8343C237.849 33.7808 238.572 34.1907 239.765 34.6302C240.465 34.8855 241.176 35.0838 241.893 35.2242C242.769 35.3878 243.652 35.4711 244.537 35.4737C245.422 35.4598 246.305 35.3646 247.181 35.1886C247.895 35.0462 248.602 34.8479 249.3 34.5946C250.523 34.1135 251.229 33.6917 251.247 33.7452Z" fill="#263238"/>
<path d="M242.284 48.4527C242.224 48.4527 242.172 45.6074 242.172 42.1028C242.172 38.5982 242.224 35.7529 242.284 35.7529C242.345 35.7529 242.396 38.5922 242.396 42.1028C242.396 45.6133 242.349 48.4527 242.284 48.4527Z" fill="#263238"/>
<path d="M244.787 48.5358C244.726 48.5358 244.675 45.6786 244.675 42.1562C244.675 38.6338 244.726 35.7826 244.787 35.7826C244.847 35.7826 244.899 38.6338 244.899 42.1562C244.899 45.6786 244.851 48.5358 244.787 48.5358Z" fill="#263238"/>
<path d="M247.289 48.4824C247.228 48.4824 247.177 45.6252 247.177 42.1028C247.177 38.5804 247.228 35.7233 247.289 35.7233C247.349 35.7233 247.401 38.5804 247.401 42.1028C247.401 45.6252 247.353 48.4824 247.289 48.4824Z" fill="#263238"/>
<path d="M249.356 48.4824C249.291 48.4824 249.244 45.3936 249.244 41.586C249.244 37.7785 249.291 34.6897 249.356 34.6897C249.42 34.6897 249.468 37.7785 249.468 41.586C249.468 45.3936 249.433 48.4824 249.356 48.4824Z" fill="#263238"/>
<path d="M239.92 48.3933C239.86 48.3933 239.808 45.3045 239.808 41.4969C239.808 37.6894 239.86 34.6006 239.92 34.6006C239.98 34.6006 240.032 37.6894 240.032 41.4969C240.032 45.3045 239.985 48.3933 239.92 48.3933Z" fill="#263238"/>
<path d="M276.543 163.214C294.678 138.201 294.678 97.646 276.543 72.6325C258.407 47.6191 229.004 47.6191 210.868 72.6325C192.733 97.646 192.733 138.201 210.868 163.214C229.004 188.228 258.407 188.228 276.543 163.214Z" fill="#088395"/>
<path d="M243.706 171.209C265.245 171.209 282.707 147.125 282.707 117.416C282.707 87.7072 265.245 63.6234 243.706 63.6234C222.166 63.6234 204.704 87.7072 204.704 117.416C204.704 147.125 222.166 171.209 243.706 171.209Z" fill="#FAFAFA"/>
<path d="M282.707 117.416C282.707 117.416 282.707 117.125 282.677 116.549C282.647 115.973 282.677 115.111 282.595 113.989C282.441 110.713 282.069 107.464 281.484 104.283C281.062 101.986 280.528 99.7321 279.886 97.5349C279.132 94.9153 278.224 92.3845 277.173 89.9674C274.601 84.0622 271.24 78.8839 267.267 74.7075C262.447 69.6488 256.835 66.2151 250.881 64.6808C245.834 63.4 240.655 63.4827 235.631 64.9243C233.866 65.4525 232.129 66.137 230.428 66.9736C223.192 70.6091 216.899 77.1176 212.34 85.6787C211.151 87.9081 210.091 90.2637 209.171 92.7235C208.692 93.9531 208.283 95.2302 207.879 96.5132C207.474 97.7963 207.112 99.1268 206.806 100.481C206.145 103.191 205.65 105.973 205.325 108.797C204.998 111.652 204.826 114.537 204.812 117.428C204.827 120.32 204.997 123.207 205.32 126.065C205.65 128.887 206.146 131.669 206.802 134.381C207.112 135.729 207.5 137.036 207.874 138.343C208.249 139.649 208.701 140.909 209.166 142.138C210.086 144.6 211.148 146.955 212.34 149.183C216.897 157.747 223.191 164.258 230.428 167.894C232.129 168.731 233.866 169.415 235.631 169.944C237.351 170.439 239.093 170.775 240.846 170.947C244.201 171.297 247.574 171.042 250.881 170.187C256.835 168.653 262.447 165.219 267.267 160.16C271.241 155.986 274.602 150.807 277.173 144.9C278.223 142.483 279.131 139.952 279.886 137.333C281.416 132.081 282.33 126.527 282.595 120.879C282.668 119.756 282.655 118.895 282.677 118.319C282.698 117.743 282.707 117.446 282.707 117.446C282.707 117.446 282.707 117.743 282.707 118.319C282.707 118.895 282.707 119.756 282.647 120.879C282.411 126.543 281.514 132.117 279.989 137.386C279.239 140.018 278.335 142.561 277.285 144.99C274.719 150.925 271.357 156.132 267.379 160.333C262.542 165.422 256.908 168.88 250.928 170.431C247.606 171.296 244.217 171.56 240.846 171.215C239.085 171.042 237.334 170.707 235.605 170.211C233.83 169.684 232.082 168.998 230.372 168.156C223.093 164.506 216.762 157.964 212.177 149.355C210.98 147.116 209.914 144.748 208.99 142.275C208.507 141.039 208.094 139.745 207.672 138.456C207.25 137.167 206.905 135.83 206.595 134.47C205.934 131.747 205.436 128.953 205.105 126.118C204.422 120.367 204.422 114.501 205.105 108.75C205.438 105.927 205.936 103.145 206.595 100.434C206.91 99.0734 207.297 97.7606 207.676 96.4479C208.055 95.1351 208.507 93.8699 208.99 92.6344C209.917 90.1626 210.984 87.7951 212.181 85.5539C216.764 76.9462 223.095 70.4059 230.372 66.7598C232.081 65.9185 233.827 65.2319 235.601 64.7045C237.331 64.2087 239.083 63.8734 240.846 63.7007C244.216 63.3555 247.604 63.6191 250.924 64.4847C256.905 66.0283 262.54 69.4871 267.375 74.5827C271.353 78.7864 274.714 83.9953 277.28 89.9317C279.21 94.4129 280.66 99.2543 281.587 104.307C282.162 107.499 282.521 110.758 282.66 114.042C282.724 115.165 282.703 116.026 282.72 116.602C282.737 117.178 282.707 117.416 282.707 117.416Z" fill="#263238"/>
<path d="M276.983 115.468C275.747 115.539 274.739 115.468 274.735 115.319C274.731 115.171 275.726 114.969 276.962 114.874C278.198 114.779 279.205 114.838 279.214 115.016C279.223 115.194 278.211 115.396 276.983 115.468Z" fill="#263238"/>
<path d="M276.152 127.853C274.946 127.461 273.999 127.027 273.999 126.878C273.999 126.73 275.024 126.908 276.234 127.271C277.444 127.633 278.387 128.072 278.387 128.245C278.387 128.417 277.349 128.239 276.152 127.853Z" fill="#263238"/>
<path d="M272.935 139.465C271.845 138.646 271.01 137.867 271.062 137.737C271.113 137.606 272.043 138.147 273.137 138.925C274.231 139.703 275.071 140.505 275.011 140.659C274.951 140.814 274.02 140.291 272.935 139.465Z" fill="#263238"/>
<path d="M267.573 149.468C266.686 148.28 266.027 147.223 266.105 147.092C266.182 146.962 266.966 147.847 267.87 149.023C268.775 150.199 269.425 151.25 269.339 151.399C269.253 151.547 268.456 150.662 267.573 149.468Z" fill="#263238"/>
<path d="M260.467 157.131C259.847 155.652 259.416 154.392 259.511 154.315C259.606 154.238 260.2 155.367 260.838 156.828C261.475 158.289 261.906 159.548 261.798 159.643C261.69 159.738 261.092 158.598 260.467 157.131Z" fill="#263238"/>
<path d="M252.134 161.877C251.824 160.22 251.656 158.848 251.763 158.812C251.871 158.776 252.22 160.077 252.551 161.722C252.883 163.368 253.047 164.74 252.922 164.788C252.797 164.835 252.444 163.528 252.134 161.877Z" fill="#263238"/>
<path d="M243.18 163.35C243.18 161.639 243.305 160.255 243.413 160.255C243.52 160.255 243.611 161.645 243.611 163.35C243.611 165.055 243.503 166.445 243.378 166.445C243.253 166.445 243.159 165.067 243.18 163.35Z" fill="#263238"/>
<path d="M234.283 161.491C234.636 159.851 235.006 158.562 235.114 158.604C235.222 158.646 235.032 160.012 234.683 161.657C234.334 163.303 233.977 164.627 233.852 164.544C233.727 164.461 233.908 163.13 234.283 161.491Z" fill="#263238"/>
<path d="M226.044 156.377C226.703 154.933 227.31 153.822 227.405 153.9C227.5 153.977 227.052 155.23 226.41 156.691C225.768 158.153 225.157 159.257 225.049 159.168C224.941 159.079 225.385 157.826 226.044 156.377Z" fill="#263238"/>
<path d="M219.115 148.417C220.032 147.265 220.837 146.421 220.906 146.534C220.975 146.647 220.312 147.68 219.407 148.851C218.503 150.021 217.706 150.864 217.616 150.739C217.525 150.615 218.201 149.569 219.115 148.417Z" fill="#263238"/>
<path d="M213.981 138.188C215.088 137.422 216.027 136.905 216.074 137.036C216.121 137.167 215.277 137.921 214.179 138.717C213.081 139.513 212.146 140.03 212.086 139.869C212.026 139.709 212.878 138.96 213.981 138.188Z" fill="#263238"/>
<path d="M211.027 126.439C212.245 126.106 213.249 125.958 213.27 126.106C213.292 126.255 212.327 126.665 211.117 127.021C209.907 127.377 208.899 127.526 208.873 127.354C208.847 127.181 209.821 126.772 211.027 126.439Z" fill="#263238"/>
<path d="M210.48 114.048C211.716 114.173 212.711 114.399 212.706 114.547C212.702 114.696 211.69 114.737 210.454 114.636C209.218 114.535 208.219 114.315 208.227 114.137C208.236 113.959 209.244 113.894 210.48 114.048Z" fill="#263238"/>
<path d="M212.353 101.853C213.52 102.447 214.433 103.041 214.399 103.166C214.364 103.291 213.382 102.97 212.211 102.412C211.04 101.853 210.126 101.271 210.165 101.105C210.204 100.939 211.19 101.271 212.353 101.853Z" fill="#263238"/>
<path d="M216.535 90.8345C217.543 91.8265 218.309 92.7294 218.258 92.8541C218.206 92.9789 217.319 92.2898 216.298 91.3216C215.277 90.3534 214.511 89.4505 214.575 89.302C214.64 89.1535 215.523 89.8425 216.535 90.8345Z" fill="#263238"/>
<path d="M222.698 81.7582C223.477 83.0829 224.041 84.2352 223.96 84.3362C223.878 84.4372 223.159 83.4452 222.366 82.1325C221.574 80.8197 221.005 79.6733 221.104 79.5604C221.203 79.4476 221.918 80.4336 222.698 81.7582Z" fill="#263238"/>
<path d="M230.407 75.2836C230.898 76.8517 231.221 78.1704 231.117 78.2536C231.014 78.3367 230.523 77.1012 230.015 75.5449C229.507 73.9887 229.184 72.67 229.3 72.5749C229.416 72.4799 229.903 73.7214 230.407 75.2836Z" fill="#263238"/>
<path d="M239.08 71.9157C239.248 73.6086 239.3 74.9985 239.188 75.0223C239.076 75.046 238.839 73.6917 238.654 72.0048C238.469 70.3178 238.417 68.9219 238.542 68.8981C238.667 68.8744 238.912 70.2228 239.08 71.9157Z" fill="#263238"/>
<path d="M248.098 71.874C247.935 73.5669 247.715 74.9272 247.607 74.9094C247.5 74.8915 247.526 73.4956 247.672 71.8027C247.819 70.1098 248.038 68.7436 248.163 68.7674C248.288 68.7912 248.262 70.1752 248.098 71.874Z" fill="#263238"/>
<path d="M256.794 75.1589C256.307 76.733 255.829 77.9567 255.725 77.8973C255.622 77.8379 255.928 76.5132 256.397 74.9273C256.867 73.3413 257.349 72.1236 257.465 72.1949C257.582 72.2662 257.284 73.5908 256.794 75.1589Z" fill="#263238"/>
<path d="M264.528 81.5563C263.753 82.8928 263.056 83.8966 262.969 83.8016C262.883 83.7065 263.43 82.5364 264.192 81.188C264.955 79.8396 265.648 78.812 265.751 78.9486C265.855 79.0852 265.291 80.2257 264.528 81.5563Z" fill="#263238"/>
<path d="M270.743 90.5732C269.735 91.5711 268.869 92.2839 268.805 92.1592C268.74 92.0344 269.494 91.1137 270.489 90.092C271.484 89.0704 272.349 88.3635 272.427 88.5061C272.504 88.6486 271.751 89.5753 270.743 90.5732Z" fill="#263238"/>
<path d="M274.976 101.574C273.814 102.168 272.823 102.519 272.797 102.382C272.771 102.245 273.659 101.628 274.826 101.016C275.993 100.404 276.953 100.042 277 100.208C277.048 100.374 276.139 100.98 274.976 101.574Z" fill="#263238"/>
<path d="M276.919 113.704C275.683 113.84 274.675 113.828 274.666 113.704C274.658 113.579 275.648 113.306 276.88 113.11C278.112 112.913 279.124 112.961 279.132 113.139C279.141 113.317 278.142 113.567 276.919 113.704Z" fill="#263238"/>
<path d="M228.559 59.2218L228.426 59.305L228.029 59.5247C227.685 59.7267 227.168 59.9702 226.509 60.3682C224.652 61.4387 222.85 62.679 221.113 64.0807C220.01 64.9598 218.843 66.0112 217.616 67.1933C216.388 68.3753 215.135 69.7534 213.882 71.3038C208.38 77.993 204.177 86.4729 201.655 95.9726C201.065 98.1466 200.622 100.273 200.238 102.263C199.855 104.253 199.597 106.154 199.403 107.888C199.088 110.629 198.906 113.395 198.856 116.169C198.821 117.155 198.856 117.915 198.856 118.432C198.856 118.681 198.856 118.871 198.856 119.026C198.86 119.093 198.86 119.16 198.856 119.228C198.85 119.163 198.85 119.097 198.856 119.032C198.856 118.883 198.856 118.687 198.856 118.438C198.856 117.921 198.809 117.161 198.83 116.175C198.845 113.39 199.005 110.611 199.308 107.859C199.489 106.112 199.769 104.217 200.118 102.204C200.507 100.063 200.976 97.9517 201.522 95.8776C204.031 86.3142 208.258 77.7855 213.809 71.0899C215.071 69.5396 216.354 68.2031 217.568 66.9854C218.783 65.7677 219.98 64.7579 221.096 63.8906C222.844 62.5034 224.662 61.2886 226.535 60.2554C227.194 59.8752 227.724 59.6614 228.077 59.4653L228.481 59.2753C228.506 59.2548 228.532 59.237 228.559 59.2218Z" fill="white"/>
<path d="M241.522 55.7529C241.079 55.8798 240.63 55.9612 240.178 55.9965C239.343 56.1153 238.197 56.2875 236.931 56.5132C235.665 56.739 234.524 56.9766 233.697 57.1548C233.254 57.2804 232.805 57.3598 232.353 57.3924C232.782 57.1865 233.223 57.0353 233.671 56.9409C234.494 56.7093 235.635 56.436 236.901 56.2103C238.167 55.9846 239.326 55.842 240.166 55.7767C240.616 55.7102 241.07 55.7023 241.522 55.7529Z" fill="white"/>
<g opacity="0.4">
<path d="M212.534 149.753C212.534 149.753 232.745 193.745 264.098 171.215C296.828 147.692 278.74 93.7748 278.74 93.7748C278.74 93.7748 294.141 136.745 262.237 164.758C254.291 171.737 245.639 171.743 239.041 170.828C222.181 168.5 212.534 149.753 212.534 149.753Z" fill="black"/>
</g>
<path d="M254.576 88.8268C254.77 96.7163 254.597 104.615 254.059 112.474C253.861 115.319 253.628 118.194 252.832 120.837C252.035 123.481 250.678 125.904 248.766 127.021C246.854 128.138 244.408 127.674 243.077 125.488L254.576 88.8268Z" fill="#E0E0E0"/>
<path d="M242.857 113.175L257.03 80.2554L248.477 117.422L244.106 119.222L242.857 113.175Z" fill="#088395"/>
<g opacity="0.4">
<path d="M257.03 80.2554L246.518 113.894L248.477 117.422L257.03 80.2554Z" fill="black"/>
</g>
<path d="M244.106 125.512C246.625 125.512 248.667 122.696 248.667 119.222C248.667 115.748 246.625 112.931 244.106 112.931C241.587 112.931 239.545 115.748 239.545 119.222C239.545 122.696 241.587 125.512 244.106 125.512Z" fill="#FAFAFA"/>
<path d="M248.667 119.222C248.626 118.711 248.564 118.203 248.482 117.701C248.218 116.346 247.632 115.152 246.819 114.309C246.222 113.69 245.522 113.286 244.782 113.136C244.043 112.985 243.287 113.093 242.586 113.448C242.182 113.645 241.803 113.928 241.462 114.286C241.099 114.649 240.78 115.09 240.519 115.593C239.959 116.645 239.657 117.916 239.657 119.222C239.657 120.527 239.959 121.799 240.519 122.851C241.042 123.83 241.76 124.577 242.586 125.001C243.175 125.3 243.803 125.424 244.43 125.368C245.056 125.312 245.667 125.076 246.223 124.675C246.78 124.274 247.269 123.717 247.66 123.04C248.051 122.362 248.336 121.58 248.495 120.742C248.578 120.241 248.64 119.733 248.68 119.222C248.706 119.743 248.673 120.266 248.581 120.772C248.345 122.189 247.761 123.448 246.927 124.336C246.355 124.948 245.687 125.366 244.976 125.554C244.158 125.769 243.314 125.679 242.53 125.293C242.104 125.09 241.704 124.795 241.346 124.419C240.965 124.04 240.63 123.578 240.355 123.053C239.762 121.952 239.442 120.617 239.442 119.246C239.442 117.874 239.762 116.539 240.355 115.438C240.631 114.914 240.966 114.453 241.346 114.072C241.706 113.701 242.105 113.409 242.53 113.205C243.313 112.815 244.158 112.725 244.976 112.943C245.845 113.174 246.646 113.744 247.286 114.587C247.925 115.43 248.375 116.509 248.581 117.695C248.667 118.195 248.696 118.71 248.667 119.222Z" fill="#263238"/>
<path d="M247.447 120.165C247.819 117.631 246.631 115.162 244.793 114.649C242.956 114.137 241.166 115.776 240.795 118.31C240.423 120.844 241.611 123.313 243.448 123.825C245.286 124.337 247.076 122.699 247.447 120.165Z" fill="#455A64"/>
<path d="M208.15 270.205H230.588L220.127 145.857L208.15 270.205Z" fill="#E0E0E0"/>
<path d="M97.7442 145.857L83.136 271.672L207.792 273.911L220.127 145.857H97.7442Z" fill="#FAFAFA"/>
<path d="M214.575 203.493H91.0515L93.7389 180.327H216.806L214.575 203.493Z" fill="#EBEBEB"/>
<path d="M214.584 203.51H91.0386L93.7302 180.344H216.819L214.584 203.51ZM91.0644 203.481H214.567L216.793 180.315H93.7518L91.0644 203.481Z" fill="#263238"/>
<path d="M97.7441 145.857L93.7389 180.326H216.806L220.127 145.857H97.7441Z" fill="#088395"/>
<path d="M97.7613 145.857L220.144 145.714H220.26V145.874C216.655 183.362 212.564 225.874 208.24 270.775V270.911H206.742L83.2392 270.864H83.1187V270.715L97.7613 145.857C97.6407 146.89 92.0765 195.129 83.3469 270.775L83.2565 270.626H206.711H208.111L208.003 270.757C212.332 225.857 216.432 183.35 220.062 145.863L220.161 146.017L97.7613 145.857Z" fill="#263238"/>
<path d="M216.806 180.327C216.806 180.41 189.244 180.481 155.277 180.481C121.31 180.481 93.7389 180.41 93.7389 180.327C93.7389 180.243 121.302 180.172 155.277 180.172C189.252 180.172 216.806 180.237 216.806 180.327Z" fill="#263238"/>
<path d="M214.575 203.492C214.575 203.582 186.866 203.647 152.697 203.647C118.528 203.647 90.8147 203.582 90.8147 203.492C90.8147 203.403 118.515 203.338 152.697 203.338C186.879 203.338 214.575 203.409 214.575 203.492Z" fill="#263238"/>
<path d="M212.06 224.811C212.06 224.9 184.355 224.966 150.186 224.966C116.017 224.966 88.2866 224.9 88.2866 224.811C88.2866 224.722 115.987 224.657 150.169 224.657C184.351 224.657 212.06 224.728 212.06 224.811Z" fill="#263238"/>
<path d="M209.549 246.13C209.549 246.213 181.84 246.284 147.671 246.284C113.502 246.284 85.7888 246.213 85.7888 246.13C85.7888 246.047 113.489 245.975 147.671 245.975C181.853 245.975 209.549 246.047 209.549 246.13Z" fill="#263238"/>
<path d="M100.634 270.947C100.574 270.947 102.835 250.632 105.69 225.613C108.545 200.594 110.901 180.309 110.961 180.327C111.022 180.344 108.761 200.629 105.91 225.661C103.059 250.692 100.698 270.959 100.634 270.947Z" fill="#263238"/>
<path d="M119.682 270.947C119.618 270.947 121.883 250.632 124.734 225.613C127.585 200.594 129.945 180.309 130.01 180.327C130.074 180.344 127.809 200.629 124.954 225.661C122.098 250.692 119.725 270.959 119.682 270.947Z" fill="#263238"/>
<path d="M137.383 270.038C137.322 270.038 139.562 249.931 142.383 225.162C145.204 200.392 147.551 180.309 147.607 180.327C147.663 180.344 145.428 200.428 142.607 225.209C139.786 249.991 137.439 270.05 137.383 270.038Z" fill="#263238"/>
<path d="M154.889 270.757C154.829 270.757 157.086 250.484 159.932 225.518C162.779 200.552 165.135 180.309 165.195 180.327C165.255 180.344 162.999 200.588 160.152 225.566C157.305 250.543 154.95 270.769 154.889 270.757Z" fill="#263238"/>
<path d="M172.482 270.757C172.422 270.757 174.678 250.484 177.525 225.518C180.372 200.552 182.728 180.309 182.788 180.327C182.848 180.344 180.596 200.588 177.749 225.566C174.902 250.543 172.547 270.769 172.482 270.757Z" fill="#263238"/>
<path d="M190.062 270.864C190.001 270.864 192.262 250.567 195.113 225.56C197.964 200.552 200.32 180.285 200.385 180.303C200.449 180.321 198.184 200.594 195.333 225.607C192.482 250.62 190.122 270.9 190.062 270.864Z" fill="#263238"/>
<g opacity="0.2">
<path d="M178.994 181.942C181.113 180.647 182.439 177.606 182.986 174.499C183.533 171.393 183.447 168.15 183.529 164.948C183.61 161.746 183.886 158.449 185.07 155.699C185.772 154.078 186.759 152.729 187.538 151.167C188.318 149.605 188.895 147.704 188.606 145.821L175.35 145.916L178.994 181.942Z" fill="black"/>
</g>
<path d="M124.032 205.209C123.997 205.289 123.953 205.361 123.903 205.423L123.507 206.017C123.158 206.51 122.645 207.205 121.999 208.072C120.707 209.783 118.911 212.112 116.866 214.606C114.82 217.101 112.925 219.275 111.534 220.82C110.836 221.592 110.268 222.21 109.872 222.602L109.411 223.077C109.359 223.139 109.301 223.189 109.239 223.225C109.239 223.225 109.286 223.148 109.381 223.029L109.811 222.507L111.426 220.624C112.796 219.038 114.674 216.834 116.715 214.351C118.756 211.868 120.591 209.563 121.883 207.894L123.438 205.916L123.868 205.387C123.917 205.319 123.972 205.259 124.032 205.209Z" fill="#263238"/>
<path d="M123.037 223.463C122.854 223.242 122.683 223.004 122.525 222.75L121.177 220.766C120.014 219.061 118.455 216.768 116.737 214.232L112.249 207.757L110.888 205.791C110.716 205.557 110.557 205.307 110.41 205.043C110.605 205.242 110.787 205.464 110.953 205.708C111.289 206.148 111.771 206.795 112.361 207.603C113.541 209.219 115.152 211.482 116.896 214.024C118.64 216.566 120.19 218.907 121.293 220.623C121.844 221.479 122.288 222.18 122.585 222.667C122.753 222.912 122.905 223.179 123.037 223.463Z" fill="#263238"/>
<path d="M127.637 210.668C127.637 210.668 127.68 210.514 127.77 210.211C127.913 209.771 128.086 209.351 128.287 208.957C129.079 207.431 130.196 206.283 131.483 205.672C132.404 205.213 133.387 205.034 134.364 205.15C135.526 205.306 136.647 205.832 137.637 206.688C138.779 207.659 139.745 208.981 140.458 210.549C141.282 212.3 141.693 214.361 141.633 216.448C141.584 217.573 141.331 218.664 140.897 219.62C140.442 220.611 139.837 221.454 139.123 222.091C137.601 223.436 135.81 224.083 134.006 223.938C133.061 223.868 132.131 223.589 131.25 223.112C130.334 222.619 129.509 221.847 128.838 220.855C128.505 220.333 128.224 219.752 128.003 219.127C127.792 218.488 127.647 217.812 127.572 217.119C127.429 215.698 127.519 214.251 127.835 212.884C128.493 210.033 129.921 207.64 131.823 206.201C132.809 205.454 133.905 205.029 135.029 204.958C136.153 204.887 137.273 205.172 138.304 205.791C139.373 206.412 140.308 207.4 141.022 208.66C141.736 209.955 142.183 211.492 142.314 213.109C142.463 214.749 142.27 216.414 141.758 217.909C141.495 218.659 141.149 219.348 140.733 219.952C140.31 220.548 139.832 221.065 139.312 221.491C138.263 222.287 137.107 222.778 135.915 222.931C134.722 223.084 133.52 222.897 132.383 222.382C131.263 221.907 130.233 221.096 129.368 220.006C128.51 218.915 127.924 217.478 127.693 215.901C127.45 214.351 127.61 212.732 128.145 211.327C128.416 210.635 128.789 210.028 129.239 209.545C129.682 209.084 130.176 208.725 130.703 208.482C131.737 208.025 132.822 207.824 133.907 207.888C134.964 207.899 136.015 208.098 137.034 208.482C138.041 208.848 138.972 209.535 139.751 210.49C140.498 211.45 141.007 212.709 141.207 214.089C141.405 215.423 141.347 216.805 141.039 218.099C140.734 219.346 140.219 220.476 139.536 221.396C138.239 223.145 136.521 224.177 134.708 224.294C133.86 224.356 133.011 224.187 132.21 223.795C131.442 223.415 130.75 222.786 130.195 221.96C129.669 221.172 129.271 220.238 129.028 219.222C128.788 218.268 128.681 217.26 128.713 216.252C128.775 214.384 129.315 212.607 130.238 211.238C131.027 210.047 132.025 209.158 133.136 208.654C134.069 208.235 135.057 208.105 136.03 208.274C137.375 208.505 138.653 209.215 139.738 210.335C140.02 210.621 140.286 210.935 140.535 211.274C140.703 211.506 140.785 211.63 140.785 211.63C140.785 211.63 140.69 211.517 140.522 211.298C140.266 210.97 139.996 210.664 139.713 210.383C138.626 209.296 137.355 208.611 136.022 208.393C134.97 208.225 133.905 208.407 132.915 208.924C131.926 209.441 131.04 210.277 130.333 211.363C129.434 212.702 128.91 214.44 128.855 216.263C128.826 217.252 128.933 218.24 129.17 219.174C129.41 220.16 129.799 221.065 130.311 221.829C130.851 222.629 131.521 223.24 132.266 223.611C133.047 223.986 133.874 224.147 134.7 224.086C136.469 223.966 138.144 222.954 139.407 221.241C140.067 220.351 140.564 219.258 140.858 218.051C141.153 216.801 141.206 215.466 141.013 214.179C140.819 212.853 140.33 211.644 139.614 210.721C138.856 209.803 137.953 209.14 136.978 208.785C135.975 208.406 134.942 208.207 133.903 208.191C132.844 208.136 131.785 208.337 130.776 208.785C129.747 209.22 128.876 210.177 128.339 211.464C127.829 212.807 127.676 214.354 127.908 215.836C128.131 217.351 128.697 218.73 129.523 219.774C130.361 220.842 131.362 221.638 132.452 222.102C133.559 222.605 134.729 222.787 135.889 222.638C137.05 222.489 138.175 222.011 139.196 221.235C139.7 220.827 140.162 220.328 140.57 219.75C140.969 219.171 141.302 218.509 141.556 217.79C142.051 216.348 142.238 214.74 142.094 213.157C141.971 211.596 141.544 210.11 140.858 208.856C140.168 207.638 139.264 206.683 138.231 206.082C137.23 205.479 136.143 205.201 135.052 205.269C133.961 205.337 132.896 205.749 131.939 206.474C130.091 207.878 128.704 210.206 128.063 212.979C127.756 214.305 127.666 215.709 127.8 217.089C127.878 217.759 128.023 218.411 128.231 219.026C128.444 219.626 128.713 220.185 129.032 220.689C129.682 221.649 130.479 222.396 131.366 222.875C132.227 223.344 133.138 223.621 134.062 223.694C135.828 223.843 137.582 223.22 139.075 221.912C139.765 221.33 140.347 220.532 140.772 219.582C141.198 218.633 141.456 217.56 141.526 216.448C141.586 214.407 141.187 212.39 140.384 210.674C139.687 209.125 138.741 207.818 137.62 206.855C136.648 206.006 135.547 205.479 134.402 205.316C133.441 205.19 132.47 205.356 131.56 205.803C130.285 206.398 129.173 207.517 128.373 209.011C128.167 209.398 127.988 209.812 127.839 210.246C127.693 210.519 127.637 210.668 127.637 210.668Z" fill="#088395"/>
<path d="M139.303 227.068C139.342 227.134 135.927 231.161 131.672 236.068C127.417 240.974 123.92 244.888 123.894 244.823C123.868 244.758 127.271 240.73 131.526 235.83C135.781 230.929 139.265 227.003 139.303 227.068Z" fill="#263238"/>
<path d="M140.049 244.294C139.846 244.13 139.654 243.941 139.476 243.73L137.96 242.103C136.689 240.713 134.945 238.776 133.024 236.626C131.104 234.476 129.377 232.515 128.132 231.084L126.663 229.373C126.477 229.177 126.304 228.958 126.147 228.72C126.348 228.886 126.54 229.075 126.719 229.284L128.231 230.912C129.501 232.302 131.246 234.238 133.166 236.388C135.087 238.539 136.814 240.499 138.063 241.93L139.527 243.635C139.712 243.837 139.887 244.058 140.049 244.294Z" fill="#263238"/>
<path d="M175.255 227.3C175.29 227.365 172.025 230.817 167.956 235.022C163.886 239.228 160.561 242.548 160.522 242.477C160.484 242.405 163.752 238.96 167.822 234.755C171.892 230.549 175.217 227.229 175.255 227.3Z" fill="#263238"/>
<path d="M176.522 241.912C176.491 241.984 173.02 239.02 168.77 235.283C164.519 231.547 161.112 228.47 161.143 228.393C161.173 228.316 164.644 231.292 168.895 235.022C173.145 238.752 176.573 241.841 176.522 241.912Z" fill="#263238"/>
<path d="M139.863 270.763C139.816 270.704 143.21 265.797 147.439 259.816C151.668 253.834 155.135 249.017 155.191 249.076C155.247 249.136 151.844 254.042 147.615 260.029C143.386 266.017 139.906 270.822 139.863 270.763Z" fill="#088395"/>
<path d="M154.209 270.757C154.209 270.757 154.153 270.692 154.067 270.549L153.705 269.955C153.369 269.361 152.921 268.595 152.374 267.656C151.25 265.72 149.657 263.089 147.809 260.291C145.961 257.493 144.209 255.064 142.917 253.341L141.384 251.262L140.953 250.704C140.903 250.641 140.858 250.571 140.819 250.496C140.819 250.496 140.884 250.543 140.983 250.656L141.414 251.173C141.797 251.624 142.34 252.296 143.003 253.139C144.321 254.826 146.095 257.238 147.951 260.041C149.807 262.845 151.397 265.506 152.473 267.478C153.024 268.464 153.459 269.26 153.765 269.854L154.097 270.508C154.141 270.584 154.179 270.668 154.209 270.757Z" fill="#088395"/>
<path d="M118.954 245.773C118.954 245.773 119.092 260.368 116.422 269.106L100.147 265.28C100.147 265.28 105.048 251.452 103.713 243.766L118.954 245.773Z" fill="#EBEBEB"/>
<path d="M118.95 245.227C118.95 245.227 116.909 263.142 115.66 268.488L99.484 264.057C99.484 264.057 102.813 246.736 102.77 241.912L118.95 245.227Z" fill="#088395"/>
<path d="M104.411 249.943C104.411 250.026 106.814 250.799 109.807 251.666C112.8 252.533 115.233 253.169 115.246 253.091C115.259 253.014 112.843 252.236 109.85 251.369C106.857 250.502 104.424 249.86 104.411 249.943Z" fill="white"/>
<path d="M103.997 253.739C103.997 253.822 106.4 254.588 109.394 255.462C112.387 256.335 114.82 256.964 114.833 256.887C114.846 256.81 112.43 256.032 109.437 255.165C106.444 254.297 104.01 253.638 103.997 253.739Z" fill="white"/>
<path d="M106.375 258.034C106.651 258.199 106.94 258.319 107.236 258.39C107.792 258.574 108.562 258.818 109.411 259.067C110.259 259.317 111.039 259.519 111.603 259.661C111.904 259.765 112.214 259.817 112.525 259.816C112.238 259.649 111.939 259.528 111.633 259.453C111.082 259.263 110.311 259.02 109.458 258.776C108.605 258.533 107.83 258.319 107.27 258.182C106.977 258.083 106.676 258.033 106.375 258.034Z" fill="white"/>
<path d="M195.953 204.793C195.953 204.793 197.62 219.014 195.932 228.084L179.635 227.603C179.635 227.603 182.969 213.121 180.854 205.88L195.953 204.793Z" fill="#EBEBEB"/>
<path d="M195.88 204.259C195.88 204.259 195.772 222.144 195.114 227.603L178.847 226.54C178.847 226.54 180.273 208.957 179.709 204.259H195.88Z" fill="#455A64"/>
<path d="M182.017 212.218C182.017 212.301 184.463 212.373 187.482 212.379C190.501 212.385 192.952 212.325 192.952 212.242C192.952 212.159 190.505 212.088 187.482 212.082C184.459 212.076 182.017 212.135 182.017 212.218Z" fill="white"/>
<path d="M182.172 216.002C182.172 216.085 184.618 216.157 187.637 216.163C190.656 216.168 193.107 216.109 193.107 216.026C193.107 215.943 190.66 215.871 187.637 215.866C184.614 215.86 182.172 215.919 182.172 216.002Z" fill="white"/>
<path d="M185.088 219.489C185.388 219.578 185.694 219.616 186.001 219.602C186.565 219.602 187.344 219.643 188.206 219.649C189.067 219.655 189.842 219.649 190.406 219.608C190.713 219.625 191.019 219.591 191.319 219.507C191.02 219.418 190.713 219.383 190.406 219.4C189.842 219.37 189.067 219.352 188.206 219.346C187.344 219.34 186.565 219.346 186.001 219.388C185.694 219.371 185.388 219.405 185.088 219.489Z" fill="white"/>
<path d="M199.399 163.79C196.358 163.79 193.296 161.158 191.685 157.018C190.12 152.895 189.634 148.153 190.312 143.594C191.203 137.654 194.054 132.783 197.577 131.226C200.57 129.902 205.919 130.632 208.443 136.46C209.645 139.309 210.242 142.567 210.165 145.863C210.154 146.097 210.109 146.325 210.034 146.536C209.959 146.746 209.854 146.933 209.726 147.088C209.598 147.242 209.449 147.36 209.288 147.436C209.127 147.511 208.957 147.541 208.787 147.526C208.445 147.494 208.125 147.276 207.899 146.92C207.673 146.563 207.559 146.098 207.581 145.625C207.605 143.052 207.126 140.519 206.195 138.289C204.248 133.804 199.98 133.894 198.335 134.618C195.32 135.949 193.391 140.445 192.809 144.312C192.251 148.056 192.648 151.951 193.934 155.337C195.204 158.604 197.775 160.635 200.053 160.154C200.39 160.09 200.731 160.21 201.003 160.49C201.275 160.77 201.457 161.186 201.508 161.649C201.56 162.112 201.477 162.584 201.278 162.964C201.079 163.343 200.78 163.599 200.445 163.677C200.099 163.751 199.749 163.788 199.399 163.79Z" fill="#263238"/>
<path d="M115.987 163.789C112.942 163.789 109.885 161.158 108.274 157.018C106.707 152.896 106.22 148.154 106.896 143.593C107.649 138.58 110.199 132.806 114.217 131.215C116.154 130.491 118.208 130.634 120.083 131.624L119.153 134.951C117.804 134.244 116.328 134.134 114.932 134.636C111.969 135.824 110.04 140.35 109.445 144.312C108.887 148.056 109.284 151.951 110.569 155.337C111.84 158.61 114.415 160.635 116.689 160.154L117.081 163.677C116.719 163.754 116.353 163.792 115.987 163.789Z" fill="#263238"/>
<path d="M198.335 145.952L197.146 154.927H214.636L216.19 146.041L198.335 145.952Z" fill="#088395"/>
<path d="M120.419 162.37C120.42 163.129 120.257 163.872 119.952 164.504C119.646 165.136 119.212 165.629 118.703 165.92C118.195 166.211 117.635 166.287 117.095 166.14C116.555 165.992 116.059 165.626 115.669 165.089C115.28 164.552 115.015 163.868 114.908 163.123C114.801 162.378 114.856 161.606 115.067 160.905C115.278 160.203 115.635 159.604 116.094 159.183C116.552 158.762 117.09 158.537 117.641 158.539C118.377 158.54 119.083 158.944 119.604 159.662C120.125 160.381 120.418 161.354 120.419 162.37Z" fill="#263238"/>
<path d="M203.757 162.37C203.758 163.129 203.595 163.872 203.29 164.504C202.985 165.136 202.55 165.629 202.042 165.92C201.533 166.211 200.973 166.287 200.433 166.14C199.893 165.992 199.397 165.626 199.008 165.089C198.618 164.552 198.353 163.868 198.246 163.123C198.139 162.378 198.194 161.606 198.405 160.905C198.617 160.203 198.974 159.604 199.432 159.183C199.89 158.762 200.429 158.537 200.979 158.539C201.716 158.54 202.422 158.944 202.942 159.662C203.463 160.381 203.756 161.354 203.757 162.37Z" fill="#263238"/>
<path d="M157.861 88.1022L153.287 112.028L137.499 114.369V118.23L159.683 119.305L163.851 92.4621L157.861 88.1022Z" fill="#FFBE9D"/>
<path d="M164.515 119.941C164.515 119.941 139.846 118.319 132.822 125.881C125.798 133.442 129.2 145.857 129.2 145.857L168.899 145.714L172.404 117.957L164.515 119.941Z" fill="#263238"/>
<path d="M168.714 138.254C168.594 138.258 168.474 138.246 168.356 138.218C168.124 138.182 167.783 138.135 167.344 138.058C166.483 137.909 165.191 137.66 163.64 137.297C159.57 136.342 155.543 135.059 151.582 133.454C149.265 132.51 147.073 131.559 145.048 130.864C143.262 130.226 141.434 129.829 139.592 129.676C138.349 129.58 137.102 129.68 135.875 129.973C135.445 130.044 135.113 130.199 134.88 130.252C134.766 130.291 134.649 130.321 134.532 130.341C134.641 130.276 134.755 130.227 134.872 130.193C135.196 130.054 135.525 129.941 135.858 129.854C137.088 129.512 138.343 129.378 139.596 129.456C141.465 129.579 143.321 129.959 145.135 130.591C147.172 131.268 149.368 132.218 151.676 133.163C155.617 134.754 159.614 136.061 163.653 137.077C165.208 137.469 166.47 137.749 167.344 137.939L168.352 138.159C168.474 138.176 168.595 138.208 168.714 138.254Z" fill="#455A64"/>
<path d="M145.785 130.68C145.1 129.9 144.369 129.199 143.601 128.583C142.797 128.064 141.963 127.635 141.108 127.3C141.373 127.268 141.64 127.305 141.896 127.407C142.526 127.594 143.134 127.898 143.705 128.31C144.275 128.724 144.802 129.242 145.272 129.848C145.479 130.08 145.653 130.362 145.785 130.68Z" fill="#455A64"/>
<path d="M167.129 193.899L167.46 208.197L165.376 219.614C165.342 219.809 165.338 220.012 165.363 220.21C165.389 220.408 165.444 220.596 165.525 220.764C165.606 220.931 165.711 221.073 165.833 221.182C165.956 221.291 166.093 221.364 166.237 221.396C166.404 221.438 166.575 221.424 166.737 221.356C166.899 221.287 167.046 221.167 167.167 221.004C168.735 218.889 174.489 211.072 174.416 210.032C174.338 208.844 174.79 194.909 174.79 194.909L167.129 193.899Z" fill="#088395"/>
<g opacity="0.6">
<path d="M166.198 221.419L174.381 209.088V209.682C174.386 210.207 174.255 210.717 174.011 211.12C173.36 212.195 171.513 215.111 167.167 221.016C167.043 221.185 166.891 221.31 166.723 221.378C166.555 221.446 166.378 221.457 166.207 221.408L166.198 221.419Z" fill="white"/>
</g>
<g opacity="0.6">
<path d="M172.211 204.496C172.079 204.629 171.989 204.825 171.958 205.045C171.927 205.265 171.957 205.494 172.043 205.684C172.133 205.862 172.27 205.986 172.424 206.03C172.579 206.074 172.739 206.036 172.874 205.922C173.009 205.784 173.102 205.581 173.133 205.353C173.165 205.126 173.134 204.89 173.046 204.692C172.939 204.518 172.787 204.409 172.622 204.386C172.457 204.364 172.293 204.431 172.163 204.574" fill="white"/>
</g>
<path d="M168.528 215.135C168.468 215.177 168.227 214.434 167.611 214.036C167.23 213.83 166.823 213.729 166.414 213.739C166.414 213.703 166.534 213.591 166.776 213.537C167.095 213.484 167.419 213.557 167.709 213.75C167.999 213.943 168.243 214.246 168.412 214.624C168.533 214.915 168.55 215.123 168.528 215.135Z" fill="#263238"/>
<path d="M167.801 217.065C167.503 216.841 167.195 216.643 166.879 216.471C166.543 216.39 166.203 216.334 165.863 216.305C166.021 216.165 166.201 216.079 166.389 216.055C166.576 216.031 166.765 216.07 166.939 216.169C167.551 216.394 167.852 217.024 167.801 217.065Z" fill="#263238"/>
<path d="M169.885 212.652C169.445 212.252 168.984 211.896 168.507 211.589C168.003 211.376 167.487 211.217 166.965 211.114C167.508 210.957 168.071 211.018 168.589 211.291C169.107 211.564 169.557 212.036 169.885 212.652Z" fill="#263238"/>
<path d="M170.049 208.304C170.023 208.393 169.446 208.066 168.701 208.043C167.956 208.019 167.366 208.268 167.34 208.179C167.758 207.862 168.23 207.706 168.707 207.727C169.184 207.749 169.647 207.949 170.049 208.304Z" fill="#263238"/>
<path d="M170.027 204.104C169.574 203.908 169.103 203.798 168.627 203.778C168.157 203.853 167.696 204.019 167.258 204.271C167.258 204.241 167.353 204.057 167.59 203.867C167.907 203.62 168.261 203.48 168.625 203.458C168.989 203.436 169.351 203.534 169.683 203.742C169.919 203.902 170.044 204.069 170.027 204.104Z" fill="#263238"/>
<path d="M168.64 202.976C168.614 202.798 168.614 202.614 168.64 202.435C168.673 201.939 168.777 201.456 168.946 201.016C169.047 200.677 169.227 200.394 169.459 200.214C169.539 200.164 169.628 200.15 169.714 200.172C169.8 200.194 169.879 200.252 169.941 200.338C170.052 200.517 170.112 200.745 170.109 200.98C170.089 201.459 169.949 201.913 169.713 202.266C169.478 202.619 169.161 202.849 168.817 202.916C168.473 202.969 168.126 202.88 167.819 202.66C167.513 202.44 167.26 202.099 167.094 201.681C167.052 201.575 167.028 201.459 167.022 201.339C167.016 201.219 167.029 201.098 167.06 200.986C167.1 200.88 167.163 200.793 167.24 200.736C167.317 200.68 167.404 200.657 167.491 200.671C167.747 200.746 167.984 200.912 168.18 201.152C168.462 201.461 168.704 201.835 168.895 202.257C168.971 202.406 169.026 202.573 169.058 202.75C168.784 202.213 168.455 201.735 168.081 201.33C167.906 201.133 167.699 200.996 167.478 200.932C167.43 200.921 167.381 200.931 167.337 200.961C167.294 200.991 167.259 201.039 167.236 201.099C167.221 201.175 167.217 201.255 167.224 201.333C167.232 201.412 167.251 201.488 167.28 201.556C167.431 201.91 167.652 202.197 167.918 202.382C168.183 202.567 168.482 202.644 168.778 202.602C169.072 202.55 169.344 202.361 169.548 202.065C169.753 201.77 169.878 201.387 169.902 200.98C169.908 200.817 169.871 200.657 169.799 200.529C169.766 200.478 169.723 200.443 169.675 200.429C169.627 200.415 169.576 200.423 169.532 200.451C169.343 200.611 169.193 200.844 169.101 201.123C168.872 201.7 168.716 202.326 168.64 202.976Z" fill="#263238"/>
<path d="M172.383 117.957C172.383 117.957 161.715 145.774 161.569 150.627C161.422 155.48 161.569 200.214 161.569 200.214H178.081C178.511 200.214 180.988 180.059 180.484 175.42C179.98 170.781 178.201 145.845 178.201 145.845H187.702C187.702 145.845 190.307 142.002 190.213 137.125C190.157 134.434 188.882 128.934 187.629 126.017C186.815 124.146 181.599 114.351 181.599 114.351L172.383 117.957Z" fill="#263238"/>
<path d="M171.668 119.839C171.656 119.895 171.641 119.949 171.621 120C171.582 120.119 171.53 120.267 171.466 120.451L170.845 122.186C170.565 122.94 170.234 123.855 169.846 124.918L169.226 126.623L168.576 128.565L165.376 138.123C164.769 139.905 164.131 141.812 163.468 143.766L162.465 146.736C162.14 147.763 161.895 148.834 161.732 149.932C161.569 151.032 161.484 152.152 161.478 153.276C161.453 154.387 161.435 155.485 161.422 156.561C161.422 158.723 161.392 160.802 161.397 162.786C161.397 166.754 161.431 170.329 161.461 173.329C161.491 176.329 161.517 178.735 161.539 180.457C161.539 181.277 161.539 181.924 161.539 182.388C161.539 182.596 161.539 182.762 161.539 182.893C161.539 183.023 161.539 183.065 161.539 183.065C161.532 183.008 161.532 182.95 161.539 182.893C161.539 182.762 161.539 182.596 161.539 182.394C161.539 181.924 161.504 181.283 161.478 180.457C161.435 178.782 161.379 176.353 161.332 173.329C161.285 170.306 161.233 166.76 161.22 162.786C161.22 160.802 161.22 158.717 161.22 156.561C161.22 155.479 161.246 154.381 161.276 153.264C161.28 152.123 161.365 150.985 161.53 149.866C161.697 148.748 161.948 147.657 162.279 146.611L163.287 143.641L165.208 138.01L168.472 128.476L169.136 126.54C169.364 125.946 169.566 125.352 169.773 124.847L170.802 122.138C171.082 121.408 171.306 120.837 171.461 120.428C171.534 120.249 171.595 120.107 171.638 119.988C171.681 119.869 171.664 119.834 171.668 119.839Z" fill="#455A64"/>
<path d="M168.214 129.314C167.872 128.183 167.584 127.022 167.353 125.839C167.05 124.687 166.804 123.508 166.616 122.311C167.018 123.408 167.335 124.561 167.564 125.75C167.869 126.904 168.087 128.098 168.214 129.314Z" fill="#455A64"/>
<path d="M180.518 174.547C180.491 174.446 180.473 174.34 180.467 174.232C180.446 173.991 180.416 173.688 180.376 173.323C180.299 172.486 180.2 171.345 180.075 169.961C179.838 167.086 179.519 163.184 179.166 158.871C178.813 154.559 178.524 150.609 178.348 147.763C178.266 146.374 178.197 145.233 178.145 144.396C178.145 144.021 178.111 143.718 178.098 143.475C178.092 143.368 178.092 143.261 178.098 143.154C178.125 143.255 178.141 143.361 178.145 143.469C178.167 143.712 178.197 144.015 178.231 144.384C178.3 145.221 178.395 146.356 178.507 147.746C178.735 150.621 179.045 154.529 179.368 158.842C179.691 163.154 179.997 167.057 180.23 169.938C180.324 171.327 180.406 172.468 180.462 173.306C180.484 173.674 180.501 173.983 180.514 174.226C180.522 174.333 180.523 174.44 180.518 174.547Z" fill="#455A64"/>
<path d="M176.324 43.4571C176.069 41.0811 177.547 38.7942 179.252 38.515C180.957 38.2358 182.676 39.703 183.46 41.8473C183.824 42.9257 184.024 44.0963 184.046 45.2859C184.069 46.4755 183.913 47.6586 183.589 48.7615C183.158 50.2643 182.361 51.785 181.203 51.9038C180.044 52.0226 179.157 50.8049 178.391 49.6822" fill="#263238"/>
<path d="M164.2 55.242C160.755 44.8292 168.938 39.5961 173.386 41.3305C177.572 42.964 179.36 45.839 180.049 49.7C180.804 53.5736 180.653 57.677 179.618 61.4256C179.076 63.2432 178.102 65.0846 176.69 65.3103" fill="#263238"/>
<path d="M176.056 47.1102C176.411 47.1609 176.738 47.3938 176.974 47.7625C177.209 48.1313 177.335 48.6089 177.327 49.1001L176.522 75.6044C176.491 78.7348 173.18 80.5049 170.746 80.4336C168.296 80.3623 168.214 78.6991 168.162 75.7232C168.106 70.7514 168.106 68.8803 168.106 68.91C168.106 68.9397 165.006 68.1972 164.364 62.6196C164.041 59.8456 164.144 55.2955 164.312 51.5771C164.467 48.2329 166.074 44.1224 168.494 44.4491L176.056 47.1102Z" fill="#FFBE9D"/>
<path d="M165.897 54.749C165.895 54.936 165.946 55.1168 166.039 55.2524C166.133 55.388 166.261 55.4675 166.397 55.4737C166.463 55.4809 166.529 55.4698 166.592 55.441C166.655 55.4121 166.713 55.3662 166.763 55.3058C166.813 55.2454 166.853 55.1718 166.882 55.0895C166.911 55.0071 166.927 54.9176 166.931 54.8262C166.932 54.6396 166.88 54.4596 166.787 54.3244C166.694 54.1892 166.566 54.1092 166.431 54.1015C166.365 54.0943 166.298 54.1054 166.236 54.1342C166.173 54.163 166.115 54.209 166.065 54.2694C166.015 54.3298 165.974 54.4034 165.946 54.4857C165.917 54.5681 165.9 54.6576 165.897 54.749Z" fill="#263238"/>
<path d="M165.04 53.9471C165.105 54.0362 165.501 53.6382 166.056 53.6382C166.612 53.6382 167.025 54.0243 167.086 53.9293C167.146 53.8342 167.051 53.7214 166.87 53.5432C166.629 53.3129 166.342 53.1906 166.048 53.1927C165.758 53.1888 165.475 53.3161 165.242 53.5551C165.07 53.7333 165.01 53.9055 165.04 53.9471Z" fill="#263238"/>
<path d="M171.354 54.749C171.352 54.9317 171.401 55.1083 171.491 55.243C171.58 55.3776 171.704 55.4601 171.836 55.4737C171.902 55.4809 171.969 55.4698 172.032 55.441C172.094 55.4121 172.153 55.3662 172.202 55.3058C172.252 55.2454 172.293 55.1718 172.321 55.0894C172.35 55.0071 172.367 54.9175 172.37 54.8262C172.371 54.6396 172.32 54.4596 172.227 54.3244C172.133 54.1891 172.006 54.1092 171.87 54.1015C171.74 54.0934 171.612 54.157 171.515 54.2783C171.418 54.3996 171.36 54.5688 171.354 54.749Z" fill="#263238"/>
<path d="M170.544 54.0896C170.609 54.1787 171 53.7808 171.556 53.7808C172.112 53.7808 172.525 54.1669 172.585 54.0778C172.646 53.9887 172.551 53.8639 172.37 53.6857C172.129 53.4544 171.841 53.332 171.547 53.3353C171.258 53.3352 170.976 53.4621 170.742 53.6976C170.544 53.8758 170.497 54.054 170.544 54.0896Z" fill="#263238"/>
<path d="M168.503 59.798C168.209 59.6731 167.905 59.5973 167.598 59.5723C167.456 59.5723 167.318 59.5129 167.297 59.3822C167.283 59.1754 167.316 58.968 167.391 58.7882C167.525 58.313 167.663 57.814 167.822 57.2913C168.213 56.0231 168.529 54.7142 168.77 53.3768C168.303 54.5977 167.91 55.8691 167.594 57.1784L167.189 58.6872C167.1 58.9249 167.074 59.1981 167.116 59.4594C167.137 59.5284 167.17 59.5899 167.211 59.6393C167.252 59.6887 167.3 59.7246 167.353 59.7445C167.431 59.7732 167.512 59.7892 167.594 59.792C167.895 59.8458 168.201 59.8478 168.503 59.798Z" fill="#263238"/>
<path d="M168.119 68.9041C170.031 68.9521 171.915 68.263 173.559 66.9142C173.559 66.9142 172.241 70.7514 168.192 70.2287L168.119 68.9041Z" fill="#EB996E"/>
<path d="M168.739 61.6513C168.846 61.4682 168.984 61.3254 169.142 61.236C169.299 61.1467 169.47 61.1138 169.64 61.1404C169.763 61.1547 169.884 61.2037 169.993 61.2844C170.103 61.3651 170.199 61.4758 170.277 61.6097C170.351 61.7378 170.395 61.8942 170.403 62.0577C170.41 62.2213 170.382 62.3842 170.32 62.5245C170.231 62.6633 170.113 62.7619 169.982 62.8075C169.852 62.853 169.714 62.8434 169.588 62.7799C169.323 62.6511 169.079 62.449 168.873 62.1859C168.81 62.1245 168.756 62.048 168.714 61.9601C168.694 61.9177 168.683 61.8682 168.683 61.8176C168.683 61.767 168.694 61.7175 168.714 61.675" fill="#EB996E"/>
<path d="M170.148 60.3326C170.057 60.3326 170.053 61.1583 169.536 61.7523C169.019 62.3463 168.373 62.2513 168.369 62.3463C168.365 62.4413 168.511 62.5067 168.8 62.5186C169.155 62.5242 169.501 62.3582 169.777 62.0493C170.04 61.7516 170.209 61.3264 170.251 60.8613C170.255 60.5346 170.187 60.3267 170.148 60.3326Z" fill="#263238"/>
<path d="M170.277 52.7413C170.333 52.9492 170.893 52.8482 171.547 52.9611C172.202 53.074 172.732 53.3116 172.818 53.1274C172.857 53.0383 172.762 52.8423 172.551 52.6344C172.267 52.3827 171.944 52.2279 171.608 52.183C171.273 52.1253 170.933 52.1804 170.617 52.3433C170.376 52.474 170.255 52.6403 170.277 52.7413Z" fill="#263238"/>
<path d="M165.247 51.7137C165.346 51.8919 165.729 51.7137 166.194 51.7137C166.659 51.7137 167.056 51.8325 167.137 51.6483C167.176 51.5592 167.137 51.381 166.944 51.2207C166.717 51.0149 166.448 50.9131 166.177 50.9296C165.906 50.9373 165.643 51.0597 165.423 51.2801C165.26 51.4523 165.204 51.6305 165.247 51.7137Z" fill="#263238"/>
<path d="M170.514 42.6195C169.141 42.7161 167.808 43.2881 166.638 44.2827C165.982 44.7517 165.399 45.3944 164.923 46.1741C164.447 46.9538 164.087 47.8552 163.864 48.8268C163.808 49.0289 163.781 49.2448 163.787 49.4613C163.793 49.6779 163.831 49.8904 163.899 50.0861C164.027 50.3098 164.207 50.4648 164.409 50.5245C164.612 50.5841 164.822 50.5446 165.006 50.4128C165.371 50.139 165.681 49.7452 165.91 49.2663C166.001 49.79 166.218 50.2555 166.526 50.5865C166.834 50.9175 167.215 51.0944 167.605 51.0882C167.995 51.082 168.373 50.893 168.675 50.5523C168.977 50.2116 169.187 49.7393 169.269 49.2129C169.3 49.748 169.479 50.2461 169.77 50.6035C170.06 50.9609 170.439 51.15 170.828 51.1315C171.216 51.0852 171.586 50.8834 171.892 50.5509C172.198 50.2185 172.427 49.7699 172.551 49.2604C172.646 50.2263 172.888 51.1535 173.261 51.9809C173.453 52.3916 173.731 52.7112 174.058 52.8961C174.386 53.081 174.747 53.1224 175.092 53.0145C174.947 53.8357 174.956 54.6941 175.118 55.5093C175.333 56.2934 176.19 69.7118 176.767 69.4386C177.344 69.1653 177.323 55.4796 177.452 54.6836C177.738 53.1568 177.883 51.586 177.882 50.0088C177.921 48.3841 177.539 46.7935 176.805 45.5213C176.072 44.2492 175.034 43.3785 173.877 43.065C172.723 42.6997 171.538 42.5499 170.354 42.6195" fill="#263238"/>
<path d="M178.619 67.0567C178.619 67.0567 178.58 67.0924 178.494 67.134C178.373 67.1951 178.247 67.2369 178.119 67.2587C177.52 67.3636 176.912 67.2317 176.366 66.8783C175.819 66.525 175.356 65.9648 175.032 65.2629C174.591 64.2054 174.406 62.9824 174.502 61.7701C174.566 60.493 174.782 59.3288 174.881 58.2596C174.978 57.3104 175.039 56.3547 175.062 55.3965C175.062 54.5768 175.062 53.9175 175.062 53.4541C175.043 53.2172 175.043 52.9782 175.062 52.7413C175.113 52.975 175.143 53.2163 175.152 53.4601C175.199 54.1094 175.222 54.7617 175.221 55.4143C175.22 56.3815 175.176 57.3476 175.088 58.3071C174.993 59.4001 174.79 60.5703 174.726 61.7998C174.634 62.9507 174.802 64.1127 175.208 65.1262C175.562 65.9331 176.106 66.5476 176.75 66.8667C177.182 67.0941 177.645 67.1913 178.106 67.1518C178.438 67.1221 178.615 67.027 178.619 67.0567Z" fill="#263238"/>
<path d="M169.088 41.9008C169.245 42.3075 169.318 42.7656 169.299 43.2254C169.314 44.3509 169.006 45.4389 168.441 46.2515C167.876 47.0641 167.101 47.5351 166.285 47.5616C165.953 47.6054 165.62 47.5232 165.32 47.324C165.32 47.2705 165.69 47.4131 166.276 47.324C167.041 47.2523 167.76 46.7906 168.293 46.0288C168.825 45.267 169.133 44.2593 169.157 43.2016C169.17 42.4116 169.05 41.9126 169.088 41.9008Z" fill="#455A64"/>
<path d="M169.683 48.4705C169.704 48.4705 169.652 48.8506 169.342 49.2664C169.137 49.5217 168.895 49.717 168.633 49.8405C168.371 49.9641 168.094 50.0132 167.818 49.9852C167.276 49.9185 166.755 49.6719 166.298 49.2664C165.949 48.9635 165.759 48.7318 165.776 48.6724C165.985 48.763 166.185 48.8887 166.371 49.0466C166.825 49.3724 167.321 49.5741 167.831 49.6406C168.337 49.6818 168.836 49.471 169.239 49.0466C169.553 48.7734 169.657 48.4467 169.683 48.4705Z" fill="#455A64"/>
<path d="M179.437 46.7656C179.466 47.277 179.44 47.7914 179.36 48.2922C179.238 49.5329 178.898 50.7136 178.369 51.7315C178.093 52.2362 177.745 52.6578 177.347 52.9704C176.948 53.2829 176.508 53.4799 176.052 53.5491C175.775 53.5835 175.496 53.5452 175.23 53.4362C175.044 53.359 174.954 53.2818 174.958 53.264C175.313 53.3516 175.676 53.3736 176.035 53.3293C176.892 53.1375 177.662 52.4997 178.188 51.5473C178.693 50.5632 179.038 49.4409 179.2 48.2566C179.257 47.7533 179.336 47.2554 179.437 46.7656Z" fill="#455A64"/>
<path d="M180.178 49.4684C180.218 49.6211 180.239 49.7815 180.243 49.9436C180.272 50.376 180.279 50.8107 180.264 51.2444C180.241 52.7061 179.862 54.1145 179.187 55.2421C178.807 55.862 178.311 56.328 177.753 56.5904C177.296 56.7968 176.808 56.8377 176.336 56.7092C176.02 56.6258 175.719 56.4518 175.454 56.1984C175.273 56.0143 175.195 55.8776 175.204 55.8658C175.557 56.1758 175.95 56.3896 176.362 56.4954C176.807 56.5835 177.26 56.5244 177.684 56.3231C178.202 56.0598 178.661 55.6181 179.019 55.0401C179.659 53.9543 180.04 52.6223 180.109 51.2266C180.178 50.1515 180.139 49.4743 180.178 49.4684Z" fill="#455A64"/>
<path d="M123.412 121.265L115.595 145.922H126.358L134.023 121.069L123.412 121.265Z" fill="#455A64"/>
<path d="M117.727 95.0401L126.543 118.955H154.347L153.223 115.83L145.169 115.497L138.601 95.3371C138.402 94.7229 138.078 94.2015 137.668 93.8357C137.259 93.47 136.781 93.2756 136.293 93.2759H118.511C118.358 93.2684 118.207 93.3168 118.073 93.4164C117.938 93.5159 117.825 93.6629 117.746 93.8424C117.666 94.0219 117.622 94.2274 117.619 94.4378C117.616 94.6482 117.653 94.8561 117.727 95.0401Z" fill="#E0E0E0"/>
<path d="M131.65 105.762C131.65 106.052 131.588 106.336 131.471 106.577C131.354 106.818 131.188 107.006 130.994 107.117C130.799 107.228 130.586 107.257 130.379 107.201C130.173 107.144 129.983 107.004 129.835 106.799C129.686 106.594 129.584 106.333 129.543 106.048C129.502 105.763 129.523 105.468 129.604 105.2C129.684 104.932 129.821 104.703 129.996 104.542C130.171 104.381 130.376 104.295 130.587 104.295C130.868 104.296 131.138 104.451 131.338 104.726C131.537 105.001 131.649 105.373 131.65 105.762Z" fill="#263238"/>
<path d="M157.31 119.002H123.321V121.289H157.31V119.002Z" fill="#455A64"/>
<path d="M146.84 120.148L157.18 145.946H162.124L163.201 142.994L164.192 139.887L157.31 121.289L146.84 120.148Z" fill="#455A64"/>
<path d="M164.807 75.9192C164.807 75.9192 158.804 78.8357 157.512 88.1021L163.851 92.4621L164.807 75.9192Z" fill="#088395"/>
<path d="M164.808 75.9191C164.808 75.9191 160.609 88.904 160.768 95.9963C160.824 98.4614 161.995 104.906 161.995 104.906L164.179 120.861C164.179 120.861 180.893 117.743 181.263 117.743C181.634 117.743 180.703 104.645 180.703 104.645L183.43 79.4772C183.43 79.4772 182.181 76.0498 176.539 74.8618C173.158 74.1312 164.808 75.9191 164.808 75.9191Z" fill="#088395"/>
<path d="M163.223 83.457C163.261 83.4867 162.822 84.455 162.292 86.13C161.985 87.1108 161.726 88.1189 161.517 89.1476C161.266 90.408 161.083 91.6927 160.97 92.9907C160.871 94.2908 160.841 95.5991 160.88 96.9052C160.919 97.9716 161.01 99.0333 161.151 100.083C161.392 101.865 161.668 102.958 161.625 102.976C161.535 102.739 161.462 102.491 161.41 102.233C161.333 101.939 161.267 101.64 161.211 101.336C161.142 100.98 161.052 100.582 160.992 100.148C160.83 99.0911 160.724 98.0191 160.673 96.9408C160.622 95.6176 160.646 94.2908 160.746 92.9729C160.861 91.6568 161.052 90.3557 161.319 89.0822C161.54 88.0469 161.818 87.0362 162.15 86.0588C162.271 85.6791 162.406 85.3084 162.555 84.948C162.658 84.6686 162.772 84.397 162.895 84.1342C162.987 83.8937 163.097 83.6669 163.223 83.457Z" fill="#263238"/>
<path d="M166.84 75.8004L167.081 72.2364C167.108 71.866 167.232 71.522 167.431 71.2701C167.629 71.0181 167.888 70.8757 168.158 70.8702L176.405 70.698C176.655 70.6939 176.897 70.8211 177.082 71.0538C177.267 71.2865 177.381 71.6073 177.4 71.9513L177.611 75.7945C176.921 77.8129 175.753 79.4469 174.299 80.4277C171.875 82.0493 168.106 82.1028 168.106 82.1028L166.84 75.8004Z" fill="#088395"/>
<path d="M168.998 70.8999C169.024 70.8999 168.903 71.1316 168.851 71.4939C168.805 72.0187 168.805 72.5493 168.851 73.074C168.924 73.839 168.924 74.6137 168.851 75.3787C168.703 74.6336 168.628 73.8645 168.628 73.0918C168.57 72.5417 168.587 71.9816 168.679 71.4405C168.821 71.0306 168.985 70.8702 168.998 70.8999Z" fill="#263238"/>
<path d="M170.975 75.3073C170.831 74.5798 170.761 73.828 170.768 73.0739C170.736 72.5402 170.736 72.0038 170.768 71.4701C170.811 71.0424 170.936 70.8226 170.962 70.8761C170.988 70.9295 170.923 71.1256 170.927 71.5176C170.932 71.9096 170.975 72.468 170.975 73.062C171.047 73.8071 171.047 74.5622 170.975 75.3073Z" fill="#263238"/>
<path d="M173.451 75.2123C173.273 74.5191 173.164 73.7957 173.128 73.062C173.022 72.3352 172.988 71.5916 173.029 70.8523C173.209 71.5508 173.318 72.2805 173.352 73.0204C173.457 73.7415 173.49 74.4788 173.451 75.2123Z" fill="#263238"/>
<path d="M175.587 75.438C175.39 74.6747 175.286 73.8721 175.277 73.062C175.194 72.2545 175.209 71.4336 175.32 70.6326C175.433 71.4153 175.493 72.2106 175.501 73.0086C175.585 73.8129 175.614 74.6263 175.587 75.438Z" fill="#263238"/>
<g opacity="0.3">
<path d="M177.224 89.0466C176.892 93.0443 177.112 99.9346 178.137 103.707L182.952 92.7354L177.224 89.0466Z" fill="black"/>
</g>
<path d="M182.982 78.6516L183.007 78.6872C184.373 80.664 185.372 83.0666 185.919 85.6905L186.806 91.2682L177.331 93.2878C176.81 90.9219 176.686 88.4232 176.969 85.9816C177.435 81.776 182.982 78.6516 182.982 78.6516Z" fill="#088395"/>
<path d="M186.806 91.2682C186.744 91.2981 186.681 91.32 186.616 91.3335L186.074 91.4702L184.045 91.9275L177.181 93.365H177.06V93.1927C177.038 92.4027 177.021 91.583 177.008 90.7395C176.987 88.5477 177.008 86.4508 177.103 84.5441C177.169 82.8354 177.548 81.1778 178.206 79.7268C178.647 78.7508 179.253 77.9359 179.971 77.3508C180.165 77.1919 180.37 77.0606 180.583 76.9587C180.654 76.9137 180.729 76.8837 180.807 76.8696C180.807 76.8696 180.505 77.03 180.014 77.4636C179.331 78.0675 178.758 78.8806 178.339 79.8396C177.715 81.2815 177.36 82.9142 177.305 84.5916C177.206 86.4805 177.211 88.5714 177.237 90.7633C177.237 91.5949 177.267 92.4206 177.28 93.2046L177.155 93.0561L184.045 91.7196L186.082 91.3573L186.634 91.2682C186.691 91.2579 186.749 91.2579 186.806 91.2682Z" fill="#263238"/>
<path d="M166.793 83.0769C166.311 82.6896 165.868 82.2162 165.475 81.6691C165.033 81.1982 164.639 80.6467 164.304 80.0297C165.228 80.8877 166.065 81.9125 166.793 83.0769Z" fill="#FAFAFA"/>
<path d="M165.514 89.9495C165.176 90.428 164.785 90.8291 164.355 91.1375C163.961 91.5316 163.525 91.8401 163.063 92.0522C163.794 91.1858 164.618 90.4805 165.505 89.9613L165.514 89.9495Z" fill="#FAFAFA"/>
<path d="M170.798 91.6423C170.721 90.7982 170.721 89.9441 170.798 89.1C170.801 88.2513 170.876 87.406 171.022 86.5814C171.097 87.4237 171.097 88.2755 171.022 89.1178C171.02 89.9686 170.945 90.8161 170.798 91.6423Z" fill="#FAFAFA"/>
<path d="M175.936 98.5149C175.507 97.96 175.107 97.3646 174.739 96.7329C174.315 96.1764 173.92 95.5811 173.554 94.9509C174.071 95.3646 174.528 95.9063 174.902 96.5488C175.328 97.1147 175.678 97.7804 175.936 98.5149Z" fill="#FAFAFA"/>
<path d="M176.659 84.1461C176.29 84.6764 175.868 85.1323 175.406 85.5004C174.983 85.9494 174.518 86.3171 174.024 86.5934C174.394 86.0622 174.818 85.6062 175.281 85.2391C175.704 84.7925 176.167 84.4249 176.659 84.1461Z" fill="#FAFAFA"/>
<path d="M172.017 78.9486C171.608 79.497 171.147 79.9665 170.647 80.3445C170.189 80.8127 169.688 81.1961 169.157 81.485C169.566 80.9357 170.027 80.4642 170.527 80.0832C170.987 79.6207 171.488 79.2396 172.017 78.9486Z" fill="#FAFAFA"/>
<path d="M176.203 81.0157C175.921 80.4407 175.7 79.8125 175.548 79.1506C175.336 78.5212 175.191 77.853 175.118 77.1666C175.403 77.7411 175.624 78.3719 175.772 79.0377C175.987 79.6636 176.132 80.3304 176.203 81.0157Z" fill="#FAFAFA"/>
<path d="M181.961 83.6233C181.272 82.9647 180.674 82.142 180.195 81.1938C180.56 81.4814 180.885 81.8554 181.156 82.2987C181.48 82.6693 181.753 83.1181 181.961 83.6233Z" fill="#FAFAFA"/>
<path d="M179.588 89.4149C179.451 88.8281 179.389 88.2133 179.403 87.5972C179.339 86.9889 179.352 86.3698 179.442 85.7677C179.64 86.9633 179.689 88.1965 179.588 89.4149Z" fill="#FAFAFA"/>
<path d="M184.373 88.215C183.872 88.3252 183.36 88.301 182.865 88.1437C182.361 88.0868 181.868 87.8994 181.414 87.5913C181.914 87.5986 182.413 87.6822 182.9 87.8408C183.399 87.8928 183.893 88.0183 184.373 88.215Z" fill="#FAFAFA"/>
<path d="M165.079 100.184C164.728 99.5134 164.438 98.7851 164.217 98.0159C163.929 97.2901 163.706 96.518 163.554 95.7172C163.905 96.3878 164.195 97.1161 164.416 97.8853C164.705 98.6105 164.928 99.3827 165.079 100.184Z" fill="#FAFAFA"/>
<path d="M171.405 109.557C171.001 109.05 170.648 108.468 170.359 107.829C170.013 107.245 169.723 106.602 169.497 105.916C169.903 106.424 170.257 107.005 170.548 107.645C170.896 108.225 171.184 108.869 171.405 109.557Z" fill="#FAFAFA"/>
<path d="M176.634 105.625C176.19 106.024 175.709 106.336 175.204 106.552C174.725 106.864 174.216 107.078 173.692 107.187C174.613 106.475 175.604 105.949 176.634 105.625Z" fill="#FAFAFA"/>
<path d="M163.752 113.216C163.959 112.096 164.308 111.034 164.782 110.08C164.709 110.655 164.563 111.208 164.351 111.714C164.217 112.259 164.014 112.768 163.752 113.216Z" fill="#FAFAFA"/>
<path d="M159.7 86.3736C159.451 85.9385 159.301 85.4114 159.269 84.8589C159.168 84.3235 159.186 83.7584 159.321 83.2373C159.409 83.7526 159.467 84.2771 159.493 84.8055C159.593 85.3196 159.662 85.8441 159.7 86.3736Z" fill="#FAFAFA"/>
<path d="M166.896 107.205C166.436 107.038 166 106.767 165.604 106.403C165.175 106.135 164.78 105.774 164.433 105.334C164.892 105.504 165.328 105.775 165.725 106.136C166.152 106.409 166.547 106.769 166.896 107.205Z" fill="#FAFAFA"/>
<path d="M171.052 97.3091C170.346 98.4756 169.526 99.5012 168.615 100.356C168.941 99.7414 169.327 99.19 169.76 98.7169C170.142 98.1686 170.577 97.695 171.052 97.3091Z" fill="#FAFAFA"/>
<g opacity="0.3">
<path d="M168.507 97.125C168.716 99.1956 169.385 101.126 170.423 102.649C171.5 104.099 173.167 104.829 174.566 104.075C174.719 104.017 174.86 103.909 174.976 103.76C175.092 103.611 175.181 103.426 175.234 103.219C175.258 102.966 175.217 102.709 175.119 102.493C175.021 102.276 174.871 102.113 174.696 102.031C174.347 101.877 173.981 101.804 173.615 101.818C172.57 101.723 171.561 101.262 170.682 100.478C169.803 99.6943 169.084 98.6137 168.593 97.3388" fill="black"/>
</g>
<path d="M174.106 101.913C174.106 101.913 174.007 101.96 173.817 101.984C173.551 102.021 173.282 102.021 173.016 101.984C172.62 101.92 172.232 101.792 171.857 101.604C170.934 101.146 170.114 100.361 169.48 99.3287C169.223 98.9102 169.002 98.4517 168.821 97.9625C168.694 97.6365 168.595 97.2918 168.524 96.9348C168.489 96.8074 168.471 96.6729 168.468 96.5369C168.511 96.5369 168.627 97.0715 168.959 97.8555C169.153 98.313 169.38 98.7428 169.635 99.1386C169.952 99.62 170.306 100.052 170.69 100.428C171.079 100.791 171.495 101.096 171.931 101.336C172.288 101.53 172.659 101.674 173.038 101.764C173.688 101.895 174.106 101.853 174.106 101.913Z" fill="#263238"/>
<path d="M150.397 111.488L156.633 110.484L161.031 114.458L177.827 108.898L178.223 93.0264L185.686 91.6721V110.888C185.644 113.221 184.934 115.436 183.71 117.047C182.486 118.658 180.849 119.534 179.157 119.483L154.54 118.539L153.494 115.652L148.21 115.432L150.397 111.488Z" fill="#FFBE9D"/>
<path d="M177.628 108.868C177.525 108.925 177.418 108.971 177.31 109.005L176.397 109.332L173.025 110.484L161.879 114.208L160.841 114.553H160.798H160.763L156.371 110.567H156.431L150.191 111.565L150.234 111.53L148.58 114.422L148.149 115.183C148.101 115.274 148.047 115.357 147.986 115.432C148.026 115.335 148.07 115.242 148.119 115.153L148.55 114.369L150.152 111.434H150.178L156.409 110.359H156.444H156.47L160.871 114.327H160.794L161.832 113.983L172.99 110.336L176.379 109.26L177.301 108.981C177.408 108.932 177.517 108.894 177.628 108.868Z" fill="#EB996E"/>
<path d="M153.804 113.953C152.999 114.083 152.189 114.126 151.379 114.084H150.949L151.009 114.054C150.522 114.672 149.996 115.228 149.437 115.717C149.881 115.041 150.365 114.417 150.884 113.852L150.91 113.816H151.388C152.195 113.771 153.003 113.816 153.804 113.953Z" fill="#EB996E"/>
<path d="M180.725 111.464C180.404 110.765 179.987 110.16 179.498 109.682C178.978 109.277 178.406 109.019 177.814 108.922C177.988 108.839 178.175 108.818 178.356 108.862C178.796 108.927 179.219 109.13 179.593 109.456C179.966 109.783 180.28 110.224 180.51 110.745C180.626 110.955 180.7 111.203 180.725 111.464Z" fill="#EB996E"/>
<path d="M73.0195 238.354H44.897V243.683H73.0195V238.354Z" fill="#263238"/>
<path d="M73.0669 243.754H44.8496V238.289H73.0669V243.754ZM44.9444 243.617H72.9721V238.42H44.9444V243.617Z" fill="#263238"/>
<path d="M47.5068 241.912L51.5508 269.456H66.5294L70.4441 243.689L47.5068 241.912Z" fill="#263238"/>
<path d="M47.5068 266.849L49.6645 270.947H67.8688L70.4441 266.849H47.5068Z" fill="#455A64"/>
<path d="M57.9031 242.714C57.8472 242.714 57.7783 229.955 57.7438 214.202C57.7093 198.45 57.7438 185.69 57.7869 185.69C57.8299 185.69 57.9118 198.45 57.9462 214.202C57.9807 229.955 57.9591 242.714 57.9031 242.714Z" fill="#263238"/>
<path d="M64.1694 210.781C64.1506 210.883 64.1247 210.983 64.0919 211.078C64.0273 211.298 63.9411 211.571 63.8421 211.904C63.7861 212.088 63.7258 212.284 63.6569 212.498C63.588 212.711 63.5363 212.967 63.4717 213.222L63.2521 214.054C63.1789 214.351 63.1186 214.648 63.0454 215.004C62.7112 216.564 62.448 218.151 62.2572 219.756C62.0411 221.725 61.8974 223.708 61.8266 225.696C61.7249 229.315 61.7997 232.938 62.0505 236.543C62.141 237.933 62.2314 239.049 62.3003 239.822C62.3261 240.184 62.352 240.481 62.3692 240.713C62.375 240.817 62.375 240.923 62.3692 241.027C62.3421 240.928 62.3247 240.824 62.3175 240.719C62.2874 240.487 62.2529 240.196 62.2099 239.839C62.1194 239.067 62.0031 237.951 61.8955 236.567C61.6026 232.954 61.509 229.316 61.6155 225.684C61.6794 223.685 61.8232 221.692 62.0462 219.715C62.2454 218.106 62.5245 216.518 62.8817 214.963C62.9592 214.63 63.0238 214.309 63.1013 214.018L63.3339 213.187L63.5406 212.468C63.6095 212.248 63.6784 212.058 63.7387 211.874L64.0273 211.066C64.0634 210.961 64.1113 210.865 64.1694 210.781Z" fill="#263238"/>
<path d="M63.4502 200.463C63.4263 200.606 63.3961 200.747 63.3597 200.885C63.2865 201.176 63.1874 201.574 63.0669 202.073L62.8515 202.928C62.7826 203.249 62.7051 203.594 62.6233 203.962C62.4596 204.698 62.2701 205.536 62.1022 206.48L61.8179 207.959C61.7318 208.476 61.6457 209.017 61.5552 209.569C61.3571 210.68 61.215 211.886 61.0341 213.133C60.724 215.664 60.4527 218.479 60.2632 221.419C60.0737 224.36 60.0091 227.205 59.9833 229.777C59.9574 232.349 59.9833 234.666 60.078 236.608C60.0996 237.582 60.1469 238.455 60.1814 239.228C60.2158 240 60.2503 240.665 60.2847 241.206C60.3192 241.746 60.3364 242.144 60.3537 242.459C60.3594 242.603 60.3594 242.748 60.3537 242.893C60.326 242.753 60.3087 242.609 60.302 242.465C60.2761 242.15 60.2417 241.74 60.1943 241.217C60.1469 240.695 60.0996 240.029 60.0565 239.239C60.0134 238.449 59.9574 237.594 59.923 236.62C59.8282 234.672 59.7895 232.355 59.7852 229.777C59.7809 227.199 59.8713 224.366 60.0522 221.402C60.2331 218.438 60.5216 215.628 60.8403 213.086C61.0255 211.82 61.1762 210.615 61.3786 209.522C61.4734 208.963 61.5681 208.423 61.6543 207.906L61.9514 206.433C62.128 205.488 62.3304 204.651 62.507 203.914C62.5931 203.546 62.6749 203.207 62.7482 202.887C62.8214 202.566 62.9075 202.293 62.9807 202.037L63.308 200.849C63.3447 200.714 63.3924 200.584 63.4502 200.463Z" fill="#263238"/>
<path d="M56.1245 244.972C56.12 244.922 56.12 244.872 56.1245 244.823C56.1245 244.71 56.1245 244.568 56.0986 244.383C56.0771 243.98 56.0513 243.415 56.0168 242.696C55.9479 241.206 55.8532 239.091 55.7326 236.477C55.4914 231.232 55.1383 224.003 54.4966 216.014C54.1693 212.022 53.7903 208.239 53.3941 204.805C53.1873 203.095 52.9979 201.467 52.7782 199.946C52.5586 198.426 52.3475 197.018 52.1753 195.729C52.003 194.44 51.7834 193.288 51.6154 192.272C51.4474 191.256 51.2967 190.377 51.1847 189.664C51.0728 188.951 50.9651 188.417 50.8919 188.019C50.866 187.847 50.8402 187.704 50.823 187.591C50.8163 187.542 50.8163 187.492 50.823 187.443C50.8407 187.487 50.8538 187.535 50.8617 187.585L50.9479 188.007C51.0297 188.399 51.1374 188.945 51.2795 189.64C51.4216 190.335 51.5896 191.215 51.7661 192.236C51.9427 193.258 52.158 194.404 52.3518 195.693C52.5456 196.982 52.7825 198.384 52.9806 199.905C53.1787 201.425 53.4113 203.053 53.618 204.77C54.0228 208.203 54.4061 211.993 54.7334 215.978C55.3751 223.962 55.7067 231.214 55.9135 236.465C56.0168 239.097 56.09 241.217 56.1331 242.691C56.1331 243.409 56.1676 243.974 56.1762 244.383C56.1762 244.562 56.1762 244.71 56.1762 244.823C56.1644 244.876 56.147 244.926 56.1245 244.972Z" fill="#263238"/>
<path d="M57.6749 191.862C57.55 190.08 56.2278 188.69 54.91 188.672C54.2508 188.712 53.607 188.959 53.0272 189.393C52.4474 189.827 51.9469 190.438 51.5637 191.179C50.8057 192.67 50.2578 194.345 49.9487 196.115C49.0615 200.374 48.5792 204.847 48.9582 209.248C49.3372 213.65 50.6292 217.98 52.9203 221.087C53.2907 221.598 53.7816 222.103 54.2855 221.948C54.5582 221.838 54.8058 221.634 55.0047 221.354C57.2472 218.522 59.0245 215.062 60.2175 211.204C61.4104 207.347 61.9913 203.182 61.9212 198.99C61.8868 197.321 61.7274 195.575 61.0599 194.185C60.3924 192.795 58.8204 191.31 57.6792 191.868" fill="#088395"/>
<path d="M47.8428 177.368L45.9909 182.002C45.9479 182.109 45.8919 182.233 45.8014 182.239C45.711 182.245 45.6292 182.126 45.5775 182.014L40.6765 171.666L41.8049 170.781L47.8428 177.368Z" fill="#088395"/>
<g opacity="0.2">
<path d="M47.8428 177.368L45.9909 182.002C45.9479 182.109 45.8919 182.233 45.8014 182.239C45.711 182.245 45.6292 182.126 45.5775 182.014L40.6765 171.666L41.8049 170.781L47.8428 177.368Z" fill="black"/>
</g>
<path d="M57.7869 185.714L41.0685 172.106C40.9733 172.055 40.8863 171.979 40.8124 171.883C40.7385 171.786 40.6791 171.67 40.6378 171.541C40.5732 171.203 40.7584 170.87 40.9349 170.615C42.0853 168.97 43.4789 167.687 45.0208 166.852C46.5628 166.016 48.2171 165.649 49.8713 165.774C51.5248 165.938 53.1245 166.655 54.5321 167.862C55.9398 169.07 57.113 170.732 57.9506 172.706C59.5613 176.679 59.6173 181.942 57.7654 185.714" fill="#088395"/>
<path d="M43.4973 167.764C43.5688 167.736 43.6429 167.724 43.717 167.728C43.8591 167.728 44.0744 167.68 44.35 167.686C45.1263 167.672 45.9018 167.755 46.667 167.936C47.807 168.205 48.9181 168.67 49.9745 169.32C51.7978 170.451 53.4171 172.125 54.7163 174.221C56.0156 176.317 56.9627 178.783 57.4897 181.443C57.7054 182.476 57.8496 183.534 57.9203 184.603C57.9548 184.978 57.9462 185.275 57.9548 185.477C57.9622 185.577 57.9622 185.679 57.9548 185.78C57.9548 185.78 57.916 185.364 57.8471 184.592C57.7518 183.536 57.5948 182.493 57.3777 181.473C56.6766 178.087 55.3014 175.04 53.4082 172.678C51.515 170.315 49.1796 168.732 46.667 168.108C45.9098 167.91 45.1421 167.796 44.3716 167.769C43.7816 167.775 43.4973 167.787 43.4973 167.764Z" fill="#263238"/>
<path d="M55.5216 176.323C55.2521 176.549 54.9626 176.727 54.6603 176.852C54.1262 177.143 53.3683 177.511 52.55 177.879C51.7317 178.248 50.9565 178.533 50.3967 178.723C50.0996 178.848 49.7934 178.928 49.4836 178.96C49.7591 178.777 50.0478 178.633 50.345 178.533L52.4725 177.612L54.5957 176.668C54.8953 176.511 55.2054 176.395 55.5216 176.323Z" fill="#263238"/>
<path d="M52.8902 166.57C53.0398 167.411 53.1065 168.276 53.0883 169.142C53.1375 170.005 53.1027 170.874 52.9849 171.725C52.9042 170.871 52.8725 170.009 52.8902 169.148C52.841 168.29 52.841 167.428 52.8902 166.57Z" fill="#263238"/>
<path d="M40.9133 171.85C41.3045 171.603 41.7109 171.404 42.1278 171.256C42.8858 170.929 43.9452 170.52 45.1425 170.128C46.3397 169.736 47.3992 169.439 48.1571 169.248C48.582 169.118 49.0143 169.038 49.4491 169.011C49.0403 169.192 48.623 169.335 48.2002 169.439C47.425 169.676 46.357 170.033 45.1855 170.401C44.0141 170.769 42.9504 171.167 42.1709 171.44C41.7587 171.615 41.3386 171.752 40.9133 171.85Z" fill="#263238"/>
<path d="M50.0779 187.573C48.6395 186.071 47.1193 185.791 45.3148 185.869C43.51 186.027 41.7426 186.65 40.1037 187.704C37.2828 189.403 34.6342 191.915 32.9503 195.468C31.2664 199.02 30.6764 203.724 31.9383 207.597C32.0376 208.002 32.2414 208.342 32.511 208.553C32.8243 208.674 33.1582 208.638 33.4542 208.452C36.6627 207.009 39.8884 205.554 42.8384 203.297C45.7885 201.039 48.4716 197.897 50.0521 193.793C50.4569 192.835 50.7176 191.774 50.8187 190.674C50.8618 190.117 50.8184 189.555 50.6915 189.023C50.5645 188.491 50.3568 188.003 50.0823 187.591" fill="#088395"/>
<path d="M50.1038 187.11C50.032 187.167 49.9553 187.211 49.8756 187.241L49.2037 187.562L48.7171 187.781C48.5405 187.87 48.351 187.977 48.1486 188.09C47.7438 188.316 47.2873 188.542 46.7748 188.874L45.991 189.367C45.7153 189.54 45.444 189.753 45.1555 189.961C44.5741 190.353 43.9884 190.858 43.3596 191.369C40.674 193.665 38.2842 196.562 36.288 199.941C35.8574 200.731 35.4052 201.473 35.0477 202.221C34.8625 202.59 34.6773 202.934 34.5137 203.285L34.083 204.295C33.7816 204.93 33.5576 205.548 33.3423 206.077C33.2389 206.338 33.1356 206.581 33.0494 206.813C32.9633 207.045 32.8944 207.253 32.8298 207.449L32.5111 208.328C32.4811 208.434 32.4405 208.534 32.3905 208.625C32.4115 208.514 32.4403 208.407 32.4766 208.304L32.7566 207.401C32.8212 207.205 32.8901 206.991 32.9633 206.754C33.0365 206.516 33.1442 206.273 33.2432 206.005C33.4499 205.465 33.6739 204.817 33.9581 204.194C34.1046 203.867 34.251 203.522 34.3888 203.166C34.5266 202.81 34.7333 202.465 34.9142 202.091C35.2674 201.33 35.7023 200.582 36.1459 199.78C37.1496 198.078 38.2499 196.489 39.4362 195.028C40.6358 193.591 41.9176 192.29 43.2691 191.137C43.9022 190.627 44.4965 190.128 45.0822 189.742C45.3751 189.54 45.6507 189.332 45.9436 189.148L46.7403 188.672C47.2442 188.346 47.7179 188.132 48.1314 187.918C48.3381 187.817 48.5276 187.716 48.7085 187.633L49.1994 187.431L49.8842 187.164C49.9563 187.138 50.0298 187.12 50.1038 187.11Z" fill="#263238"/>
<path d="M38.8719 195.497C37.727 196.099 36.5596 196.616 35.3749 197.048C34.2081 197.571 33.0203 198.001 31.8176 198.337C32.9626 197.735 34.1299 197.218 35.3146 196.786C36.4822 196.266 37.6698 195.836 38.8719 195.497Z" fill="#263238"/>
<path d="M38.7255 206.118C38.6668 205.621 38.6408 205.118 38.648 204.615C38.648 203.689 38.648 202.4 38.648 200.986C38.648 199.572 38.7342 198.283 38.7901 197.356C38.7989 196.852 38.8451 196.351 38.928 195.86C38.9569 196.362 38.9569 196.866 38.928 197.368C38.9021 198.384 38.8763 199.62 38.8461 200.992C38.816 202.364 38.7988 203.599 38.7772 204.615C38.7933 205.117 38.776 205.62 38.7255 206.118Z" fill="#263238"/>
<path d="M45.3406 201.497C45.2846 201.497 45.1081 198.889 44.9487 195.664C44.7894 192.438 44.6989 189.819 44.7549 189.819C44.8109 189.819 44.9832 192.42 45.1468 195.646C45.3105 198.871 45.3966 201.491 45.3406 201.497Z" fill="#263238"/>
<path d="M37.1106 189.563C37.4819 189.499 37.8568 189.483 38.2303 189.516C38.9194 189.516 39.8755 189.551 40.9306 189.599C41.9857 189.646 42.9375 189.706 43.6266 189.759C44.0007 189.766 44.3738 189.816 44.742 189.908C44.3707 189.973 43.9958 189.988 43.6223 189.955C42.9332 189.955 41.9771 189.926 40.922 189.872C39.8669 189.819 38.9151 189.765 38.2217 189.712C37.849 189.706 37.4772 189.656 37.1106 189.563Z" fill="#263238"/>
<path d="M53.6395 222.322C53.6204 222.218 53.6117 222.11 53.6137 222.002C53.6137 221.77 53.6137 221.467 53.5835 221.099C53.5577 220.309 53.5534 219.174 53.5835 217.76C53.6137 216.347 53.6697 214.678 53.7902 212.824C53.9108 210.971 54.1089 208.934 54.3803 206.813C54.6516 204.692 54.9875 202.703 55.3277 200.873C55.668 199.043 56.0383 197.469 56.3742 196.121C56.7102 194.773 56.9944 193.745 57.2356 192.997C57.3389 192.652 57.4208 192.403 57.4897 192.159C57.5161 192.06 57.5492 191.964 57.5887 191.874C57.5793 191.979 57.5575 192.081 57.5241 192.177L57.2786 193.05C57.0805 193.787 56.8092 194.832 56.4948 196.198C56.1804 197.564 55.8359 199.168 55.4957 200.95C55.1555 202.732 54.8368 204.74 54.5611 206.855C54.2855 208.969 54.1003 211.013 53.9625 212.836C53.8247 214.66 53.7472 216.353 53.7127 217.754C53.6783 219.156 53.6567 220.297 53.6567 221.087C53.6567 221.455 53.6567 221.752 53.6567 221.99C53.6567 222.101 53.6509 222.212 53.6395 222.322Z" fill="#263238"/>
<path d="M54.5181 206.587C54.3226 206.956 54.0988 207.295 53.8506 207.597C53.4199 208.191 52.8041 208.987 52.1064 209.836C51.4087 210.686 50.7498 211.417 50.2631 211.933C50.0142 212.232 49.7428 212.493 49.4535 212.711C49.6727 212.37 49.9149 212.057 50.177 211.779L51.9729 209.629L53.7559 207.455C53.9894 207.133 54.2446 206.842 54.5181 206.587Z" fill="#263238"/>
<path d="M59.811 212.462C59.549 212.037 59.3115 211.584 59.1004 211.108L57.4509 207.781L55.7627 204.491C55.5123 204.051 55.2863 203.587 55.0865 203.101C55.378 203.489 55.6419 203.914 55.8747 204.372C56.3398 205.186 56.9599 206.326 57.5973 207.627C58.2347 208.928 58.8118 210.122 59.2037 211.001C59.4388 211.461 59.6421 211.95 59.811 212.462Z" fill="#263238"/>
<path d="M57.0375 193.971C57.0676 194.036 55.3148 195.67 53.1141 197.618C50.9134 199.566 49.1089 201.099 49.0788 201.033C49.0486 200.968 50.8014 199.335 53.0064 197.386C55.2114 195.438 57.0116 193.911 57.0375 193.971Z" fill="#263238"/>
<path d="M62.016 201.366C61.0879 200.3 60.2009 199.168 59.3588 197.974C58.472 196.851 57.6309 195.661 56.8394 194.41C57.7707 195.473 58.6592 196.605 59.5009 197.802C60.3882 198.922 61.228 200.112 62.016 201.366Z" fill="#263238"/>
<path d="M63.2434 201.206L64.7507 201.033C65.8227 200.912 66.8628 200.473 67.7999 199.744C68.2585 199.376 68.7331 199.046 69.2211 198.758C71.0858 197.731 73.1703 197.915 75.1772 197.772C78.4654 197.544 81.6871 196.409 84.6518 194.434C84.8299 194.326 84.98 194.146 85.0825 193.917C85.3926 193.139 84.8155 192.444 84.3202 192.022C81.775 189.86 79.1867 187.674 76.3055 186.599C73.4244 185.524 70.147 185.708 67.6922 188.043C64.8067 190.787 63.7516 196.418 63.2649 201.206" fill="#088395"/>
<path d="M85.0954 193.644C85.0086 193.595 84.9238 193.539 84.8413 193.478L84.1264 192.961C83.5062 192.51 82.6148 191.844 81.4821 191.102C80.1703 190.208 78.8023 189.48 77.3951 188.928C75.6742 188.245 73.8718 188.043 72.0936 188.334C70.3128 188.607 68.631 189.603 67.2615 191.197C66.1918 192.568 65.336 194.225 64.7464 196.068C64.2167 197.63 63.8851 198.96 63.6525 199.863L63.3812 200.915C63.3545 201.039 63.3199 201.161 63.2778 201.277C63.2902 201.148 63.3119 201.02 63.3424 200.897C63.4027 200.629 63.4802 200.273 63.575 199.834C63.8624 198.536 64.2046 197.263 64.6 196.02C65.1803 194.134 66.0399 192.437 67.1237 191.036C68.5124 189.386 70.2293 188.351 72.0505 188.066C73.8529 187.766 75.6806 187.968 77.4252 188.66C78.8404 189.233 80.2143 189.985 81.5295 190.906C82.6535 191.678 83.5364 192.367 84.1479 192.848L84.8456 193.412C84.9356 193.475 85.0195 193.553 85.0954 193.644Z" fill="#263238"/>
<path d="M81.4736 196.347C81.4434 196.406 79.4667 194.648 77.0636 192.414C74.6604 190.181 72.7354 188.316 72.7569 188.256C72.7784 188.197 74.7595 189.955 77.1626 192.189C79.5657 194.422 81.5037 196.281 81.4736 196.347Z" fill="#263238"/>
<path d="M79.5786 187.989C78.5729 188.425 77.5115 188.561 76.4648 188.387C76.9767 188.24 77.497 188.157 78.0196 188.138C78.5351 188.026 79.0568 187.977 79.5786 187.989Z" fill="#263238"/>
<path d="M70.7285 185.803C70.3518 187.033 69.8579 188.187 69.2599 189.237C69.414 188.604 69.6315 188.004 69.9059 187.455C70.1219 186.853 70.3989 186.297 70.7285 185.803Z" fill="#263238"/>
<path d="M72.4941 197.951C72.1611 197.759 71.8436 197.52 71.5466 197.238C70.9739 196.763 70.203 196.05 69.3933 195.236C68.5837 194.422 67.8472 193.632 67.3218 193.062C67.0277 192.775 66.7537 192.451 66.5035 192.094C66.8235 192.324 67.1265 192.596 67.4079 192.908L69.5139 195.016C70.3322 195.836 71.0858 196.555 71.6371 197.077C71.9407 197.333 72.2274 197.626 72.4941 197.951Z" fill="#263238"/>
<path d="M65.4614 210.05C64.0229 209.522 62.3046 211.452 62.016 213.466C61.7275 215.48 62.2701 217.535 62.9075 219.406C64.2791 223.56 66.3137 227.234 68.8593 230.151C71.4269 233.055 74.6306 234.678 77.9507 234.755C77.3435 230.858 78.11 226.783 77.7741 222.821C77.474 219.332 76.3246 216.086 74.5136 213.614C72.7026 211.142 70.3373 209.59 67.8042 209.213C66.8869 209.076 65.8231 208.88 65.4571 210.05" fill="#088395"/>
<path d="M77.9507 234.755C77.8785 234.722 77.8092 234.678 77.7439 234.624C77.5553 234.477 77.3754 234.311 77.2056 234.125C76.6024 233.401 76.118 232.508 75.7844 231.506C75.5562 230.912 75.2977 230.223 75.048 229.48C74.7982 228.738 74.5484 227.953 74.2728 227.104C73.9965 226.234 73.6785 225.391 73.321 224.58C72.9375 223.715 72.5055 222.892 72.029 222.12C71.0471 220.528 69.9876 219.15 69.0703 217.826C68.2409 216.673 67.4859 215.423 66.8136 214.09C66.3633 213.186 65.9931 212.21 65.7111 211.185C65.6207 210.822 65.5518 210.531 65.5173 210.335C65.4935 210.237 65.479 210.136 65.4742 210.032C65.4742 210.032 65.5733 210.436 65.7843 211.149C66.0914 212.148 66.4755 213.097 66.9299 213.983C67.615 215.287 68.3755 216.512 69.2038 217.648C70.1254 218.954 71.1892 220.332 72.184 221.942C72.6716 222.725 73.1137 223.559 73.5062 224.437C73.8623 225.262 74.1802 226.117 74.458 226.997L75.2159 229.373C75.4571 230.11 75.7069 230.787 75.9308 231.399C76.2452 232.392 76.7023 233.287 77.2745 234.03C77.6879 234.541 77.9722 234.731 77.9507 234.755Z" fill="#263238"/>
<path d="M70.5131 231.518C70.5217 231.067 70.5665 230.618 70.6466 230.181C70.7585 229.361 70.9437 228.239 71.1935 227.015C71.4433 225.791 71.7103 224.704 71.9256 223.926C72.0199 223.494 72.1515 223.079 72.3176 222.691C72.2594 223.132 72.1729 223.565 72.0592 223.986C71.8783 224.782 71.6285 225.875 71.3873 227.092C71.1461 228.31 70.9567 229.415 70.7844 230.223C70.725 230.665 70.6342 231.099 70.5131 231.518Z" fill="#263238"/>
<path d="M77.688 221.948C77.3432 221.878 77.0032 221.769 76.6716 221.622C76.0514 221.402 75.1944 221.093 74.2426 220.796C73.2909 220.499 72.4209 220.273 71.7921 220.107C71.4473 220.046 71.1072 219.942 70.7758 219.798C71.1238 219.786 71.4718 219.826 71.8137 219.917C72.4511 220.03 73.3296 220.232 74.2857 220.511C75.2418 220.79 76.0988 221.146 76.7103 221.42C77.0486 221.549 77.3762 221.726 77.688 221.948Z" fill="#263238"/>
<path d="M65.1729 224.728C65.1891 224.206 65.241 223.687 65.3279 223.178C65.4571 222.233 65.6552 220.926 65.9265 219.507C66.1978 218.087 66.4821 216.81 66.706 215.895C66.8166 215.393 66.9607 214.906 67.1367 214.44C67.0741 214.954 66.982 215.461 66.8611 215.955C66.6716 216.881 66.4046 218.158 66.1375 219.572C65.8705 220.986 65.6466 222.287 65.4872 223.219C65.4138 223.734 65.3086 224.238 65.1729 224.728Z" fill="#263238"/>
<path d="M74.3848 213.608C74.3848 213.68 72.5803 213.484 70.371 213.157C68.1616 212.83 66.3701 212.51 66.3787 212.438C67.7213 212.491 69.061 212.64 70.3925 212.884C71.7313 213.031 73.0638 213.273 74.3848 213.608Z" fill="#263238"/>
<path d="M73.0669 243.665C73.0669 243.742 66.749 243.801 58.9582 243.801C51.1675 243.801 44.8496 243.742 44.8496 243.665C44.8496 243.588 51.1675 243.528 58.9582 243.528C66.749 243.528 73.0669 243.588 73.0669 243.665Z" fill="#455A64"/>
<path d="M68.6741 254.874C68.6741 254.951 64.4148 255.016 59.165 255.016C53.9151 255.016 49.6602 254.951 49.6602 254.874C49.6602 254.796 53.9151 254.737 59.165 254.737C64.4148 254.737 68.6741 254.826 68.6741 254.874Z" fill="#455A64"/>
<path d="M68.8377 256.477C68.8377 256.555 64.5828 256.614 59.3329 256.614C54.0831 256.614 49.8281 256.555 49.8281 256.477C49.8281 256.4 54.0831 256.341 59.3329 256.341C64.5828 256.341 68.8377 256.4 68.8377 256.477Z" fill="#455A64"/>
<path d="M68.8378 253.555C68.8378 253.632 64.4364 253.691 59.0057 253.691C53.575 253.691 49.1736 253.632 49.1736 253.555C49.1736 253.478 53.575 253.418 59.0057 253.418C64.4364 253.418 68.8378 253.478 68.8378 253.555Z" fill="#455A64"/>
</svg>
