<svg width="387" height="329" viewBox="0 0 387 329" fill="none" xmlns="http://www.w3.org/2000/svg">
<path d="M348.548 252.56C357.023 245.546 363.764 236.637 368.014 225.345C374.624 207.783 377.255 189.208 377.255 170.81C377.255 113.084 312.626 56.4893 246.171 49.6001C216.581 46.5338 187.858 56.1801 165.675 72.505C142.888 89.2577 128.941 112.136 102.129 125.099C86.6493 132.594 69.3427 137.009 53.5531 144.03C22.9491 157.63 5.418 185.043 12.384 214.449C19.7293 245.454 47.3533 276.531 82.9341 287.487C115.38 297.456 149.854 290.987 182.602 285.888C213.098 281.144 243.895 277.88 274.785 275.702C301.473 273.787 328.478 269.155 348.548 252.56Z" fill="#088395"/>
<path opacity="0.7" d="M348.548 252.56C357.023 245.546 363.764 236.637 368.014 225.345C374.624 207.783 377.255 189.208 377.255 170.81C377.255 113.084 312.626 56.4893 246.171 49.6001C216.581 46.5338 187.858 56.1801 165.675 72.505C142.888 89.2577 128.941 112.136 102.129 125.099C86.6493 132.594 69.3427 137.009 53.5531 144.03C22.9491 157.63 5.418 185.043 12.384 214.449C19.7293 245.454 47.3533 276.531 82.9341 287.487C115.38 297.456 149.854 290.987 182.602 285.888C213.098 281.144 243.895 277.88 274.785 275.702C301.473 273.787 328.478 269.155 348.548 252.56Z" fill="white"/>
<path d="M374.415 273.919C372.805 274.129 369.306 273.261 369.299 273.261C369.291 273.261 370.669 271.465 370.769 271.366C371.977 270.162 375.127 268.438 377.046 269.115C377.361 269.235 377.643 269.41 377.873 269.629C378.104 269.847 378.277 270.104 378.383 270.383C378.489 270.663 378.525 270.958 378.488 271.249C378.451 271.541 378.342 271.823 378.169 272.076C377.472 273.188 375.785 273.728 374.415 273.919Z" fill="#088395"/>
<path d="M342.178 268.813C342.178 268.813 342.178 266.681 342.178 266.543C342.402 264.977 343.911 262.062 345.955 261.726C346.298 261.678 346.649 261.693 346.985 261.769C347.321 261.845 347.635 261.981 347.904 262.168C348.174 262.354 348.395 262.587 348.551 262.851C348.707 263.115 348.796 263.405 348.811 263.7C348.942 264.937 347.897 266.194 346.868 266.99C345.661 267.885 342.178 268.813 342.178 268.813Z" fill="#088395"/>
<path d="M334.894 261.884C335.893 262.542 338.408 263.042 339.027 263.161C339.291 263.562 339.554 263.996 339.84 264.477C340.335 265.332 340.885 266.306 341.388 267.398C341.527 267.688 341.659 268.003 341.798 268.306C341.442 267.832 340.939 267.188 340.885 267.128C339.848 266.062 337.1 264.496 335.405 265.095C335.127 265.197 334.877 265.348 334.671 265.538C334.466 265.728 334.309 265.952 334.212 266.197C334.115 266.441 334.08 266.7 334.108 266.957C334.136 267.214 334.227 267.463 334.376 267.688C334.979 268.661 336.45 269.162 337.65 269.333C338.849 269.504 341.473 268.964 342.031 268.839C342.325 269.497 342.603 270.221 342.805 270.971C343.262 272.326 343.575 273.714 343.741 275.116H343.64C343.377 274.649 342.789 273.669 342.735 273.59C341.837 272.432 339.306 270.642 337.541 271.057C337.252 271.133 336.986 271.261 336.758 271.431C336.531 271.601 336.347 271.809 336.221 272.043C336.094 272.277 336.026 272.53 336.021 272.788C336.017 273.045 336.076 273.3 336.195 273.537C336.659 274.557 338.06 275.195 339.229 275.478C340.583 275.801 343.64 275.399 343.757 275.386C343.878 276.781 343.891 278.181 343.795 279.578C343.733 280.611 343.625 281.657 343.501 282.71C343.323 282.374 342.557 281.091 342.487 280.999C341.597 279.841 339.066 278.051 337.301 278.466C337.012 278.542 336.744 278.669 336.516 278.838C336.288 279.008 336.104 279.217 335.977 279.451C335.85 279.685 335.782 279.939 335.779 280.196C335.775 280.454 335.835 280.71 335.955 280.946C336.419 281.966 337.82 282.604 338.989 282.887C340.312 283.203 343.238 282.828 343.486 282.795C343.431 283.269 343.377 283.749 343.315 284.223C343.114 285.783 342.905 287.342 342.758 288.888C342.704 289.421 342.673 289.954 342.642 290.481C342.363 289.987 341.829 289.092 341.775 289.027C340.877 287.862 338.346 286.072 336.582 286.487C336.293 286.563 336.026 286.691 335.798 286.861C335.571 287.031 335.388 287.239 335.261 287.473C335.134 287.707 335.066 287.96 335.062 288.218C335.057 288.475 335.116 288.731 335.235 288.967C335.699 289.994 337.1 290.625 338.269 290.908C339.438 291.191 341.922 290.908 342.619 290.836C342.572 291.718 342.549 292.593 342.58 293.468C342.58 293.843 342.58 294.225 342.642 294.58C342.704 294.935 342.712 295.297 342.743 295.646C342.851 296.376 342.944 297.054 343.06 297.725C343.114 298.067 343.176 298.383 343.238 298.719C343.037 298.179 342.712 297.33 342.673 297.258C341.992 296.001 339.809 293.902 338.029 294.087C337.729 294.124 337.441 294.214 337.185 294.352C336.928 294.49 336.709 294.672 336.541 294.887C336.373 295.102 336.26 295.344 336.21 295.599C336.159 295.853 336.173 296.114 336.249 296.363C336.527 297.436 337.797 298.245 338.904 298.673C340.01 299.101 342.99 299.16 343.346 299.16C343.493 299.969 343.648 300.759 343.811 301.489C343.973 302.219 344.167 303.075 344.345 303.785H345.514C345.305 303.029 345.088 302.206 344.871 301.318C344.709 300.66 344.554 299.949 344.399 299.226C345.811 298.948 347.171 298.505 348.439 297.91C349.14 298.416 349.877 298.887 350.645 299.318C350.243 300.068 349.871 300.792 349.515 301.482C349.105 302.305 348.741 303.068 348.408 303.785H349.631C349.902 303.167 350.196 302.522 350.521 301.811C350.846 301.101 351.133 300.528 351.473 299.837C351.814 299.936 354.515 300.726 355.854 300.627C357.062 300.535 358.579 300.127 359.26 299.193C359.427 298.98 359.54 298.74 359.592 298.489C359.644 298.237 359.633 297.979 359.56 297.731C359.487 297.483 359.354 297.25 359.169 297.049C358.984 296.847 358.751 296.681 358.486 296.561C356.845 295.903 353.966 297.219 352.836 298.239C352.766 298.298 352.007 299.133 351.636 299.555C351.837 299.147 352.046 298.745 352.271 298.324C352.588 297.712 352.944 297.08 353.284 296.462L353.865 295.508C354.058 295.185 354.283 294.889 354.492 294.573C354.809 294.119 355.165 293.665 355.521 293.205C356.226 293.521 358.331 294.402 359.507 294.462C360.684 294.521 362.294 294.317 363.13 293.488C363.336 293.298 363.492 293.074 363.589 292.83C363.685 292.586 363.72 292.327 363.691 292.07C363.662 291.813 363.569 291.565 363.419 291.341C363.269 291.117 363.065 290.922 362.82 290.77C361.319 289.882 358.238 290.856 356.938 291.698L356.35 292.165C356.713 291.731 357.069 291.29 357.449 290.849C358.54 289.619 359.693 288.401 360.839 287.171L361.551 286.401C362.147 286.664 364.415 287.638 365.645 287.717C366.876 287.796 368.432 287.572 369.268 286.743C369.474 286.553 369.63 286.329 369.727 286.084C369.824 285.839 369.859 285.579 369.829 285.322C369.8 285.065 369.707 284.816 369.557 284.592C369.407 284.367 369.203 284.172 368.958 284.019C367.464 283.137 364.376 284.111 363.076 284.954C363.029 284.954 362.735 285.223 362.394 285.493C363.014 284.835 363.61 284.144 364.182 283.453C365.17 282.275 366.065 281.041 366.86 279.762C367.069 279.854 369.701 281.045 371.071 281.117C372.286 281.177 373.857 280.973 374.693 280.137C374.899 279.948 375.056 279.723 375.152 279.479C375.249 279.235 375.284 278.976 375.255 278.719C375.225 278.463 375.133 278.214 374.983 277.99C374.833 277.766 374.628 277.572 374.384 277.419C372.89 276.531 369.802 277.512 368.501 278.347C368.416 278.406 367.333 279.288 366.953 279.617C366.949 279.602 366.949 279.586 366.953 279.571C367.693 278.302 368.302 276.981 368.772 275.623C369.197 274.406 369.538 273.169 369.794 271.919C370.049 270.76 370.189 269.681 370.312 268.734C370.374 268.221 370.421 267.747 370.452 267.306C370.452 267.306 371.504 265.661 371.559 265.549C372.155 264.233 372.402 261.469 370.986 260.489C370.746 260.332 370.469 260.22 370.174 260.16C369.88 260.1 369.574 260.094 369.276 260.141C368.978 260.188 368.695 260.288 368.446 260.434C368.196 260.58 367.986 260.769 367.828 260.989C367.116 261.904 367.317 263.239 367.727 264.22C368.138 265.2 369.902 266.852 370.343 267.22C370.297 267.674 370.243 268.161 370.165 268.701C370.018 269.648 369.848 270.714 369.569 271.866C369.492 272.169 369.399 272.524 369.314 272.82C369.314 272.254 369.314 271.504 369.314 271.412C369.136 270.03 367.843 267.464 366.055 267.141C365.757 267.095 365.45 267.104 365.155 267.166C364.861 267.228 364.585 267.342 364.346 267.501C364.106 267.66 363.91 267.86 363.768 268.089C363.627 268.317 363.544 268.568 363.525 268.826C363.393 269.912 364.299 271.024 365.181 271.728C366.063 272.432 368.61 273.215 369.159 273.373C368.958 274.077 368.734 274.794 368.447 275.531C367.952 276.875 367.314 278.179 366.543 279.426H366.442C366.528 278.906 366.675 277.814 366.675 277.722C366.675 276.34 365.73 273.662 363.997 273.182C363.706 273.108 363.399 273.088 363.098 273.122C362.797 273.156 362.508 273.243 362.25 273.379C361.991 273.514 361.769 273.694 361.598 273.907C361.427 274.121 361.311 274.362 361.257 274.616C360.986 275.682 361.744 276.873 362.534 277.656C363.447 278.564 366.264 279.63 366.365 279.696C365.565 280.92 364.668 282.096 363.679 283.216C363.006 284.059 362.232 284.914 361.458 285.697C361.528 285.335 361.721 283.901 361.721 283.795C361.721 282.414 360.777 279.736 359.043 279.255C358.752 279.182 358.446 279.161 358.145 279.195C357.844 279.229 357.555 279.317 357.296 279.452C357.037 279.587 356.815 279.767 356.644 279.981C356.473 280.194 356.357 280.436 356.303 280.69C356.04 281.756 356.814 282.94 357.588 283.73C358.478 284.611 361.172 285.671 361.396 285.763L360.343 286.888C359.167 288.092 357.975 289.296 356.845 290.514C356.458 290.935 356.071 291.362 355.723 291.79C355.808 291.244 355.939 290.25 355.939 290.165C355.939 288.776 354.995 286.098 353.261 285.618C352.97 285.546 352.664 285.526 352.364 285.56C352.063 285.595 351.774 285.682 351.516 285.818C351.258 285.953 351.036 286.133 350.865 286.345C350.693 286.558 350.576 286.799 350.521 287.053C350.25 288.125 351.001 289.309 351.798 290.099C352.596 290.889 354.832 291.816 355.467 292.073C354.863 292.79 354.275 293.507 353.741 294.244C353.517 294.56 353.261 294.902 353.068 295.199L352.464 296.14C352.077 296.798 351.69 297.396 351.373 298.015L350.877 298.929C351.063 298.39 351.342 297.528 351.357 297.442C351.605 296.074 351.141 293.304 349.515 292.606C349.24 292.497 348.941 292.438 348.638 292.433C348.335 292.429 348.034 292.478 347.754 292.579C347.475 292.679 347.223 292.828 347.016 293.017C346.809 293.205 346.65 293.428 346.551 293.672C346.493 293.8 346.452 293.932 346.427 294.067C345.467 294.972 344.8 296.074 344.492 297.265C344.492 297.35 344.383 298.403 344.353 298.943C344.26 298.502 344.167 298.067 344.082 297.627C343.95 296.969 343.834 296.271 343.718 295.6C343.679 295.245 343.633 294.889 343.586 294.534C343.54 294.179 343.532 293.823 343.501 293.461C343.501 292.928 343.501 292.382 343.501 291.836C344.275 291.764 346.597 291.514 347.642 291.014C348.687 290.514 349.871 289.586 350.034 288.5C350.081 288.245 350.064 287.985 349.985 287.736C349.906 287.487 349.767 287.254 349.576 287.054C349.385 286.854 349.146 286.69 348.876 286.573C348.605 286.456 348.309 286.388 348.006 286.375C346.179 286.342 344.244 288.599 343.702 289.908C343.702 289.954 343.609 290.237 343.517 290.566C343.517 290.033 343.517 289.5 343.594 288.961C343.702 287.428 343.873 285.868 344.027 284.302C344.066 283.98 344.089 283.644 344.12 283.328C344.794 283.269 347.317 283.019 348.385 282.493C349.453 281.966 350.614 281.071 350.777 279.979C350.824 279.725 350.807 279.464 350.728 279.216C350.649 278.967 350.51 278.735 350.319 278.535C350.127 278.335 349.889 278.172 349.618 278.056C349.348 277.939 349.052 277.873 348.749 277.86C346.922 277.821 344.987 280.084 344.445 281.394C344.445 281.44 344.337 281.782 344.236 282.164C344.306 281.315 344.368 280.466 344.399 279.624C344.458 278.177 344.404 276.728 344.236 275.287C344.469 275.287 347.433 275.024 348.625 274.445C349.678 273.925 350.854 273.017 351.017 271.932C351.064 271.677 351.047 271.417 350.969 271.169C350.891 270.92 350.752 270.688 350.561 270.488C350.371 270.288 350.133 270.124 349.864 270.006C349.594 269.889 349.299 269.821 348.997 269.806C347.17 269.767 345.227 272.03 344.693 273.34C344.654 273.432 344.322 274.656 344.221 275.123V275.044C344.01 273.633 343.658 272.239 343.168 270.879C342.732 269.666 342.215 268.476 341.62 267.313C341.079 266.227 340.506 265.26 339.987 264.411C339.701 263.95 339.43 263.536 339.213 263.154C339.213 263.154 339.027 261.285 338.996 261.18C338.656 259.824 337.054 257.383 335.235 257.232C334.932 257.213 334.627 257.249 334.341 257.337C334.055 257.425 333.794 257.563 333.575 257.743C333.356 257.922 333.184 258.139 333.07 258.378C332.956 258.618 332.902 258.875 332.913 259.134C332.89 260.226 333.919 261.226 334.894 261.884Z" fill="#088395"/>
<path d="M182.796 273.919C181.186 274.129 177.679 273.261 177.679 273.261C177.679 273.261 179.049 271.465 179.15 271.366C180.357 270.162 183.508 268.438 185.427 269.115C185.741 269.236 186.022 269.411 186.252 269.63C186.481 269.849 186.654 270.106 186.759 270.385C186.865 270.664 186.899 270.959 186.862 271.25C186.824 271.542 186.715 271.823 186.542 272.076C185.853 273.188 184.166 273.728 182.796 273.919Z" fill="#088395"/>
<path d="M150.558 268.813C150.52 268.813 150.558 266.681 150.558 266.543C150.783 264.977 152.292 262.062 154.336 261.726C154.679 261.678 155.03 261.693 155.366 261.769C155.702 261.845 156.015 261.981 156.285 262.168C156.555 262.354 156.775 262.587 156.932 262.851C157.088 263.115 157.177 263.405 157.192 263.7C157.323 264.937 156.278 266.194 155.249 266.99C154.026 267.885 150.558 268.813 150.558 268.813Z" fill="#088395"/>
<path d="M143.275 261.884C144.274 262.542 146.781 263.042 147.408 263.161C147.664 263.562 147.935 263.996 148.221 264.477C148.716 265.332 149.266 266.306 149.769 267.398C149.901 267.688 150.04 268.003 150.171 268.306C149.815 267.832 149.32 267.188 149.266 267.128C148.221 266.062 145.481 264.496 143.778 265.095C143.5 265.198 143.251 265.35 143.046 265.54C142.842 265.73 142.686 265.954 142.59 266.198C142.494 266.443 142.459 266.701 142.487 266.958C142.516 267.215 142.608 267.463 142.757 267.688C143.353 268.661 144.831 269.162 146.031 269.333C147.23 269.504 149.854 268.964 150.411 268.839C150.698 269.497 150.976 270.221 151.185 270.971C151.645 272.326 151.961 273.713 152.13 275.116H152.029C151.758 274.649 151.178 273.669 151.116 273.59C150.226 272.432 147.695 270.642 145.93 271.057C145.64 271.132 145.371 271.258 145.142 271.428C144.913 271.597 144.729 271.806 144.602 272.04C144.475 272.274 144.408 272.529 144.404 272.787C144.401 273.045 144.462 273.301 144.583 273.537C145.048 274.557 146.449 275.195 147.617 275.478C148.972 275.801 152.029 275.399 152.145 275.386C152.254 276.782 152.254 278.182 152.145 279.578C152.083 280.611 151.975 281.657 151.843 282.71C151.673 282.374 150.907 281.091 150.837 280.999C149.947 279.841 147.408 278.051 145.651 278.466C145.362 278.542 145.094 278.669 144.866 278.838C144.637 279.008 144.453 279.216 144.326 279.45C144.198 279.684 144.129 279.938 144.125 280.196C144.12 280.453 144.178 280.709 144.297 280.946C144.769 281.966 146.17 282.604 147.339 282.887C148.654 283.203 151.588 282.828 151.836 282.795C151.781 283.269 151.727 283.749 151.665 284.223C151.464 285.783 151.255 287.342 151.1 288.888C151.054 289.421 151.023 289.954 150.992 290.481C150.706 289.987 150.179 289.092 150.117 289.027C149.227 287.862 146.696 286.072 144.931 286.487C144.641 286.562 144.373 286.688 144.144 286.858C143.915 287.027 143.731 287.236 143.604 287.47C143.477 287.705 143.409 287.959 143.406 288.217C143.403 288.475 143.463 288.731 143.585 288.967C144.049 289.994 145.45 290.625 146.619 290.908C147.788 291.191 150.272 290.908 150.969 290.836C150.922 291.718 150.899 292.593 150.93 293.468C150.93 293.843 150.93 294.225 150.992 294.58C151.054 294.935 151.062 295.297 151.093 295.646C151.201 296.376 151.294 297.054 151.41 297.725C151.464 298.067 151.526 298.383 151.58 298.719C151.387 298.179 151.062 297.33 151.015 297.258C150.342 296.001 148.159 293.902 146.371 294.087C146.072 294.124 145.785 294.215 145.529 294.354C145.274 294.492 145.055 294.674 144.888 294.889C144.721 295.104 144.609 295.346 144.559 295.6C144.509 295.854 144.523 296.114 144.599 296.363C144.877 297.436 146.147 298.245 147.253 298.673C148.36 299.101 151.34 299.16 151.696 299.16C151.843 299.969 151.998 300.759 152.161 301.489C152.323 302.219 152.517 303.075 152.695 303.785H153.863C153.654 303.029 153.438 302.206 153.221 301.318C153.058 300.66 152.896 299.949 152.741 299.226C154.156 298.95 155.519 298.507 156.789 297.91C157.488 298.416 158.222 298.886 158.987 299.318C158.593 300.068 158.213 300.792 157.865 301.482C157.455 302.305 157.091 303.068 156.758 303.785H157.981C158.252 303.167 158.538 302.522 158.863 301.811C159.189 301.101 159.483 300.528 159.823 299.837C160.164 299.936 162.865 300.726 164.204 300.627C165.412 300.535 166.929 300.127 167.61 299.193C167.776 298.98 167.888 298.74 167.939 298.489C167.99 298.237 167.979 297.979 167.906 297.731C167.833 297.484 167.7 297.252 167.516 297.05C167.332 296.848 167.1 296.682 166.836 296.561C165.195 295.903 162.316 297.219 161.185 298.239C161.116 298.298 160.357 299.133 159.978 299.555C160.187 299.147 160.396 298.745 160.62 298.324C160.93 297.712 161.294 297.08 161.634 296.462L162.215 295.508C162.401 295.185 162.633 294.889 162.842 294.573C163.159 294.119 163.515 293.665 163.871 293.205C164.576 293.521 166.681 294.402 167.857 294.462C169.034 294.521 170.636 294.317 171.48 293.488C171.684 293.298 171.84 293.074 171.936 292.829C172.032 292.585 172.066 292.327 172.037 292.07C172.008 291.814 171.916 291.566 171.766 291.342C171.617 291.118 171.414 290.923 171.17 290.77C169.669 289.882 166.588 290.856 165.288 291.698L164.699 292.165C165.055 291.731 165.419 291.29 165.799 290.849C166.89 289.619 168.035 288.401 169.189 287.171L169.901 286.401C170.497 286.664 172.757 287.638 173.995 287.717C175.234 287.796 176.782 287.572 177.617 286.743C177.823 286.553 177.98 286.329 178.077 286.084C178.174 285.839 178.208 285.579 178.179 285.322C178.15 285.065 178.057 284.816 177.907 284.592C177.757 284.367 177.553 284.172 177.308 284.019C175.806 283.137 172.726 284.111 171.425 284.954C171.379 284.954 171.077 285.223 170.744 285.493C171.356 284.835 171.96 284.144 172.532 283.453C173.52 282.275 174.415 281.041 175.21 279.762C175.419 279.854 178.051 281.045 179.421 281.117C180.636 281.177 182.207 280.973 183.043 280.137C183.249 279.948 183.405 279.723 183.502 279.479C183.599 279.235 183.634 278.976 183.605 278.719C183.575 278.463 183.483 278.214 183.333 277.99C183.182 277.766 182.978 277.572 182.734 277.419C181.24 276.531 178.152 277.512 176.851 278.347C176.758 278.406 175.682 279.288 175.303 279.617V279.571C176.049 278.304 176.66 276.983 177.13 275.623C177.555 274.406 177.896 273.169 178.152 271.919C178.399 270.76 178.546 269.681 178.67 268.734C178.732 268.221 178.771 267.747 178.809 267.306C178.809 267.306 179.87 265.661 179.924 265.549C180.512 264.233 180.768 261.469 179.351 260.489C179.11 260.332 178.833 260.22 178.538 260.16C178.243 260.1 177.936 260.093 177.638 260.14C177.339 260.187 177.056 260.287 176.806 260.434C176.555 260.58 176.344 260.769 176.186 260.989C175.481 261.904 175.682 263.239 176.085 264.22C176.487 265.2 178.268 266.852 178.709 267.22C178.662 267.674 178.608 268.161 178.531 268.701C178.384 269.648 178.213 270.714 177.927 271.866C177.857 272.169 177.765 272.524 177.679 272.82C177.679 272.254 177.679 271.504 177.679 271.412C177.509 270.03 176.217 267.464 174.429 267.141C174.13 267.095 173.823 267.104 173.528 267.166C173.234 267.228 172.958 267.342 172.719 267.501C172.48 267.66 172.283 267.86 172.141 268.089C172 268.317 171.917 268.568 171.898 268.826C171.758 269.912 172.672 271.024 173.554 271.728C174.436 272.432 176.983 273.215 177.532 273.373C177.331 274.077 177.107 274.794 176.82 275.531C176.321 276.874 175.684 278.178 174.916 279.426H174.816C174.901 278.906 175.048 277.814 175.048 277.722C175.048 276.34 174.104 273.662 172.37 273.182C172.079 273.108 171.773 273.088 171.472 273.122C171.171 273.156 170.881 273.243 170.623 273.379C170.364 273.514 170.142 273.694 169.971 273.907C169.8 274.121 169.684 274.362 169.63 274.616C169.359 275.682 170.11 276.873 170.907 277.656C171.82 278.564 174.638 279.63 174.777 279.696C173.974 280.919 173.077 282.095 172.091 283.216C171.371 284.052 170.597 284.875 169.769 285.69C169.847 285.329 170.04 283.894 170.04 283.789C170.04 282.407 169.096 279.729 167.354 279.249C167.064 279.175 166.758 279.155 166.457 279.189C166.157 279.223 165.868 279.31 165.61 279.446C165.352 279.581 165.131 279.761 164.961 279.975C164.79 280.188 164.675 280.429 164.622 280.683C164.351 281.749 165.102 282.94 165.899 283.723C166.789 284.605 169.483 285.664 169.707 285.756L168.732 286.888C167.548 288.092 166.364 289.296 165.233 290.514C164.846 290.935 164.459 291.362 164.103 291.79C164.196 291.244 164.328 290.25 164.328 290.165C164.328 288.776 163.384 286.098 161.65 285.618C161.359 285.546 161.053 285.526 160.752 285.56C160.452 285.595 160.163 285.682 159.905 285.818C159.647 285.953 159.425 286.133 159.253 286.345C159.082 286.558 158.965 286.799 158.91 287.053C158.639 288.125 159.39 289.309 160.187 290.099C160.984 290.889 163.221 291.816 163.856 292.073C163.244 292.79 162.664 293.507 162.122 294.244C161.905 294.56 161.65 294.902 161.456 295.199C161.263 295.495 161.046 295.824 160.853 296.14C160.466 296.798 160.079 297.396 159.761 298.015L159.266 298.929C159.452 298.39 159.723 297.528 159.738 297.442C159.994 296.074 159.529 293.304 157.904 292.606C157.629 292.497 157.33 292.438 157.027 292.433C156.723 292.429 156.422 292.478 156.143 292.579C155.863 292.679 155.612 292.828 155.404 293.017C155.197 293.205 155.039 293.428 154.939 293.672C154.882 293.8 154.84 293.932 154.815 294.067C153.856 294.974 153.187 296.075 152.873 297.265C152.873 297.35 152.772 298.403 152.733 298.943C152.648 298.502 152.555 298.067 152.462 297.627C152.331 296.969 152.223 296.271 152.106 295.6C152.06 295.245 152.021 294.889 151.975 294.534C151.928 294.179 151.921 293.823 151.89 293.461C151.89 292.928 151.89 292.382 151.89 291.836C152.664 291.764 154.986 291.514 156.031 291.014C157.076 290.514 158.26 289.586 158.422 288.5C158.469 288.245 158.453 287.985 158.374 287.736C158.295 287.487 158.156 287.254 157.964 287.054C157.773 286.854 157.535 286.69 157.264 286.573C156.994 286.456 156.697 286.388 156.394 286.375C154.568 286.342 152.633 288.599 152.091 289.908C152.091 289.954 151.998 290.237 151.905 290.566C151.905 290.033 151.905 289.5 151.975 288.961C152.091 287.428 152.254 285.868 152.416 284.302L152.509 283.328C153.182 283.269 155.698 283.019 156.774 282.493C157.85 281.966 159.003 281.071 159.158 279.979C159.206 279.725 159.191 279.465 159.113 279.216C159.035 278.967 158.896 278.735 158.705 278.536C158.514 278.336 158.276 278.172 158.006 278.056C157.736 277.939 157.44 277.873 157.137 277.86C155.311 277.821 153.368 280.084 152.834 281.394C152.834 281.44 152.726 281.782 152.625 282.164C152.695 281.315 152.757 280.466 152.788 279.624C152.843 278.177 152.789 276.728 152.625 275.287C152.857 275.287 155.822 275.024 157.014 274.445C158.066 273.925 159.243 273.017 159.405 271.932C159.452 271.677 159.436 271.416 159.357 271.167C159.278 270.918 159.139 270.686 158.947 270.486C158.756 270.285 158.518 270.121 158.247 270.004C157.977 269.887 157.68 269.82 157.377 269.806C155.551 269.767 153.616 272.03 153.074 273.34C153.074 273.432 152.71 274.656 152.61 275.123V275.044C152.4 273.632 152.045 272.238 151.549 270.879C151.116 269.665 150.599 268.474 150.001 267.313C149.459 266.227 148.879 265.26 148.368 264.411C148.082 263.95 147.811 263.536 147.594 263.154C147.594 263.154 147.408 261.285 147.377 261.18C147.037 259.824 145.435 257.383 143.616 257.232C143.312 257.213 143.008 257.249 142.722 257.337C142.436 257.425 142.175 257.563 141.956 257.743C141.737 257.922 141.565 258.139 141.451 258.378C141.337 258.618 141.283 258.875 141.294 259.134C141.263 260.226 142.3 261.226 143.275 261.884Z" fill="#088395"/>
<path d="M305.258 273.919C303.656 274.129 300.149 273.261 300.149 273.261C300.149 273.261 301.512 271.465 301.62 271.366C302.82 270.162 305.97 268.438 307.889 269.115C308.204 269.235 308.486 269.41 308.716 269.629C308.947 269.847 309.12 270.104 309.226 270.383C309.332 270.663 309.368 270.958 309.331 271.249C309.294 271.541 309.185 271.823 309.012 272.076C308.315 273.188 306.628 273.728 305.258 273.919Z" fill="#088395"/>
<path d="M273.021 268.813C272.982 268.813 273.021 266.681 273.021 266.543C273.237 264.977 274.754 262.062 276.79 261.726C277.133 261.678 277.485 261.693 277.821 261.769C278.157 261.845 278.47 261.981 278.74 262.168C279.01 262.354 279.23 262.587 279.386 262.851C279.542 263.115 279.631 263.405 279.646 263.7C279.778 264.937 278.733 266.194 277.711 266.99C276.504 267.885 273.021 268.813 273.021 268.813Z" fill="#088395"/>
<path d="M265.737 261.884C266.736 262.542 269.251 263.042 269.878 263.161C270.134 263.562 270.405 263.996 270.652 264.477C271.148 265.332 271.697 266.306 272.2 267.398C272.34 267.688 272.471 268.003 272.611 268.306C272.254 267.832 271.759 267.188 271.697 267.128C270.66 266.062 267.912 264.496 266.217 265.095C265.939 265.197 265.689 265.348 265.483 265.538C265.278 265.728 265.122 265.953 265.026 266.197C264.929 266.442 264.894 266.701 264.924 266.958C264.953 267.215 265.046 267.463 265.196 267.688C265.792 268.661 267.262 269.162 268.462 269.333C269.662 269.504 272.285 268.964 272.843 268.839C273.137 269.497 273.415 270.221 273.655 270.971C274.113 272.326 274.426 273.714 274.592 275.116H274.491C274.228 274.649 273.64 273.669 273.586 273.59C272.688 272.432 270.157 270.642 268.4 271.057C268.11 271.133 267.843 271.26 267.614 271.429C267.386 271.599 267.202 271.807 267.074 272.041C266.947 272.275 266.878 272.529 266.873 272.787C266.868 273.044 266.927 273.3 267.045 273.537C267.51 274.557 268.911 275.195 270.087 275.478C271.434 275.801 274.491 275.399 274.607 275.386C274.728 276.781 274.743 278.181 274.654 279.578C274.592 280.611 274.476 281.657 274.352 282.71C274.174 282.374 273.408 281.091 273.346 280.999C272.448 279.841 269.917 278.051 268.152 278.466C267.863 278.542 267.596 278.67 267.369 278.84C267.142 279.01 266.958 279.218 266.832 279.452C266.705 279.686 266.637 279.939 266.632 280.197C266.628 280.454 266.687 280.709 266.806 280.946C267.27 281.966 268.671 282.604 269.84 282.887C271.163 283.203 274.097 282.828 274.337 282.795C274.282 283.269 274.228 283.749 274.166 284.223C273.965 285.783 273.756 287.342 273.609 288.888C273.555 289.421 273.524 289.954 273.493 290.481C273.214 289.987 272.719 289.092 272.626 289.027C271.728 287.862 269.197 286.072 267.44 286.487C267.151 286.563 266.883 286.69 266.655 286.859C266.426 287.029 266.242 287.237 266.115 287.471C265.987 287.705 265.918 287.959 265.913 288.217C265.908 288.474 265.967 288.73 266.086 288.967C266.55 289.994 267.951 290.625 269.128 290.908C270.304 291.191 272.773 290.908 273.47 290.836C273.423 291.718 273.408 292.593 273.431 293.468C273.431 293.843 273.431 294.225 273.493 294.58C273.555 294.935 273.563 295.297 273.601 295.646C273.702 296.376 273.795 297.054 273.911 297.725C273.965 298.067 274.027 298.383 274.089 298.719C273.888 298.179 273.563 297.33 273.524 297.258C272.843 296.001 270.66 293.902 268.88 294.087C268.58 294.124 268.292 294.214 268.036 294.352C267.779 294.49 267.56 294.672 267.392 294.887C267.224 295.102 267.111 295.344 267.061 295.599C267.01 295.853 267.024 296.114 267.1 296.363C267.378 297.436 268.648 298.245 269.754 298.673C270.977 299.147 273.849 299.16 274.197 299.16C274.344 299.969 274.499 300.759 274.662 301.489C274.824 302.219 275.018 303.075 275.196 303.785H276.372C276.155 303.027 275.939 302.204 275.722 301.318C275.559 300.66 275.405 299.949 275.25 299.226C276.662 298.948 278.022 298.505 279.29 297.91C279.991 298.416 280.728 298.887 281.496 299.318C281.094 300.068 280.722 300.792 280.374 301.482C279.964 302.305 279.6 303.068 279.259 303.785H280.482C280.753 303.167 281.047 302.522 281.372 301.811C281.697 301.101 281.984 300.528 282.324 299.837C282.665 299.936 285.366 300.726 286.705 300.627C287.92 300.535 289.43 300.127 290.111 299.193C290.278 298.98 290.391 298.74 290.443 298.489C290.495 298.237 290.484 297.979 290.411 297.731C290.338 297.483 290.205 297.25 290.02 297.049C289.835 296.847 289.602 296.681 289.337 296.561C287.696 295.903 284.824 297.219 283.686 298.239C283.617 298.298 282.858 299.133 282.487 299.555C282.696 299.147 282.897 298.745 283.121 298.324C283.439 297.712 283.795 297.08 284.135 296.462L284.716 295.508C284.909 295.185 285.134 294.889 285.343 294.573C285.66 294.119 286.016 293.665 286.372 293.205C287.084 293.521 289.182 294.402 290.358 294.462C291.535 294.521 293.145 294.317 293.981 293.488C294.186 293.298 294.343 293.074 294.44 292.83C294.536 292.586 294.571 292.327 294.542 292.07C294.513 291.813 294.42 291.565 294.27 291.341C294.12 291.117 293.916 290.922 293.671 290.77C292.177 289.882 289.089 290.856 287.789 291.698L287.2 292.165C287.564 291.731 287.92 291.29 288.307 290.849C289.391 289.619 290.544 288.401 291.69 287.171L292.402 286.401C292.998 286.664 295.266 287.638 296.496 287.717C297.727 287.796 299.283 287.572 300.118 286.743C300.324 286.553 300.481 286.329 300.578 286.084C300.675 285.839 300.709 285.579 300.68 285.322C300.651 285.065 300.558 284.816 300.408 284.592C300.258 284.367 300.054 284.172 299.809 284.019C298.315 283.137 295.227 284.111 293.934 284.954C293.888 284.954 293.586 285.223 293.253 285.493C293.865 284.835 294.461 284.144 295.033 283.453C296.024 282.275 296.921 281.042 297.719 279.762C297.928 279.854 300.552 281.045 301.922 281.117C303.137 281.177 304.708 280.973 305.544 280.137C305.75 279.948 305.907 279.724 306.005 279.48C306.102 279.236 306.138 278.977 306.109 278.721C306.081 278.464 305.989 278.216 305.839 277.991C305.69 277.767 305.487 277.572 305.242 277.419C303.741 276.531 300.653 277.512 299.36 278.347C299.267 278.406 298.183 279.288 297.812 279.617C297.811 279.602 297.811 279.586 297.812 279.571C298.552 278.302 299.16 276.981 299.631 275.623C300.056 274.406 300.397 273.169 300.653 271.919C300.908 270.76 301.055 269.681 301.171 268.734C301.233 268.221 301.28 267.747 301.31 267.306C301.31 267.306 302.371 265.661 302.417 265.549C303.013 264.233 303.261 261.469 301.845 260.489C301.604 260.332 301.328 260.22 301.033 260.16C300.738 260.1 300.432 260.094 300.134 260.141C299.837 260.188 299.554 260.288 299.304 260.434C299.055 260.58 298.844 260.769 298.687 260.989C297.975 261.904 298.176 263.239 298.586 264.22C298.996 265.2 300.761 266.852 301.21 267.22C301.156 267.674 301.101 268.161 301.024 268.701C300.877 269.648 300.707 270.714 300.428 271.866C300.351 272.169 300.258 272.524 300.173 272.82C300.173 272.254 300.173 271.504 300.173 271.412C299.995 270.03 298.702 267.464 296.914 267.141C296.615 267.095 296.309 267.104 296.014 267.166C295.719 267.228 295.443 267.342 295.204 267.501C294.965 267.66 294.768 267.86 294.627 268.089C294.485 268.317 294.402 268.568 294.383 268.826C294.252 269.912 295.157 271.024 296.047 271.728C296.937 272.432 299.468 273.215 300.018 273.373C299.817 274.077 299.592 274.794 299.314 275.531C298.812 276.875 298.172 278.178 297.402 279.426H297.301C297.386 278.906 297.541 277.814 297.541 277.722C297.541 276.34 296.589 273.662 294.855 273.182C294.564 273.108 294.258 273.088 293.957 273.122C293.656 273.156 293.367 273.243 293.108 273.379C292.85 273.514 292.628 273.694 292.457 273.907C292.285 274.121 292.169 274.362 292.115 274.616C291.844 275.682 292.603 276.873 293.392 277.656C294.313 278.564 297.123 279.63 297.262 279.696C296.457 280.917 295.56 282.093 294.577 283.216C293.849 284.052 293.075 284.875 292.293 285.69C292.363 285.329 292.557 283.894 292.557 283.789C292.557 282.407 291.612 279.729 289.878 279.249C289.587 279.175 289.281 279.155 288.98 279.189C288.679 279.222 288.39 279.31 288.131 279.445C287.873 279.581 287.651 279.761 287.48 279.974C287.309 280.187 287.192 280.429 287.139 280.683C286.868 281.749 287.626 282.94 288.416 283.723C289.313 284.605 291.999 285.664 292.224 285.756C291.868 286.125 291.519 286.5 291.156 286.868C289.979 288.072 288.787 289.277 287.665 290.494C287.27 290.915 286.891 291.343 286.535 291.77C286.62 291.224 286.752 290.231 286.752 290.145C286.752 288.757 285.807 286.079 284.073 285.598C283.782 285.526 283.477 285.506 283.176 285.541C282.875 285.575 282.587 285.663 282.328 285.798C282.07 285.933 281.848 286.113 281.677 286.326C281.505 286.538 281.388 286.779 281.334 287.033C281.063 288.105 281.821 289.29 282.611 290.079C283.4 290.869 285.652 291.797 286.287 292.053C285.676 292.771 285.087 293.488 284.553 294.225C284.329 294.541 284.073 294.883 283.88 295.179L283.284 296.1C282.897 296.758 282.51 297.357 282.2 297.975C282.022 298.285 281.868 298.587 281.697 298.89C281.883 298.35 282.162 297.488 282.177 297.403C282.425 296.034 281.968 293.264 280.335 292.567C280.06 292.457 279.761 292.399 279.458 292.394C279.155 292.389 278.853 292.439 278.574 292.539C278.295 292.64 278.043 292.789 277.836 292.977C277.628 293.166 277.47 293.389 277.371 293.633C277.317 293.761 277.275 293.893 277.247 294.027C276.287 294.933 275.62 296.035 275.312 297.225C275.312 297.311 275.203 298.364 275.172 298.903C275.08 298.462 274.987 298.028 274.902 297.587C274.77 296.929 274.654 296.232 274.546 295.56L274.406 294.495C274.352 294.133 274.352 293.784 274.321 293.422C274.321 292.889 274.321 292.343 274.321 291.797C275.095 291.724 277.417 291.474 278.462 290.974C279.507 290.474 280.691 289.546 280.854 288.461C280.901 288.206 280.884 287.946 280.806 287.698C280.728 287.449 280.589 287.217 280.398 287.017C280.208 286.817 279.97 286.653 279.701 286.535C279.431 286.418 279.136 286.35 278.834 286.335C277.007 286.302 275.064 288.559 274.53 289.869C274.53 289.915 274.429 290.198 274.337 290.527C274.337 289.994 274.375 289.461 274.414 288.921C274.522 287.388 274.693 285.829 274.847 284.263C274.886 283.94 274.909 283.605 274.948 283.289C275.614 283.23 278.137 282.98 279.205 282.453C280.273 281.927 281.434 281.032 281.597 279.94C281.644 279.685 281.627 279.425 281.548 279.176C281.469 278.927 281.33 278.696 281.138 278.496C280.947 278.296 280.709 278.133 280.438 278.016C280.168 277.9 279.872 277.833 279.569 277.821C277.75 277.781 275.807 280.045 275.273 281.354C275.273 281.4 275.157 281.742 275.056 282.124C275.126 281.275 275.188 280.426 275.219 279.584C275.278 278.137 275.224 276.689 275.056 275.248C275.296 275.248 278.261 274.985 279.445 274.406C280.505 273.886 281.674 272.978 281.837 271.892C281.885 271.638 281.869 271.377 281.792 271.128C281.714 270.879 281.575 270.647 281.384 270.446C281.194 270.246 280.956 270.082 280.685 269.965C280.415 269.848 280.119 269.78 279.816 269.767C277.99 269.727 276.047 271.991 275.513 273.3C275.474 273.392 275.142 274.616 275.041 275.084V275.044C274.837 273.632 274.485 272.238 273.988 270.879C273.552 269.666 273.035 268.476 272.44 267.313C271.898 266.227 271.326 265.26 270.807 264.411C270.521 263.95 270.258 263.536 269.994 263.154H270.033C270.033 263.154 269.847 261.285 269.816 261.18C269.476 259.824 267.874 257.383 266.055 257.232C265.751 257.213 265.447 257.249 265.161 257.337C264.875 257.425 264.614 257.563 264.395 257.743C264.176 257.922 264.004 258.139 263.89 258.378C263.776 258.618 263.722 258.875 263.733 259.134C263.733 260.226 264.77 261.226 265.737 261.884Z" fill="#088395"/>
<path d="M230.652 138.042C230.652 138.042 272.912 141.595 294.329 163.868C294.329 163.868 316.953 138.068 357.596 138.595C367.529 128.41 373.854 116.036 375.835 102.914C377.816 89.7917 375.371 76.4611 368.785 64.4744C362.199 52.4877 351.743 42.3382 338.634 35.2079C325.525 28.0776 310.304 24.26 294.742 24.1995C279.18 24.139 263.918 27.8381 250.733 34.8662C237.548 41.8942 226.983 51.962 220.269 63.897C213.554 75.832 210.966 89.1431 212.805 102.28C214.645 115.417 220.837 127.84 230.66 138.101L230.652 138.042Z" fill="#088395"/>
<path opacity="0.5" d="M230.652 138.042C230.652 138.042 272.912 141.595 294.329 163.868C294.329 163.868 316.953 138.068 357.596 138.595C367.529 128.41 373.854 116.036 375.835 102.914C377.816 89.7917 375.371 76.4611 368.785 64.4744C362.199 52.4877 351.743 42.3382 338.634 35.2079C325.525 28.0776 310.304 24.26 294.742 24.1995C279.18 24.139 263.918 27.8381 250.733 34.8662C237.548 41.8942 226.983 51.962 220.269 63.897C213.554 75.832 210.966 89.1431 212.805 102.28C214.645 115.417 220.837 127.84 230.66 138.101L230.652 138.042Z" fill="white"/>
<path d="M292.905 29.1362L291.481 303.785H298.609L292.905 29.1362Z" fill="#737373"/>
<path d="M295.049 157.078C295.049 157.078 309.314 135.252 334.987 128.58C334.987 128.58 307.897 134.035 294.329 152.834L295.049 157.078Z" fill="#737373"/>
<path d="M295.049 95.2324C295.049 95.2324 309.314 73.3999 334.987 66.7344C334.987 66.7344 307.897 72.1892 294.329 90.9883L295.049 95.2324Z" fill="#737373"/>
<path d="M295.049 126.152C295.049 126.152 309.314 104.326 334.987 97.6538C334.987 97.6538 307.897 103.115 294.329 121.908L295.049 126.152Z" fill="#737373"/>
<path d="M292.928 110.998C292.928 110.998 279.166 89.1657 254.391 82.5001C254.391 82.5001 280.544 87.9549 293.617 106.754L292.928 110.998Z" fill="#737373"/>
<path d="M292.928 141.312C292.928 141.312 279.166 119.486 254.391 112.814C254.391 112.814 280.544 118.269 293.617 137.068L292.928 141.312Z" fill="#737373"/>
<path d="M181.48 58.9897C177.215 57.0157 175.288 58.6607 173.74 57.0157C172.192 55.3707 178.004 51.0937 166.371 46.7969C166.371 46.7969 165.597 37.5849 149.692 37.2296C133.786 36.8743 138.082 46.4416 133.786 48.7709C129.49 51.1003 128.368 47.4549 124.088 49.7645C119.807 52.0741 121.766 56.6867 118.267 57.3447C114.769 58.0027 110.125 54.3771 105.883 56.6867C101.642 58.9963 101.611 60.9768 99.6912 60.9768C97.7716 60.9768 93.8707 59.6608 91.5409 60.9768C89.2112 62.2928 86.5022 63.9444 86.5022 63.9444H184.583C184.583 63.9444 185.76 60.9703 181.48 58.9897Z" stroke="#999999" stroke-linecap="round" stroke-linejoin="round"/>
<path d="M123.43 57.6342C122.87 57.898 122.291 58.131 121.696 58.3316" stroke="#999999" stroke-linecap="round" stroke-linejoin="round"/>
<path d="M144.421 42.2305C143.458 42.5963 142.611 43.1527 141.953 43.8533C141.295 44.5538 140.843 45.3782 140.636 46.2574C139.924 49.2711 138.267 51.2845 136.371 51.5214C134.475 51.7583 127.377 51.0871 126.162 53.298C125.847 53.9467 125.624 54.6248 125.496 55.3181" stroke="#999999" stroke-linecap="round" stroke-linejoin="round"/>
<path d="M179.444 94.7125C177.896 93.9887 177.169 94.5875 176.604 93.9887C176.039 93.3899 178.152 91.8107 173.91 90.2447C173.91 90.2447 173.624 86.8691 167.803 86.7441C161.983 86.6191 163.546 90.1262 161.983 90.9685C160.419 91.8107 160.001 90.4881 158.438 91.3304C156.874 92.1726 157.586 93.8637 156.309 94.1071C155.032 94.3506 153.329 93.0214 151.766 93.8637C150.202 94.7059 150.218 95.4363 149.498 95.4363C148.778 95.4363 147.37 94.9494 146.518 95.4363C145.667 95.9232 144.676 96.522 144.676 96.522H180.574C180.675 96.1552 180.615 95.77 180.408 95.4374C180.2 95.1048 179.858 94.8473 179.444 94.7125Z" stroke="#999999" stroke-linecap="round" stroke-linejoin="round"/>
<path d="M158.206 94.2124C158.002 94.3119 157.79 94.3977 157.571 94.469" stroke="#999999" stroke-linecap="round" stroke-linejoin="round"/>
<path d="M165.884 88.58C165.531 88.7136 165.221 88.9171 164.98 89.1736C164.739 89.4301 164.574 89.7319 164.498 90.0539C164.235 91.1527 163.631 91.8897 162.95 91.9621C162.269 92.0345 159.661 91.8173 159.227 92.6201C159.114 92.8593 159.033 93.1088 158.987 93.3636" stroke="#999999" stroke-linecap="round" stroke-linejoin="round"/>
<path d="M31.0684 261.752H116.928V298.686C116.928 300.038 116.296 301.336 115.171 302.292C114.046 303.248 112.521 303.785 110.93 303.785H37.0669C35.476 303.785 33.9502 303.248 32.8253 302.292C31.7003 301.336 31.0684 300.038 31.0684 298.686V261.752Z" fill="#088395" stroke="#263238" stroke-linecap="round" stroke-linejoin="round"/>
<path d="M28.073 261.752V279.65C28.073 282.887 31.5173 285.513 35.7666 285.513H57.9339C58.7081 285.507 59.4729 285.658 60.1657 285.952C60.8585 286.246 61.4596 286.675 61.92 287.204C62.7329 288.117 63.7869 288.855 64.997 289.358C66.207 289.86 67.5392 290.115 68.886 290.099H79.0641C80.4111 290.116 81.7437 289.862 82.954 289.359C84.1642 288.856 85.2181 288.118 86.0301 287.204C86.4965 286.677 87.1029 286.252 87.7998 285.962C88.4966 285.673 89.264 285.528 90.0394 285.539H112.23C116.479 285.539 119.924 282.907 119.924 279.676V261.752H28.073Z" fill="#088395" stroke="#263238" stroke-linecap="round" stroke-linejoin="round"/>
<path d="M34.8299 249.093H113.081C114.724 249.093 116.299 249.647 117.46 250.634C118.621 251.622 119.273 252.96 119.273 254.357V259.936H28.6379V254.357C28.6379 252.96 29.2903 251.622 30.4515 250.634C31.6128 249.647 33.1877 249.093 34.8299 249.093Z" fill="white" stroke="#263238" stroke-linecap="round" stroke-linejoin="round"/>
<path d="M120.419 253.514H27.5234C25.8093 253.514 24.4197 254.696 24.4197 256.153V261.733C24.4197 263.19 25.8093 264.371 27.5234 264.371H120.419C122.133 264.371 123.523 263.19 123.523 261.733V256.153C123.523 254.696 122.133 253.514 120.419 253.514Z" fill="white" stroke="#263238" stroke-linecap="round" stroke-linejoin="round"/>
<path d="M24.4197 261.759H123.523" stroke="#263238" stroke-linecap="round" stroke-linejoin="round"/>
<path d="M79.366 259.884H69.8225L67.7792 261.759H81.4093L79.366 259.884Z" fill="white" stroke="#263238" stroke-linecap="round" stroke-linejoin="round"/>
<path d="M12.1672 29.9653C12.1672 29.9653 169.916 72.5116 371.094 28.4651" stroke="#263238" stroke-linecap="round" stroke-linejoin="round"/>
<path d="M54.5936 52.9076C56.979 51.3839 57.4598 48.5047 55.6675 46.4768C53.8751 44.4489 50.4884 44.0401 48.103 45.5638C45.7176 47.0875 45.2368 49.9667 47.0291 51.9946C48.8214 54.0225 52.2082 54.4313 54.5936 52.9076Z" fill="white" stroke="#263238" stroke-linecap="round" stroke-linejoin="round"/>
<path d="M52.613 40.7555L52.9119 40.7916C53.5968 40.8743 54.215 41.1848 54.6306 41.655C55.0461 42.1252 55.225 42.7165 55.1277 43.2987L54.7187 45.7482L49.2549 45.0888L49.6628 42.6458C49.71 42.3568 49.8239 42.0786 49.9978 41.8271C50.1718 41.5756 50.4024 41.3557 50.6764 41.1801C50.9505 41.0045 51.2626 40.8766 51.595 40.8038C51.9273 40.7309 52.2732 40.7145 52.613 40.7555Z" fill="#263238" stroke="#263238" stroke-linecap="round" stroke-linejoin="round"/>
<path d="M49.6753 37.7166C49.6753 37.7166 52.7713 38.7694 53.3286 40.8421C53.8629 39.9241 54.7467 39.1867 55.8363 38.7496" stroke="#263238" stroke-linecap="round" stroke-linejoin="round"/>
<path d="M113.039 59.6991C115.265 58.0097 115.458 55.1063 113.471 53.2142C111.484 51.3221 108.069 51.1577 105.843 52.8471C103.617 54.5365 103.424 57.4399 105.411 59.332C107.398 61.2241 110.814 61.3885 113.039 59.6991Z" fill="white" stroke="#263238" stroke-linecap="round" stroke-linejoin="round"/>
<path d="M109.971 47.7415L110.272 47.7589C110.962 47.7988 111.606 48.0702 112.06 48.5133C112.515 48.9564 112.744 49.5349 112.697 50.1217L112.5 52.5901L106.994 52.2718L107.192 49.8034C107.215 49.5129 107.305 49.2291 107.457 48.9682C107.61 48.7074 107.821 48.4746 108.079 48.2831C108.337 48.0916 108.637 47.9453 108.962 47.8523C109.286 47.7594 109.629 47.7217 109.971 47.7415Z" fill="#263238" stroke="#263238" stroke-linecap="round" stroke-linejoin="round"/>
<path d="M106.812 44.8822C106.812 44.8822 110.024 45.7442 110.728 47.7774C111.183 46.8284 112.001 46.0378 113.05 45.5336" stroke="#263238" stroke-linecap="round" stroke-linejoin="round"/>
<path d="M164.506 59.3516C164.484 60.2634 164.144 61.1492 163.53 61.8967C162.915 62.6442 162.053 63.2198 161.054 63.5505C160.054 63.8812 158.961 63.9521 157.914 63.7543C156.867 63.5565 155.912 63.0989 155.171 62.4394C154.43 61.7799 153.936 60.9483 153.752 60.0499C153.567 59.1514 153.701 58.2267 154.135 57.3928C154.57 56.5589 155.285 55.8535 156.192 55.3658C157.098 54.8781 158.155 54.6302 159.227 54.6535C160.659 54.6845 162.018 55.1962 163.007 56.0765C163.996 56.9569 164.535 58.1344 164.506 59.3516Z" fill="white" stroke="#263238" stroke-linecap="round" stroke-linejoin="round"/>
<path d="M159.18 50.7083L159.505 50.7146C159.847 50.7212 160.185 50.7851 160.498 50.9026C160.812 51.0201 161.095 51.1889 161.331 51.3995C161.568 51.61 161.754 51.8581 161.877 52.1296C162.001 52.4011 162.061 52.6907 162.053 52.9818L161.987 55.4552L156.47 55.3488L156.536 52.8753C156.552 52.2908 156.838 51.7351 157.333 51.3293C157.828 50.9234 158.492 50.7002 159.18 50.7083Z" fill="#263238" stroke="#263238" stroke-linecap="round" stroke-linejoin="round"/>
<path d="M155.845 47.9813C155.845 47.9813 159.096 48.7117 159.908 50.7186C160.308 49.7524 161.084 48.9308 162.107 48.3893" stroke="#263238" stroke-linecap="round" stroke-linejoin="round"/>
<path d="M220.59 59.049C220.63 59.9614 220.349 60.8632 219.785 61.6398C219.22 62.4165 218.397 63.033 217.419 63.4111C216.441 63.7891 215.354 63.9116 214.294 63.763C213.234 63.6145 212.251 63.2015 211.468 62.5766C210.684 61.9518 210.138 61.1431 209.896 60.2534C209.655 59.3638 209.73 58.4332 210.112 57.5799C210.494 56.7266 211.166 55.9891 212.042 55.461C212.918 54.9329 213.959 54.6381 215.033 54.614C216.459 54.582 217.843 55.0298 218.884 55.8602C219.924 56.6906 220.538 57.8365 220.59 59.049Z" fill="white" stroke="#263238" stroke-linecap="round" stroke-linejoin="round"/>
<path d="M214.725 50.664L215.026 50.6555C215.718 50.6359 216.39 50.8506 216.895 51.2523C217.4 51.6541 217.697 52.21 217.72 52.7978L217.817 55.2705L212.302 55.4268L212.205 52.9541C212.182 52.3664 212.434 51.7949 212.907 51.3654C213.379 50.9359 214.033 50.6836 214.725 50.664Z" fill="#263238" stroke="#263238" stroke-linecap="round" stroke-linejoin="round"/>
<path d="M211.217 48.1064C211.217 48.1064 214.506 48.6855 215.451 50.6529C215.786 49.6676 216.507 48.8089 217.494 48.2183" stroke="#263238" stroke-linecap="round" stroke-linejoin="round"/>
<path d="M279.368 54.3968C279.541 55.2969 279.397 56.2207 278.953 57.0509C278.508 57.8811 277.784 58.5805 276.871 59.0603C275.959 59.5402 274.899 59.7789 273.827 59.7462C272.755 59.7135 271.718 59.4108 270.848 58.8766C269.978 58.3424 269.315 57.6007 268.942 56.7455C268.568 55.8903 268.502 54.9602 268.751 54.073C269.001 53.1858 269.554 52.3815 270.342 51.762C271.129 51.1426 272.116 50.7359 273.176 50.5936C274.589 50.4037 276.034 50.697 277.194 51.4096C278.354 52.1222 279.136 53.1961 279.368 54.3968Z" fill="white" stroke="#263238" stroke-linecap="round" stroke-linejoin="round"/>
<path d="M272.273 46.7297L272.571 46.6887C273.254 46.5948 273.953 46.7353 274.514 47.0794C275.075 47.4235 275.452 47.943 275.563 48.5236L276.027 50.9659L270.602 51.712L270.138 49.2697C270.028 48.6925 270.191 48.1018 270.59 47.6261C270.99 47.1504 271.595 46.8282 272.273 46.7297Z" fill="#263238" stroke="#263238" stroke-linecap="round" stroke-linejoin="round"/>
<path d="M268.408 44.5532C268.408 44.5532 271.767 44.7703 272.99 46.6193C273.179 45.6075 273.766 44.6799 274.654 43.9873" stroke="#263238" stroke-linecap="round" stroke-linejoin="round"/>
<path d="M333.829 51.8344C336.572 50.8351 337.842 48.1351 336.667 45.8036C335.491 43.4722 332.315 42.3922 329.573 43.3915C326.83 44.3907 325.56 47.0908 326.735 49.4222C327.911 51.7537 331.087 52.8336 333.829 51.8344Z" fill="white" stroke="#263238" stroke-linecap="round" stroke-linejoin="round"/>
<path d="M329.524 39.2902L329.819 39.2382C330.158 39.1787 330.507 39.177 330.847 39.2332C331.186 39.2894 331.509 39.4025 331.796 39.5658C332.084 39.7291 332.33 39.9394 332.522 40.1844C332.713 40.4294 332.845 40.7043 332.91 40.9931L333.499 43.4159L328.094 44.3657L327.505 41.9428C327.43 41.6559 327.423 41.3591 327.484 41.0697C327.545 40.7803 327.674 40.5042 327.861 40.2574C328.049 40.0105 328.293 39.7979 328.578 39.6318C328.864 39.4658 329.185 39.3497 329.524 39.2902Z" fill="#263238" stroke="#263238" stroke-linecap="round" stroke-linejoin="round"/>
<path d="M325.552 37.256C325.552 37.256 328.919 37.3547 330.235 39.1511C330.378 38.1309 330.924 37.1822 331.783 36.4598" stroke="#263238" stroke-linecap="round" stroke-linejoin="round"/>
<path d="M248.779 302.989H259.484L254.646 258.963C254.556 258.328 254.198 257.744 253.638 257.318C253.078 256.892 252.356 256.653 251.604 256.646H223.098C222.347 256.653 221.624 256.892 221.064 257.318C220.504 257.744 220.146 258.328 220.056 258.963L215.25 302.989H225.962L227.51 286.908H247.285L248.779 302.989ZM227.634 284.914L228.911 268.668H245.823L247.1 284.914H227.634Z" fill="#263238" stroke="#263238" stroke-linecap="round" stroke-linejoin="round"/>
<path d="M267.556 184.727C266.612 184.523 257.154 182.095 254.553 181.108C251.953 180.121 250.776 179.502 250.776 179.502L251.008 169.448C251.008 169.448 246.991 173.672 243.678 174.877C240.366 176.081 235.404 176.081 235.404 176.081L235.164 179.904H221.232C218.392 179.904 212.951 183.924 212.006 187.339C211.074 190.26 209.466 192.993 207.277 195.38C205.861 196.992 201.132 201.815 201.132 201.815C201.132 201.815 195.18 186.023 195.18 182.194C195.18 178.364 196.163 176.884 195.69 174.877C195.218 172.87 194.986 172.666 194.986 171.258C194.986 169.85 195.69 168.04 195.69 166.836C195.69 165.632 192.378 166.632 192.378 168.04C192.378 169.448 192.215 172.863 192.215 172.863C192.215 172.863 187.176 169.448 186.944 168.843C186.712 168.237 183.159 165.625 181.975 165.224C181.281 164.987 180.57 164.787 179.847 164.625C179.655 164.666 179.481 164.753 179.345 164.876C179.21 164.998 179.118 165.151 179.081 165.317C179.045 165.482 179.065 165.653 179.139 165.809C179.212 165.965 179.337 166.1 179.498 166.198C180.721 167.237 183.368 169.902 183.368 169.902C183.368 169.902 178.972 166.007 177.772 166.027C176.573 166.046 176.573 167.086 177.44 168.566C178.348 169.869 179.383 171.104 180.536 172.258C180.938 173.297 181.31 174.271 181.31 174.271C181.31 174.271 178.477 177.291 181.31 180.101C184.142 182.911 186.991 185.365 186.991 185.365C186.991 185.365 188.647 192.801 188.879 196.624C189.111 200.447 188.647 204.059 191.008 208.468C193.368 212.876 199.05 217.311 200.706 217.311C202.362 217.311 217.494 204.447 217.494 204.447C217.494 204.447 218.438 213.495 218.438 219.93C218.438 226.365 217.494 228.03 217.494 228.03C216.594 231.875 216.041 235.773 215.838 239.69C215.366 246.928 219.383 253.758 223.407 255.166C227.432 256.574 243.74 256.377 246.341 256.377C248.942 256.377 251.07 255.975 252.533 253.745C253.996 251.514 256.31 244.901 256.31 239.676C256.31 234.452 259.863 223.792 260.567 220.377C261.271 216.962 266.403 207.428 266.403 207.428C269.309 204.031 271.471 200.217 272.789 196.17C274.886 189.55 268.501 184.931 267.556 184.727Z" fill="#C9C9C9" stroke="#263238" stroke-linecap="round" stroke-linejoin="round"/>
<path d="M245.01 177.213C245.01 177.213 237.796 179.877 235.157 179.904V177.443L245.01 177.213Z" fill="#263238" stroke="#263238" stroke-linecap="round" stroke-linejoin="round"/>
<path d="M246.194 256.508C248.795 256.508 250.923 256.107 252.34 253.876C253.756 251.645 256.124 245.026 256.124 239.801C256.124 236.63 257.432 231.465 258.617 227.128L218.106 223.523C217.881 227.089 217.332 228.129 217.332 228.129C216.432 231.974 215.878 235.872 215.675 239.788C215.203 247.026 219.22 253.863 223.237 255.271C227.254 256.679 243.593 256.508 246.194 256.508Z" fill="white" stroke="#263238" stroke-linecap="round" stroke-linejoin="round"/>
<path d="M272.758 196.183C274.886 189.55 268.501 184.931 267.556 184.727C266.875 184.582 261.806 183.299 258.036 182.213C254.778 185.609 246.248 193.689 239.963 192.485C232.997 191.169 231.751 182.036 231.565 179.904H221.209C218.369 179.904 212.927 183.924 211.983 187.339C211.051 190.26 209.443 192.993 207.254 195.38C206.921 195.762 206.387 196.334 205.783 196.972C208.98 200.262 211.867 204.868 213.523 207.711C215.799 205.836 217.448 204.421 217.448 204.421C217.448 204.421 218.392 213.468 218.392 219.904C218.392 226.339 217.494 228.03 217.494 228.03C217.494 228.03 217.115 230.043 217.03 230.386C230.66 235.281 247.889 234.735 256.821 235.057C257.843 229.682 259.994 222.97 260.528 220.391C261.241 216.969 266.364 207.441 266.364 207.441C269.273 204.045 271.438 200.231 272.758 196.183Z" fill="#263238" stroke="#263238" stroke-linecap="round" stroke-linejoin="round"/>
<path d="M217.424 204.427L214.924 193.136" stroke="#263238" stroke-linecap="round" stroke-linejoin="round"/>
<path d="M183.314 169.902L187.146 172.863" stroke="#263238" stroke-linecap="round" stroke-linejoin="round"/>
<path d="M181.952 181.108C181.952 181.108 179.824 178.64 180.002 177.752C180.18 176.864 179.7 176.127 181.24 174.271C182.401 172.844 184.126 171.819 186.101 171.383C187.146 171.231 187.842 171.231 187.494 171.975C187.146 172.718 185.404 173.607 184.529 174.199C183.655 174.791 182.788 175.515 183.314 176.864C183.58 177.583 183.93 178.277 184.359 178.937" fill="#C9C9C9"/>
<path d="M181.952 181.108C181.952 181.108 179.824 178.64 180.002 177.752C180.18 176.864 179.7 176.127 181.24 174.271C182.401 172.844 184.126 171.819 186.101 171.383C187.146 171.231 187.842 171.231 187.494 171.975C187.146 172.718 185.404 173.607 184.529 174.199C183.655 174.791 182.788 175.515 183.314 176.864C183.58 177.583 183.93 178.277 184.359 178.937" stroke="#263238" stroke-linecap="round" stroke-linejoin="round"/>
<path d="M189.05 183.72V181.509C189.05 180.503 184.553 178.292 184.553 178.292V176.482C185.44 176.352 186.31 176.152 187.153 175.883C187.462 175.821 187.73 175.661 187.906 175.436C188.081 175.211 188.149 174.939 188.097 174.673C188.097 174.673 183.368 174.877 182.679 175.482C181.991 176.087 181.255 179.094 181.255 179.094C181.133 179.453 181.135 179.833 181.262 180.191C181.388 180.548 181.633 180.866 181.967 181.108C183.092 181.956 184.304 182.716 185.59 183.378" fill="#C9C9C9"/>
<path d="M189.05 183.72V181.509C189.05 180.503 184.553 178.292 184.553 178.292V176.482C185.44 176.352 186.31 176.152 187.153 175.883C187.462 175.821 187.73 175.661 187.906 175.436C188.081 175.211 188.149 174.939 188.097 174.673C188.097 174.673 183.368 174.877 182.679 175.482C181.991 176.087 181.255 179.094 181.255 179.094C181.133 179.453 181.135 179.833 181.262 180.191C181.388 180.548 181.633 180.866 181.967 181.108C183.092 181.956 184.304 182.716 185.59 183.378" stroke="#263238" stroke-linecap="round" stroke-linejoin="round"/>
<path d="M243.222 211.83L242.727 205.131H239.94L239.437 211.83C238.787 211.865 238.178 212.109 237.732 212.512C237.287 212.916 237.038 213.448 237.038 214.001V225.266C237.038 225.63 237.207 225.979 237.509 226.236C237.81 226.494 238.22 226.64 238.648 226.641H244.066C244.495 226.641 244.906 226.497 245.209 226.239C245.513 225.981 245.683 225.631 245.683 225.266V214.001C245.682 213.439 245.425 212.9 244.966 212.495C244.507 212.09 243.882 211.852 243.222 211.83Z" fill="#088395" stroke="#263238" stroke-linecap="round" stroke-linejoin="round"/>
<path d="M243.423 203.829H239.205V206.112H243.423V203.829Z" fill="#088395" stroke="#263238" stroke-linecap="round" stroke-linejoin="round"/>
<path d="M264.491 199.433L269.352 217.245C269.352 217.245 263.477 220.535 259.135 221.812C256.306 222.567 253.272 222.567 250.443 221.812C250.443 221.812 247.347 218.772 245.335 218.772C243.322 218.772 237.161 218.772 235.629 219.43C234.096 220.088 234.607 222.47 235.629 222.687C236.651 222.904 236.643 228.326 239.94 228.984C243.237 229.642 249.901 228.115 250.923 228.115C251.945 228.115 264.213 227.247 270.343 226.596C276.473 225.944 283.377 223.964 283.888 222.47C284.399 220.976 278.524 195.748 276.991 192.274C275.459 188.8 272.138 184.457 265.745 184.674" fill="#263238"/>
<path d="M264.491 199.433L269.352 217.245C269.352 217.245 263.477 220.535 259.135 221.812C256.306 222.567 253.272 222.567 250.443 221.812C250.443 221.812 247.347 218.772 245.335 218.772C243.322 218.772 237.161 218.772 235.629 219.43C234.096 220.088 234.607 222.47 235.629 222.687C236.651 222.904 236.643 228.326 239.94 228.984C243.237 229.642 249.901 228.115 250.923 228.115C251.945 228.115 264.213 227.247 270.343 226.596C276.473 225.944 283.377 223.964 283.888 222.47C284.399 220.976 278.524 195.748 276.991 192.274C275.459 188.8 272.138 184.457 265.745 184.674" stroke="#263238" stroke-linecap="round" stroke-linejoin="round"/>
<path d="M283.911 222.463C284.205 221.588 282.363 212.909 280.505 205.013C275.78 205.433 271.199 206.648 267.03 208.586L269.352 217.239C269.352 217.239 263.477 220.529 259.135 221.805C256.306 222.561 253.272 222.561 250.443 221.805C250.443 221.805 247.347 218.765 245.335 218.765C243.322 218.765 237.161 218.765 235.629 219.423C234.096 220.081 234.607 222.463 235.629 222.68C236.651 222.898 236.643 228.326 239.94 228.984C243.237 229.642 249.901 228.115 250.923 228.115C251.945 228.115 264.213 227.247 270.343 226.595C276.473 225.944 283.4 223.983 283.911 222.463Z" fill="#C9C9C9" stroke="#263238" stroke-linecap="round" stroke-linejoin="round"/>
<path d="M233.748 146.53C233.748 146.53 229.259 149.544 228.547 153.367C227.835 157.19 228.307 164.02 229.963 167.639C231.619 171.258 232.564 177.292 237.773 178.094C239.85 178.392 241.983 178.233 243.968 177.635C245.954 177.036 247.727 176.016 249.12 174.673C250.776 172.863 252.665 167.843 252.665 167.843C253.41 167.679 254.09 167.348 254.635 166.886C255.179 166.423 255.568 165.844 255.761 165.211C256.465 163 256.705 162.401 256.233 161.394C255.818 160.649 255.258 159.968 254.576 159.381C254.576 159.381 255.281 151.741 252.208 148.932C249.135 146.122 240.366 143.312 233.748 146.53Z" fill="#C9C9C9" stroke="#263238" stroke-linecap="round" stroke-linejoin="round"/>
<path d="M233.748 146.53C232.981 147.075 232.269 147.674 231.62 148.32C234.612 149.395 237.829 149.947 241.078 149.945C244.814 149.942 248.539 149.607 252.192 148.945C249.112 146.129 240.366 143.313 233.748 146.53Z" fill="#263238" stroke="#263238" stroke-linecap="round" stroke-linejoin="round"/>
<path d="M228.539 157.183C228.539 157.183 230.428 152.36 230.428 150.754C230.428 150.314 230.428 149.912 230.474 149.55C229.504 150.685 228.843 151.988 228.539 153.367C228.354 154.441 228.25 155.525 228.229 156.611L228.539 157.183Z" fill="#263238" stroke="#263238" stroke-linecap="round" stroke-linejoin="round"/>
<path d="M252.185 148.945C251.736 150.6 251.42 152.28 251.24 153.972C251.24 155.38 252.657 157.795 252.657 157.795L252.425 162.618C252.425 162.618 253.609 163.223 253.609 161.611C253.609 159.999 253.369 159.637 254.553 159.4C254.553 159.394 255.258 151.754 252.185 148.945Z" fill="#263238" stroke="#263238" stroke-linecap="round" stroke-linejoin="round"/>
<path d="M235.869 162.013C235.869 162.013 233.508 159.999 231.14 161.407" stroke="#263238" stroke-linecap="round" stroke-linejoin="round"/>
<path d="M241.07 162.21C241.07 162.21 244.383 160.203 246.271 162.21" stroke="#263238" stroke-linecap="round" stroke-linejoin="round"/>
<path d="M235.869 157.986C235.869 157.986 232.084 157.183 230.667 159.394" stroke="#263238" stroke-width="2" stroke-linecap="round" stroke-linejoin="round"/>
<path d="M241.782 157.986C241.782 157.986 245.327 157.183 246.984 159.394" stroke="#263238" stroke-width="2" stroke-linecap="round" stroke-linejoin="round"/>
<path d="M235.869 166.033C235.869 166.033 235.397 167.435 237.053 167.435C238.709 167.435 239.654 167.639 240.149 166.632" stroke="#263238" stroke-linecap="round" stroke-linejoin="round"/>
<path d="M233.748 169.244C233.748 169.244 237.293 172.264 243.206 169.047" stroke="#263238" stroke-linecap="round" stroke-linejoin="round"/>
<path d="M228.33 240.545C228.33 240.545 221.612 233.57 212.564 229.425C203.516 225.279 194.212 224.161 186.975 225.477C179.738 226.793 179.475 232.675 180.009 235.294C180.543 237.913 189.831 259.726 191.619 263.647C193.407 267.569 197.564 283.519 198.082 285.697C198.601 287.875 194.723 293.554 194.212 296.166C193.701 298.778 190.59 299.877 188.268 300.969C185.946 302.061 189.042 303.601 191.627 303.601C194.212 303.601 201.449 303.601 203.237 302.943C205.025 302.285 206.921 297.85 210.203 296.179C215.373 293.547 215.118 289.638 214.073 287.895C212.455 285.164 209.94 282.874 209.166 280.696C208.392 278.518 206.07 264.319 206.07 261.265V249.487C206.07 249.487 211.488 253.626 215.358 254.935C219.228 256.245 230.613 256.909 232.425 256.679C234.236 256.449 252.324 256.679 252.324 256.679C252.324 256.679 266.465 259.969 266.256 241.953C266.186 235.413 256.302 221.641 247.974 230.043C244.654 233.386 238.856 241.631 236.271 247.737" fill="white"/>
<path d="M228.33 240.545C228.33 240.545 221.612 233.57 212.564 229.425C203.516 225.279 194.212 224.161 186.975 225.477C179.738 226.793 179.475 232.675 180.009 235.294C180.543 237.913 189.831 259.726 191.619 263.647C193.407 267.569 197.564 283.519 198.082 285.697C198.601 287.875 194.723 293.554 194.212 296.166C193.701 298.778 190.59 299.877 188.268 300.969C185.946 302.061 189.042 303.601 191.627 303.601C194.212 303.601 201.449 303.601 203.237 302.943C205.025 302.285 206.921 297.85 210.203 296.179C215.373 293.547 215.118 289.638 214.073 287.895C212.455 285.164 209.94 282.874 209.166 280.696C208.392 278.518 206.07 264.319 206.07 261.265V249.487C206.07 249.487 211.488 253.626 215.358 254.935C219.228 256.245 230.613 256.909 232.425 256.679C234.236 256.449 252.324 256.679 252.324 256.679C252.324 256.679 266.465 259.969 266.256 241.953C266.186 235.413 256.302 221.641 247.974 230.043C244.654 233.386 238.856 241.631 236.271 247.737" stroke="#263238" stroke-linecap="round" stroke-linejoin="round"/>
<path d="M213.562 287.224C212.788 290.237 211.356 294.014 208.578 295.192C204.63 296.876 205.613 301.7 197.471 302.542C191.836 303.121 189.63 301.792 188.802 300.923L188.268 301.167C185.946 302.259 189.042 303.799 191.627 303.799C194.212 303.799 201.449 303.799 203.237 303.141C205.025 302.483 206.921 298.041 210.203 296.376C215.373 293.744 215.118 289.796 214.073 288.086C213.941 287.79 213.756 287.507 213.562 287.224Z" fill="white" stroke="#263238" stroke-linecap="round" stroke-linejoin="round"/>
<path d="M206.101 249.494C206.101 249.494 206.658 249.915 207.533 250.534C208.787 235.176 203.492 228.359 199.893 225.53C195.633 224.788 191.243 224.771 186.975 225.477C179.731 226.793 179.475 232.675 180.009 235.294C180.543 237.913 189.831 259.726 191.619 263.647C193.407 267.569 197.564 283.519 198.082 285.697C198.082 285.789 198.082 285.888 198.082 285.987C198.68 285.966 199.279 286.015 199.862 286.131C201.666 286.572 204.506 288.105 206.581 286.789C208.655 285.473 209.166 280.683 209.166 280.683C208.392 278.499 206.07 264.305 206.07 261.252L206.101 249.494Z" fill="#C9C9C9" stroke="#263238" stroke-linecap="round" stroke-linejoin="round"/>
<path d="M201.534 237.591C201.034 236.949 200.489 236.334 199.901 235.748" stroke="#263238" stroke-linecap="round" stroke-linejoin="round"/>
<path d="M206.101 249.494C205.857 246.29 204.906 243.154 203.299 240.249" stroke="#263238" stroke-linecap="round" stroke-linejoin="round"/>
<path d="M258.431 285.144C258.431 285.144 259.871 289.717 261.163 291.033C262.456 292.349 268.4 298.508 268.4 300.482C268.4 302.456 266.333 302.456 264.53 302.904C263.075 303.252 252.247 303.042 248.067 302.943C247.045 302.943 246.991 301.976 246.697 301.14C246.132 299.528 246.953 296.969 247.363 294.56C248.059 290.428 247.727 288.888 248.764 287.322C249.801 285.756 248.098 284.467 250.165 284.467C252.231 284.467 258.431 285.144 258.431 285.144Z" fill="white" stroke="#263238" stroke-linecap="round" stroke-linejoin="round"/>
<path d="M264.522 302.904C266.333 302.463 268.392 302.463 268.392 300.482C268.371 300.204 268.298 299.931 268.176 299.673C266.426 300.864 263.021 301.877 258.888 301.877C253.949 301.877 251.976 301.219 249.754 299.357C248.346 298.16 247.239 298.041 246.62 298.146C246.376 299.134 246.376 300.153 246.62 301.14C246.914 301.976 246.968 302.917 247.99 302.943C252.239 303.042 263.067 303.252 264.522 302.904Z" fill="white" stroke="#263238" stroke-linecap="round" stroke-linejoin="round"/>
<path d="M251.271 303.134C250.865 301.03 251.035 298.876 251.767 296.837" stroke="#263238" stroke-linecap="round" stroke-linejoin="round"/>
<path d="M255.42 225.405C255.42 225.405 248.245 225.859 246.449 229.063C244.654 232.267 243.949 235.196 245.165 245.013C246.349 254.547 247.595 277.841 249.886 287.059C250.397 289.119 256.55 288.895 257.835 287.52C259.12 286.145 263.563 262.707 264.081 252.863C264.6 243.019 264.623 235.479 262.316 231.59C260.01 227.701 258.47 225.859 255.42 225.405Z" fill="#C9C9C9" stroke="#263238" stroke-linecap="round" stroke-linejoin="round"/>
<path d="M304.422 162.526C304.422 162.526 302.967 166.691 301.628 168.264C300.629 169.428 298.602 170.04 298.602 171.429C298.602 172.817 301.396 173.804 301.396 173.804C301.396 173.804 303.718 179.93 304.19 181.318C304.662 182.707 307.913 182.898 308.834 182.7C309.755 182.503 316.048 180.128 316.048 180.128L316.976 164.112L304.422 162.526Z" fill="white" stroke="#263238" stroke-linecap="round" stroke-linejoin="round"/>
<path d="M306.272 168.909C306.674 168.909 306.999 168.42 306.999 167.816C306.999 167.213 306.674 166.724 306.272 166.724C305.87 166.724 305.544 167.213 305.544 167.816C305.544 168.42 305.87 168.909 306.272 168.909Z" fill="#263238"/>
<path d="M305.064 164.533C305.703 164.424 306.365 164.517 306.928 164.795C307.491 165.072 307.916 165.515 308.122 166.04" fill="white"/>
<path d="M305.064 164.533C305.703 164.424 306.365 164.517 306.928 164.795C307.491 165.072 307.916 165.515 308.122 166.04" stroke="#263238" stroke-linecap="round" stroke-linejoin="round"/>
<path d="M303.617 175.337C303.617 175.337 306.667 175.475 308.261 173.969L303.617 175.337Z" fill="white"/>
<path d="M303.617 175.337C303.617 175.337 306.667 175.475 308.261 173.969" stroke="#263238" stroke-linecap="round" stroke-linejoin="round"/>
<path d="M267.742 232.82C267.742 232.82 262.51 233.261 261.984 237.045C261.457 240.828 269.84 251.521 276.117 259.515C282.394 267.51 293.919 279.762 294.964 281.986C296.009 284.21 296.512 290.889 294.19 293.113C291.868 295.337 289.747 296.449 291.574 296.896C293.4 297.344 301.519 296.449 301.519 296.449C301.519 296.449 305.444 290.665 306.759 288.665C308.075 286.664 311.465 281.321 311.465 280.433C311.465 279.545 308.323 275.978 307.015 275.538C305.707 275.097 300.211 273.564 300.211 273.564C300.211 273.564 287.371 255.962 286.589 254.179C285.49 252.123 284.266 250.118 282.92 248.171C282.92 248.171 304.12 256.403 316.976 257.291C329.832 258.179 333.47 257.515 333.47 257.515C333.47 257.515 333.47 255.291 331.922 254.843C330.374 254.396 320.668 250.619 318.052 249.948C315.436 249.277 296.798 241.486 294.701 240.828C292.603 240.17 272.719 232.596 272.719 232.596L267.742 232.82Z" fill="#263238" stroke="#263238" stroke-linecap="round" stroke-linejoin="round"/>
<path d="M313.246 197.946C313.246 197.946 310.924 207.073 311.52 209.843C312.116 212.613 312.092 218.476 312.092 222.226C312.092 225.977 310.947 229.714 311.14 231.024C311.334 232.333 316.698 233.656 321.102 233.656C325.506 233.656 341.605 233.814 343.904 232.675C346.203 231.537 346.017 227.464 345.63 225.345C345.243 223.227 344.856 204 344.484 200.578C344.113 197.157 343.71 193.09 342.371 189.991C341.032 186.892 333.942 183.799 326.891 185.596C319.84 187.392 313.246 197.946 313.246 197.946Z" fill="white" stroke="#263238" stroke-linecap="round" stroke-linejoin="round"/>
<path d="M314.244 163.987C314.244 163.987 314.569 177.528 312.959 183.543C311.349 189.557 309.259 193.801 310.227 197.63C311.194 201.46 316.984 204.059 319.074 203.105C321.164 202.151 321.651 195.577 328.083 191.616C334.515 187.655 339.987 190.109 341.597 192.847C342.756 195.084 343.62 197.423 344.175 199.821C346.281 197.664 347.414 194.939 347.371 192.136C347.216 187.622 343.997 181.194 340.614 177.088C338.269 174.068 336.275 170.862 334.662 167.514L314.244 163.987Z" fill="#263238" stroke="#263238" stroke-linecap="round" stroke-linejoin="round"/>
<path d="M312.332 149.892L304.654 159.19L291.852 156.222C295.163 159.092 299.109 161.378 303.462 162.947C310.676 165.52 319.515 166.112 326.961 166.112C334.407 166.112 347.209 168.29 347.209 168.29C347.209 168.29 341.853 165.915 340.459 165.323C339.483 164.926 338.471 164.596 337.433 164.336C337.433 164.336 335.808 154.051 335.808 153.057C335.808 152.064 316.984 148.708 315.119 148.708C314.578 148.708 314.045 148.815 313.561 149.021C313.077 149.226 312.657 149.525 312.332 149.892Z" fill="white" stroke="#263238" stroke-linecap="round" stroke-linejoin="round"/>
<path d="M314.654 165.323C314.654 165.323 328.153 168.882 336.063 169.475C343.973 170.067 349.786 168.685 347.232 168.29C344.678 167.895 322.332 164.533 314.654 165.323Z" fill="white" stroke="#263238" stroke-linecap="round" stroke-linejoin="round"/>
<path d="M304.654 159.19C304.654 159.19 305.815 160.578 317.216 162.947C323.826 164.375 330.671 164.845 337.464 164.335L337 160.177L308.153 155.235L304.654 159.19Z" fill="#263238" stroke="#263238" stroke-linecap="round" stroke-linejoin="round"/>
<path d="M344.167 230.813C344.167 230.813 348.881 239.045 348.354 247.059C347.828 255.074 338.671 257.936 333.695 258.403C328.718 258.87 311.187 255.304 306.504 252.843C301.821 250.382 288.965 244.829 288.965 244.829C288.965 244.829 295.622 247.138 298.253 268.55C298.516 270.728 302.123 281.433 304.523 282.368C309.616 284.342 310.126 285.848 308.818 288.52C307.51 291.191 301.752 300.976 299.917 302.535C298.083 304.095 289.182 303.851 288.137 303.647L287.092 303.424C287.092 303.424 288.64 301.647 290.235 300.087C291.829 298.528 293.114 294.968 293.114 292.968C293.114 290.968 293.493 287.632 292.711 284.736C291.93 281.841 271.674 247.5 269.05 243.052C266.426 238.604 265.18 231.965 266.728 231.037C271.179 228.365 295.258 229.721 304.414 230.813C313.571 231.906 315.668 232.373 315.668 232.373L341.582 232.82L344.167 230.813Z" fill="white" stroke="#263238" stroke-linecap="round" stroke-linejoin="round"/>
<path d="M288.942 244.829C288.942 244.829 285.01 242.065 283.733 241.414L288.942 244.829Z" fill="white"/>
<path d="M288.942 244.829C288.942 244.829 285.01 242.065 283.733 241.414" stroke="#263238" stroke-linecap="round" stroke-linejoin="round"/>
<path d="M348.354 247.059C348.881 239.045 344.167 230.813 344.167 230.813L341.551 232.82L315.637 232.373C315.637 232.373 314.515 232.136 310.366 231.577C312.897 236.538 316.048 245.993 309.004 253.87C315.661 256.173 329.391 258.791 333.695 258.403C338.672 257.936 347.828 255.067 348.354 247.059Z" fill="#088395" stroke="#263238" stroke-linecap="round" stroke-linejoin="round"/>
<path d="M322.263 240.657C325.289 241.453 329.074 242.434 331.682 243.026C336.69 244.158 339.028 242.736 339.028 241.887C339.028 241.039 342.031 242.736 342.031 239.617C342.085 237.988 341.861 236.362 341.365 234.788" stroke="#263238" stroke-linecap="round" stroke-linejoin="round"/>
<path d="M336.69 237.347C336.69 237.347 341.334 242.453 342.704 246.993" stroke="#263238" stroke-linecap="round" stroke-linejoin="round"/>
<path d="M317.34 239.334L319.352 239.874" stroke="#263238" stroke-linecap="round" stroke-linejoin="round"/>
<path d="M310.374 231.577C312.905 236.538 316.055 245.993 309.012 253.87C310.018 254.218 311.195 254.574 312.464 254.929C314.012 253.119 316.195 249.507 316.698 243.276C317.139 237.709 316.063 234.228 315.049 232.261C314.345 232.142 312.936 231.919 310.374 231.577Z" fill="white" stroke="#263238" stroke-linecap="round" stroke-linejoin="round"/>
<path d="M307.464 283.828C306.514 283.274 305.518 282.779 304.484 282.348C304.845 285.365 304.249 288.41 302.758 291.165C301.873 292.892 300.822 294.553 299.615 296.133C297.535 295.176 295.279 294.524 292.944 294.205C292.854 294.681 292.735 295.154 292.588 295.62C294.658 296.048 296.689 296.604 298.663 297.284C297.193 298.936 296.001 299.726 295.428 299.844C294.855 299.962 292.696 299.522 290.97 299.107C290.745 299.446 290.486 299.767 290.196 300.068C288.648 301.627 287.053 303.404 287.053 303.404L288.098 303.627C289.143 303.851 298.044 304.075 299.879 302.515C300.921 301.406 301.831 300.212 302.595 298.949C302.773 298.686 302.951 298.41 303.129 298.133C305.382 294.646 307.951 290.178 308.772 288.507C310.088 285.829 309.6 285.157 307.464 283.828Z" fill="#263238" stroke="#263238" stroke-linecap="round" stroke-linejoin="round"/>
<path d="M341.179 303.193H351.891L347.085 259.166C346.997 258.531 346.639 257.945 346.079 257.518C345.519 257.09 344.796 256.851 344.043 256.844H315.498C314.747 256.852 314.025 257.092 313.467 257.52C312.909 257.947 312.552 258.532 312.464 259.166L307.657 303.193H318.362L319.91 287.105H339.693L341.179 303.193ZM320.041 285.105L321.318 268.859H338.238L339.515 285.105H320.041Z" fill="#263238" stroke="#263238" stroke-linecap="round" stroke-linejoin="round"/>
<path d="M288.702 215.554L288.199 208.862H285.382L284.879 215.554C284.229 215.589 283.619 215.833 283.174 216.237C282.728 216.64 282.48 217.172 282.479 217.726V228.984C282.479 229.347 282.649 229.695 282.951 229.952C283.253 230.209 283.662 230.353 284.089 230.353H289.507C289.934 230.353 290.344 230.209 290.645 229.952C290.947 229.695 291.117 229.347 291.117 228.984V217.726C291.116 217.17 290.866 216.636 290.417 216.232C289.968 215.829 289.354 215.586 288.702 215.554Z" fill="#088395" stroke="#263238" stroke-linecap="round" stroke-linejoin="round"/>
<path d="M288.934 207.56H284.716V209.843H288.934V207.56Z" fill="#088395" stroke="#263238" stroke-linecap="round" stroke-linejoin="round"/>
<path d="M331.272 221.088L330.126 226.628C330.126 226.628 313.834 228.418 310.196 228.26C306.558 228.102 299.461 227.444 299.461 227.444C299.461 227.444 293.137 223.042 292.944 222.391C292.75 221.739 291.218 221.733 291.218 221.733V223.858C290.416 224.277 289.496 224.505 288.555 224.516C287.007 224.516 285.459 224.424 284.128 224.424C282.796 224.424 281.806 224.26 282.022 225.082C282.239 225.905 282.595 227.194 282.982 228.504C283.269 229.335 283.884 230.058 284.724 230.55C284.724 230.55 308.679 232.182 313.849 232.524C319.02 232.866 337.232 235.156 338.958 234.807H339.012C339.994 234.617 340.878 234.161 341.528 233.507C342.179 232.853 342.562 232.037 342.619 231.182L343.393 221.127L331.272 221.088Z" fill="white" stroke="#263238" stroke-linecap="round" stroke-linejoin="round"/>
<path d="M328.95 193.386C327.322 196.099 326.658 199.156 327.038 202.184C327.611 207.395 326.458 218.476 326.651 220.108C326.845 221.739 332.015 222.226 332.015 222.226H341.798C341.798 222.226 344.894 221.246 345.444 219.779C345.994 218.311 343.122 204.954 342.348 201.203C341.574 197.453 341.396 191.919 335.258 190.616" fill="white"/>
<path d="M328.95 193.386C327.322 196.099 326.658 199.156 327.038 202.184C327.611 207.395 326.458 218.476 326.651 220.108C326.845 221.739 332.015 222.226 332.015 222.226H341.798C341.798 222.226 344.894 221.246 345.444 219.779C345.994 218.311 343.122 204.954 342.348 201.203C341.574 197.453 341.396 191.919 335.258 190.616" stroke="#263238" stroke-linecap="round" stroke-linejoin="round"/>
<path d="M130.806 302.924H141.51L136.704 258.897C136.624 258.26 136.269 257.672 135.709 257.244C135.149 256.817 134.423 256.58 133.67 256.581H105.117C104.364 256.58 103.638 256.817 103.078 257.244C102.517 257.672 102.163 258.26 102.083 258.897L97.2764 302.924H107.981L109.529 286.835H129.258L130.806 302.924ZM109.668 284.835L110.945 268.596H127.857L129.134 284.835H109.668Z" fill="#263238" stroke="#263238" stroke-linecap="round" stroke-linejoin="round"/>
<path d="M153.67 174.706C153.67 174.706 160.574 175.364 161.851 179.706C163.128 184.049 161.851 197.301 161.851 203.164C161.851 209.027 162.362 218.37 161.851 223.799C161.34 229.227 161.34 246.171 161.851 246.829C162.362 247.487 157.207 247.697 157.207 247.697C157.207 247.697 153.376 232.274 152.61 225.536C151.843 218.798 152.099 204.48 152.099 204.48V174.488L153.67 174.706Z" fill="white" stroke="#263238" stroke-linecap="round" stroke-linejoin="round"/>
<path d="M157.246 247.698C157.246 247.698 162.362 247.48 161.89 246.829C161.418 246.178 161.379 229.234 161.89 223.799C162.401 218.364 161.89 209.027 161.89 203.164C161.89 201.401 162.006 198.959 162.13 196.301L152.176 196.597V204.493C152.176 204.493 151.921 218.831 152.687 225.549C153.453 232.267 157.246 247.698 157.246 247.698Z" fill="white" stroke="#263238" stroke-linecap="round" stroke-linejoin="round"/>
<path d="M156.224 186.872C156.224 190.129 154.676 198.604 154.181 201.427C153.685 204.25 140.868 226.549 140.868 226.549L108.701 229.234C108.701 229.234 109.475 209.244 109.722 202.078C109.97 194.913 112.532 184.049 115.086 181.226C117.64 178.404 134.885 177.673 134.885 177.673C134.885 177.673 149.839 173.837 152.137 174.488C154.436 175.14 155.713 175.574 156.48 176.877" fill="white"/>
<path d="M156.224 186.872C156.224 190.129 154.676 198.604 154.181 201.427C153.685 204.25 140.868 226.549 140.868 226.549L108.701 229.234C108.701 229.234 109.475 209.244 109.722 202.078C109.97 194.913 112.532 184.049 115.086 181.226C117.64 178.404 134.885 177.673 134.885 177.673C134.885 177.673 149.839 173.837 152.137 174.488C154.436 175.14 155.713 175.574 156.48 176.877" stroke="#263238" stroke-linecap="round" stroke-linejoin="round"/>
<path d="M134.955 177.153C134.955 177.153 131.085 178.127 131.317 180.081C131.549 182.036 139.939 193.452 143.964 196.373C147.989 199.295 147.602 182.555 147.602 182.555C147.602 182.555 144.343 176.344 134.955 177.153Z" fill="white" stroke="#263238" stroke-linecap="round" stroke-linejoin="round"/>
<path d="M144.475 183.398L143.19 188.392L147.532 183.398C146.519 183.264 145.488 183.264 144.475 183.398Z" fill="#263238" stroke="#263238" stroke-linecap="round" stroke-linejoin="round"/>
<path d="M117.052 256.877H129.66C129.66 256.877 134.08 257.949 139.544 251.514C145.009 245.079 149.846 228.642 149.846 228.642C149.846 228.642 137.021 234.005 130.922 240.44C124.823 246.875 117.052 256.877 117.052 256.877Z" fill="#263238" stroke="#263238" stroke-linecap="round" stroke-linejoin="round"/>
<path d="M106.913 221.845C106.496 221.954 106.088 222.083 105.69 222.233C101.13 223.982 97.4754 227.084 95.411 230.958C91.3242 238.341 95.9063 252.113 102.547 254.718C109.188 257.324 121.085 257.35 124.413 254.541C127.741 251.731 141.921 238.124 141.921 238.124L153.925 227.043C153.925 227.043 154.181 220.312 150.055 218.357C145.93 216.403 127.06 219.226 118.368 220.529C109.676 221.831 106.913 221.845 106.913 221.845Z" fill="#263238" stroke="#263238" stroke-linecap="round" stroke-linejoin="round"/>
<path d="M106.974 256.107C106.974 256.107 113.94 257.423 118.484 256.396C126.75 254.528 130.094 250.909 130.094 250.909" stroke="#737373" stroke-linecap="round" stroke-linejoin="round"/>
<path d="M149.901 151.57C149.901 151.57 142.811 145.385 135.342 145.221C127.873 145.056 116.557 155.972 116.557 161.013C116.557 166.053 120.581 168.349 120.202 170.139C119.823 171.929 119.242 173.396 117.516 173.396H115.024C115.024 173.396 119.815 179.588 125.945 180.726C132.075 181.865 135.342 180.726 136.108 179.752C137.85 177.351 139.387 174.847 140.705 172.258C142.045 169.488 145.876 164.112 147.795 163.783C149.715 163.454 151.665 164.441 151.665 166.882C151.665 169.323 152.819 171.442 156.077 171.119C159.336 170.797 162.586 163.296 161.441 157.433C160.295 151.57 154.506 147.339 149.901 151.57Z" fill="#263238" stroke="#263238" stroke-linecap="round" stroke-linejoin="round"/>
<path d="M152.068 159.69C152.068 159.69 154.188 163.513 154.188 165.309C154.12 166.892 153.942 168.469 153.654 170.034C153.654 170.034 155.775 172.054 155.775 172.955C155.775 173.857 152.865 175.199 152.865 175.199C153.095 177.621 152.247 180.028 150.489 181.944C147.579 184.865 143.345 183.293 140.969 182.167C138.592 181.042 134.885 177.673 134.885 177.673C134.439 176.018 134.626 174.284 135.419 172.725C136.735 170.034 139.908 166.658 144.405 164.171C148.902 161.684 151.015 161.493 152.068 159.69Z" fill="white" stroke="#263238" stroke-linecap="round" stroke-linejoin="round"/>
<path d="M149.591 169.764C149.591 170.343 149.266 170.81 148.863 170.81C148.461 170.81 148.089 170.343 148.089 169.764C148.089 169.185 148.414 168.724 148.863 168.724C149.312 168.724 149.591 169.159 149.591 169.764Z" fill="#263238"/>
<path d="M146.681 168.218C146.681 168.218 147.904 166.514 151.023 166.796" stroke="#263238" stroke-linecap="round" stroke-linejoin="round"/>
<path d="M146.015 176.173C147.4 177.113 149.146 177.582 150.915 177.489" stroke="#263238" stroke-linecap="round" stroke-linejoin="round"/>
<path d="M140.303 227.069C136.548 229.412 133.982 232.882 133.128 236.775C131.882 243.151 131.518 261.779 130.45 269.806C129.382 277.834 125.93 286.71 123.259 289.592C120.589 292.474 111.51 298.074 112.044 300.364C112.578 302.654 116.146 304.161 120.79 303.707C125.434 303.252 130.961 299.607 132.4 293.994C133.84 288.382 141.774 274.031 144.274 267.049C146.774 260.068 149.777 250.889 150.466 242.848C151.154 234.807 151.363 225.247 140.303 227.069Z" fill="white" stroke="#263238" stroke-linecap="round" stroke-linejoin="round"/>
<path d="M140.303 227.069C136.547 229.412 133.982 232.882 133.128 236.775C131.882 243.151 131.518 261.779 130.45 269.806C130.326 270.754 130.164 271.708 129.978 272.669C133.443 274.008 137.237 274.62 141.038 274.452C142.354 271.636 143.515 269.043 144.227 267.049C146.727 260.075 149.73 250.889 150.419 242.848C151.108 234.807 151.363 225.247 140.303 227.069Z" fill="#263238" stroke="#263238" stroke-linecap="round" stroke-linejoin="round"/>
<path d="M136.224 229.227C134.411 233.657 132.983 238.194 131.951 242.802C130.62 249.382 130.729 260.713 130.729 260.713" stroke="#737373" stroke-linecap="round" stroke-linejoin="round"/>
<path d="M132.354 291.415C132.354 291.415 132.176 289.441 129.142 287.776C126.108 286.112 123.794 288.987 123.794 288.987C123.615 289.198 123.445 289.402 123.267 289.592C120.589 292.474 111.487 298.094 112.021 300.364C112.555 302.634 116.123 304.161 120.767 303.706C125.411 303.252 130.938 299.607 132.377 293.994C132.602 293.139 132.934 292.073 133.36 290.856L132.354 291.415Z" fill="#088395" stroke="#263238" stroke-linecap="round" stroke-linejoin="round"/>
<path d="M139.877 224.668C139.622 230.676 141.113 236.644 144.219 242.045C149.328 250.52 163.902 273.787 163.902 273.787V282.282C163.902 283.809 169.529 287.066 172.85 288.803C176.17 290.54 183.577 292.928 185.621 292.494C187.664 292.06 189.491 290.52 188.438 288.369C187.385 286.217 176.681 275.985 175.404 273.814C174.127 271.642 169.305 262.707 168.028 258.581C166.751 254.455 160.574 232.735 158.523 227.3C156.472 221.864 154.436 218.18 151.627 217.528C148.817 216.877 141.921 218.614 140.133 219.502" fill="#263238"/>
<path d="M139.877 224.668C139.622 230.676 141.113 236.644 144.219 242.045C149.328 250.52 163.902 273.787 163.902 273.787V282.282C163.902 283.809 169.529 287.066 172.85 288.803C176.17 290.54 183.577 292.928 185.621 292.494C187.664 292.06 189.491 290.52 188.438 288.369C187.385 286.217 176.681 275.985 175.404 273.814C174.127 271.642 169.305 262.707 168.028 258.581C166.751 254.455 160.574 232.735 158.523 227.3C156.472 221.864 154.436 218.18 151.627 217.528C148.817 216.877 141.921 218.614 140.133 219.502" stroke="#263238" stroke-linecap="round" stroke-linejoin="round"/>
<path d="M142.315 224.029C142.315 224.029 139.622 236.373 148.987 250.494" stroke="#737373" stroke-linecap="round" stroke-linejoin="round"/>
<path d="M175.404 273.787C174.127 271.616 169.305 262.68 168.028 258.554C168.028 258.462 167.966 258.351 167.935 258.239C164.22 259.934 160.084 260.855 155.868 260.923C160.203 267.872 163.902 273.787 163.902 273.787V282.282C163.902 283.809 169.529 287.066 172.85 288.803C176.17 290.54 183.577 292.928 185.621 292.494C187.664 292.06 189.491 290.52 188.438 288.368C187.385 286.217 176.681 275.959 175.404 273.787Z" fill="white" stroke="#263238" stroke-linecap="round" stroke-linejoin="round"/>
<path d="M175.404 273.787C175.28 273.577 175.11 273.267 174.909 272.873C170.76 274.353 170.04 278.564 170.04 278.564L163.902 273.787V282.282C163.902 283.809 169.529 287.066 172.85 288.803C176.17 290.54 183.577 292.928 185.621 292.494C187.664 292.06 189.491 290.52 188.438 288.368C187.385 286.217 176.681 275.959 175.404 273.787Z" fill="#088395" stroke="#263238" stroke-linecap="round" stroke-linejoin="round"/>
<path d="M178.213 288.994C173.011 287.026 168.186 284.404 163.902 281.216V282.282C163.902 283.809 169.529 287.066 172.85 288.803C176.17 290.54 183.577 292.928 185.621 292.494C187.532 292.086 189.212 290.737 188.601 288.796C187.424 290.217 184.762 291.31 178.213 288.994Z" fill="white" stroke="#263238" stroke-linecap="round" stroke-linejoin="round"/>
<path d="M120.968 179.489C120.968 179.489 112.787 178.831 109.211 182.779C105.635 186.727 104.103 194.071 104.103 198.637C104.103 203.204 102.826 222.746 103.592 224.049C104.358 225.352 151.371 219.055 152.354 218.838C153.337 218.62 158.747 227.523 159.258 228.181C159.769 228.839 160.032 231.873 160.032 232.958C160.032 234.044 164.119 231.438 164.119 231.438C164.018 229.037 163.759 226.643 163.345 224.266C162.114 219.581 159.096 217.423 154.142 215.581L118.917 213.192L121.239 193.419" fill="white"/>
<path d="M120.968 179.489C120.968 179.489 112.787 178.831 109.211 182.779C105.635 186.727 104.103 194.071 104.103 198.637C104.103 203.204 102.826 222.746 103.592 224.049C104.358 225.352 151.371 219.055 152.354 218.838C153.337 218.621 158.747 227.523 159.258 228.181C159.769 228.839 160.032 231.873 160.032 232.958C160.032 234.044 164.119 231.438 164.119 231.438C164.018 229.037 163.759 226.643 163.345 224.266C162.114 219.581 159.096 217.423 154.142 215.581L118.917 213.192L121.239 193.419" stroke="#263238" stroke-linecap="round" stroke-linejoin="round"/>
<path d="M154.181 215.548L118.917 213.192L119.614 202.664L103.995 201.848C103.701 207.553 102.965 222.983 103.592 224.049C104.366 225.365 151.371 219.055 152.354 218.838C153.337 218.62 158.747 227.523 159.258 228.181C159.769 228.839 160.032 231.873 160.032 232.958C160.032 234.044 164.119 231.438 164.119 231.438C164.018 229.037 163.759 226.643 163.345 224.266C162.153 219.548 159.134 217.39 154.181 215.548Z" fill="white" stroke="#263238" stroke-linecap="round" stroke-linejoin="round"/>
<path d="M117.47 302.167C114.459 301.028 113.6 299.265 113.399 297.916C112.462 298.896 111.897 299.752 112.044 300.364C112.578 302.64 116.146 304.16 120.79 303.706C124.041 303.384 127.756 301.496 130.133 298.442C126.061 301.364 121.092 303.535 117.47 302.167Z" fill="white" stroke="#263238" stroke-linecap="round" stroke-linejoin="round"/>
<path d="M104.366 121.664L103.778 113.834H100.496L99.9156 121.644C99.1579 121.683 98.4461 121.966 97.9254 122.435C97.4047 122.905 97.1144 123.526 97.1138 124.171V137.331C97.1138 137.755 97.3119 138.162 97.6646 138.462C98.0174 138.762 98.4958 138.93 98.9946 138.93H105.264C105.763 138.93 106.241 138.762 106.594 138.462C106.947 138.162 107.145 137.755 107.145 137.331V124.171C107.139 123.532 106.849 122.919 106.334 122.454C105.819 121.99 105.116 121.707 104.366 121.664Z" fill="#088395" stroke="#263238" stroke-linecap="round" stroke-linejoin="round"/>
<path d="M104.598 112.334H99.6835V114.992H104.598V112.334Z" fill="#088395" stroke="#263238" stroke-linecap="round" stroke-linejoin="round"/>
<path d="M52.2914 231.425C52.2914 231.425 53.4756 239.657 50.8749 243.875C48.2743 248.092 43.5529 257.732 43.3207 265.589C43.0885 273.445 42.8408 293.883 42.8408 296.107C42.8408 298.331 40.9523 301.93 42.8408 302.733C44.7294 303.535 61.2698 303.331 61.2698 303.331C61.2698 303.331 70.2404 304.134 69.7838 301.726C69.3271 299.318 55.6118 295.1 54.6675 293.698C53.7233 292.297 54.9771 290.296 55.2093 288.691C55.4415 287.085 55.1397 277.031 57.7403 268.997C60.341 260.963 65.2946 256.153 66.0066 247.112C66.7187 238.071 67.4231 233.465 67.4231 233.465L52.2914 231.425Z" fill="#263238" stroke="#263238" stroke-linecap="round" stroke-linejoin="round"/>
<path d="M54.6521 293.672C54.536 293.494 54.4199 293.297 54.3116 293.093L53.4756 294.876L53.2357 296.278C53.2357 296.278 47.4617 296.567 42.8254 296.409C42.6706 298.633 41.0452 301.936 42.8254 302.706C44.6056 303.476 61.2543 303.305 61.2543 303.305C61.2543 303.305 70.225 304.108 69.7683 301.7C69.3117 299.291 55.5964 295.073 54.6521 293.672Z" fill="#263238" stroke="#263238" stroke-linecap="round" stroke-linejoin="round"/>
<path d="M66.6955 302.101C58.793 302.101 46.3161 301.443 42.0126 301.186C41.9724 301.476 42.0287 301.77 42.1751 302.034C42.3215 302.298 42.5522 302.522 42.8408 302.68C44.7371 303.483 61.2698 303.279 61.2698 303.279C61.2698 303.279 69.1413 303.983 69.7838 302.094L66.6955 302.101Z" fill="#263238" stroke="#263238" stroke-linecap="round" stroke-linejoin="round"/>
<path d="M56.7807 232.307C56.7807 232.307 57.0129 239.736 57.0129 241.341C57.0129 242.947 51.3472 250.376 51.3472 257.607C51.3472 264.838 54.6521 287.592 55.3642 290.803C56.0763 294.014 54.18 301.246 54.18 301.246C54.18 301.246 53.4757 303.048 57.7249 303.45C61.9742 303.851 81.8118 303.851 83.2669 303.654C84.722 303.456 85.8676 300.844 83.979 299.64C82.0904 298.436 68.3906 295.218 67.4464 293.014C66.5021 290.81 69.095 255.995 71.6956 250.178C74.2963 244.361 74.9619 240.17 75.674 234.906C76.3861 229.642 56.7807 232.307 56.7807 232.307Z" fill="white" stroke="#263238" stroke-linecap="round" stroke-linejoin="round"/>
<path d="M83.9402 299.64C82.1446 298.495 69.7373 295.547 67.6862 293.363C67.5188 293.834 67.4353 294.324 67.4386 294.817V297.83C67.4386 297.83 60.9602 297.205 55.132 296.857C54.7372 299.232 54.2109 301.246 54.2109 301.246C54.2109 301.246 53.5066 303.048 57.7558 303.45C62.0051 303.851 81.8427 303.851 83.2978 303.654C84.7529 303.456 85.8288 300.844 83.9402 299.64Z" fill="white" stroke="#263238" stroke-linecap="round" stroke-linejoin="round"/>
<path d="M83.2282 303.654C83.6026 303.554 83.9409 303.374 84.2116 303.133C84.4823 302.891 84.6766 302.595 84.7762 302.272C74.5651 302.62 64.3376 302.317 54.18 301.364C54.1103 301.765 54.18 303.121 57.7558 303.456C61.9741 303.851 81.8118 303.851 83.2282 303.654Z" fill="white" stroke="#263238" stroke-linecap="round" stroke-linejoin="round"/>
<path d="M85.2638 158.13C85.2638 158.13 92.3381 171.672 94.1106 173.922C96.0618 176.714 97.1284 179.888 97.2066 183.134C97.2066 186.148 97.6478 189.53 95.6586 190.846C93.6925 192.006 91.3776 192.663 88.9867 192.741C87.9728 192.741 87.4387 192.083 86.7653 191.642C86.3959 191.442 86.1007 191.157 85.9139 190.82C85.7359 190.432 87.7328 189.747 88.7932 189.149C90.7824 188.017 90.5657 184.819 90.5657 184.819C90.5657 184.819 88.1276 182.562 87.6864 180.312C87.4299 178.815 87.4299 177.295 87.6864 175.798L81.4944 169.402L85.2638 158.13Z" fill="white" stroke="#263238" stroke-linecap="round" stroke-linejoin="round"/>
<path d="M89.0099 192.748C89.0099 192.748 87.4619 192.36 88.8319 191.827C89.6059 191.504 91.3552 191.169 91.9821 190.675C92.9257 190.017 93.5646 189.097 93.7855 188.076C93.8784 187.004 93.8784 186.385 93.8784 186.385" stroke="#263238" stroke-linecap="round" stroke-linejoin="round"/>
<path d="M87.5471 191.906C87.5471 191.906 86.8273 191.136 87.64 190.754C88.4527 190.373 90.4264 190.096 90.9682 189.682C91.51 189.267 92.3227 187.227 92.4156 186.464" stroke="#263238" stroke-linecap="round" stroke-linejoin="round"/>
<path d="M85.9139 190.82C85.9139 190.82 86.8195 189.899 87.3613 189.82C88.1376 189.591 88.8909 189.31 89.6137 188.978C90.2406 188.747 90.8753 187.754 91.1617 186.148" stroke="#263238" stroke-linecap="round" stroke-linejoin="round"/>
<path d="M91.4557 177.311C91.4557 177.311 89.9077 180.7 91.239 182.391C92.5703 184.082 93.4449 185.023 93.6694 185.964C93.8938 186.905 92.787 190.662 94.5517 190.853C96.3165 191.044 95.6586 188.405 95.883 185.023C96.1075 181.641 97.2066 180.325 95.6586 177.127" fill="white"/>
<path d="M91.4557 177.311C91.4557 177.311 89.9077 180.7 91.239 182.391C92.5703 184.082 93.4449 185.023 93.6694 185.964C93.8938 186.905 92.787 190.662 94.5517 190.853C96.3165 191.044 95.6586 188.405 95.883 185.023C96.1075 181.641 97.2066 180.325 95.6586 177.127" stroke="#263238" stroke-linecap="round" stroke-linejoin="round"/>
<path d="M45.7589 171.277C45.7589 171.277 44.3734 178.364 45.3641 182.746C46.1449 185.75 47.4135 188.647 49.1335 191.353C49.1335 191.353 45.7589 220.029 45.7589 223.911C45.7589 227.793 45.5576 230.662 45.5576 230.662C45.5576 230.662 52.7016 235.722 65.0082 235.886C77.3148 236.051 86.835 235.551 86.835 235.551L84.8536 191.182L86.2391 175.324C86.2391 175.324 65.6042 175.831 59.2497 174.666C54.6828 173.748 50.179 172.617 45.7589 171.277Z" fill="#088395" stroke="#263238" stroke-linecap="round" stroke-linejoin="round"/>
<path d="M62.4308 176.509C62.4308 176.509 61.6568 184.773 62.0283 189.011C62.3999 193.248 61.8348 205.039 61.8348 206.217V207.902" stroke="#263238" stroke-linecap="round" stroke-linejoin="round"/>
<path d="M70.9602 178.364C70.9602 178.364 71.5562 185.786 63.0267 188.82" stroke="#263238" stroke-linecap="round" stroke-linejoin="round"/>
<path d="M51.5174 210.922C51.5174 210.922 50.1242 222.562 49.7295 224.589C49.3348 226.615 55.6816 229.142 63.8163 230.32C71.951 231.498 77.9031 230.32 79.0951 228.635C80.287 226.951 78.4991 212.777 78.4991 212.777C78.4991 212.777 62.0284 213.113 51.5174 210.922Z" fill="#088395" stroke="#263238" stroke-linecap="round" stroke-linejoin="round"/>
<path d="M51.3161 206.198C55.6885 207.701 60.3114 208.611 65.0159 208.895C70.0337 209.199 75.0679 209.256 80.0935 209.066V215.475C75.555 215.983 70.9783 216.203 66.4014 216.133C61.0172 216.128 55.6884 215.209 50.7279 213.429L51.3161 206.198Z" fill="#088395" stroke="#263238" stroke-linecap="round" stroke-linejoin="round"/>
<path d="M46.1536 228.129C46.1536 228.129 53.8936 232.011 66.5949 233.018C79.2962 234.024 85.0471 232.853 85.0471 232.853" stroke="#263238" stroke-linecap="round" stroke-linejoin="round"/>
<path d="M73.4835 111.057C73.4835 111.057 80.4495 117.604 83.2437 122.546C86.2556 127.744 87.6139 133.522 87.1833 139.305C86.8118 145.846 86.061 166.112 86.4093 168.185C86.7576 170.257 86.5951 177.12 86.5951 177.12C86.5951 177.12 84.5363 177.601 71.9588 178.081C59.3813 178.561 45.1164 173.133 45.1164 173.133C45.1164 173.133 44.9307 167.704 45.4957 165.316C46.0607 162.927 46.2697 152.709 46.2697 152.709C46.2697 152.709 43.8239 129.731 43.8239 120.954C43.8239 112.176 55.4339 105.635 55.4339 105.635L73.4835 111.057Z" fill="white" stroke="#263238" stroke-linecap="round" stroke-linejoin="round"/>
<path d="M80.2405 97.9762C80.2405 97.9762 76.4866 100.845 75.9216 103.082C75.3566 105.319 74.9851 112.656 74.9851 112.656L56.0298 101.47L56.5871 97.0023C56.5871 97.0023 53.0267 89.6656 58.0887 86.7902C63.1506 83.9147 72.0207 84.2371 75.3566 88.8629C77.4231 91.7166 79.0637 94.7779 80.2405 97.9762Z" fill="white" stroke="#263238" stroke-linecap="round" stroke-linejoin="round"/>
<path d="M74.7683 67.3595C74.7683 67.3595 76.9123 67.9188 78.7312 70.8732C80.5501 73.8276 82.369 78.3152 83.1894 79.164C84.0099 80.0128 87.6554 81.138 87.6554 82.1118C87.6554 83.0857 84.8458 85.7637 84.8458 85.7637C84.8458 85.7637 84.8458 91.6857 85.9991 92.9293C87.1523 94.173 87.4929 97.4235 84.6833 98.5487C81.8736 99.6738 79.8845 99.3909 75.2637 97.8446C70.6429 96.2983 66.6645 95.8706 66.6645 92.6464C66.6645 89.4222 64.0252 84.6385 63.8549 83.5134C63.6846 82.3882 64.6831 77.4729 67.4927 73.117C70.3023 68.761 73.112 66.9383 74.7683 67.3595Z" fill="white" stroke="#263238" stroke-linecap="round" stroke-linejoin="round"/>
<path d="M84.6833 98.5487C87.4929 97.4235 87.1601 94.1927 85.9991 92.9293C84.1879 94.6138 84.1879 96.1601 79.3891 95.6008C74.5903 95.0415 69.6599 93.7716 68.9788 92.2253C68.2977 90.679 65.1785 80.9866 65.1785 80.9866L64.2419 80.8221C63.9884 81.7026 63.8687 82.607 63.8859 83.5134C64.0562 84.6385 66.6955 89.4354 66.6955 92.6464C66.6955 95.8574 70.6661 96.2983 75.2947 97.8446C79.9232 99.3909 81.8737 99.6738 84.6833 98.5487Z" fill="#263238" stroke="#263238" stroke-linecap="round" stroke-linejoin="round"/>
<path d="M75.9216 80.9866C76.2884 80.5014 76.8074 80.113 77.4202 79.8653C78.0329 79.6176 78.7149 79.5206 79.3892 79.5851" stroke="#263238" stroke-linecap="round" stroke-linejoin="round"/>
<path d="M78.5686 75.5055C78.5686 75.5055 75.9216 73.821 74.1027 76.6306" stroke="#263238" stroke-linecap="round" stroke-linejoin="round"/>
<path d="M83.8551 88.0141C83.8551 88.0141 81.5331 89.2775 78.7312 87.3101" stroke="#263238" stroke-linecap="round" stroke-linejoin="round"/>
<path d="M75.2637 68.0635C75.2637 68.0635 76.9123 67.6424 76.2544 64.5498C75.5965 61.4572 63.6924 59.0686 52.1211 62.0231C40.5498 64.9775 37.9105 72.5511 38.9012 79.8614C39.8919 87.1718 50.4725 94.752 52.1211 95.3179C52.1211 95.3179 51.9586 98.2657 50.9679 98.4105C50.4656 98.4734 49.9691 98.5657 49.4818 98.6868C49.4818 98.6868 49.4818 99.1079 53.2821 99.9502C57.0825 100.792 58.7001 99.5291 58.7001 99.5291V101.075C58.7001 101.075 60.8519 101.641 63.0036 99.812C65.1553 97.9828 63.9943 92.5082 63.4989 91.383C63.0036 90.2578 61.8426 87.8693 61.3472 86.4678C60.8519 85.0662 65.8132 85.3426 66.4711 82.6711C67.129 79.9996 66.1383 80.4273 68.29 78.7231C70.4417 77.0189 71.595 75.216 71.386 72.8011C71.177 70.3862 75.2637 68.0635 75.2637 68.0635Z" fill="#263238" stroke="#263238" stroke-linecap="round" stroke-linejoin="round"/>
<path d="M44.3889 89.8367C42.8069 89.9141 41.2947 90.4164 40.0699 91.2711C38.0034 92.7056 38.3826 96.0614 40.4492 97.6537C42.5158 99.2461 43.8238 99.733 43.4523 100.371C43.0808 101.01 44.3889 102.286 46.2697 100.687C48.1505 99.0882 49.2728 95.4231 47.392 93.6662C45.5112 91.9094 45.7047 90.4749 45.7047 90.4749L44.3889 89.8367Z" fill="#263238" stroke="#263238" stroke-linecap="round" stroke-linejoin="round"/>
<path d="M59.4044 85.8492C59.4044 85.8492 57.5314 90.4552 48.7078 90.4552" stroke="#737373" stroke-linecap="round" stroke-linejoin="round"/>
<path d="M49.6443 91.9094C49.6443 91.9094 53.3982 93.3439 59.0329 90.6329" stroke="#737373" stroke-linecap="round" stroke-linejoin="round"/>
<path d="M65.1785 86.0466C65.1785 86.0466 64.3503 83.3751 61.7109 83.3751C59.0716 83.3751 59.3889 87.8693 61.3781 90.8237C63.3673 93.7781 66.7961 90.5407 66.7961 90.1196" fill="white"/>
<path d="M65.1785 86.0466C65.1785 86.0466 64.3503 83.3751 61.7109 83.3751C59.0716 83.3751 59.3889 87.8693 61.3781 90.8237C63.3673 93.7781 66.7961 90.5407 66.7961 90.1196" stroke="#263238" stroke-linecap="round" stroke-linejoin="round"/>
<path d="M56.0299 99.733C56.0299 99.733 74.6059 109.603 75.7359 110.419C76.8659 111.235 74.2343 117.92 74.2343 117.92L53.406 106.596C53.406 106.596 54.5283 100.845 56.0299 99.733Z" fill="white" stroke="#263238" stroke-linecap="round" stroke-linejoin="round"/>
<path d="M50.7743 113.136C50.7743 113.136 47.0204 116.163 46.2696 123.349C45.5189 130.534 55.279 162.598 56.7806 163.401C57.8748 163.906 59.0961 164.179 60.341 164.197L92.849 142.233C92.849 142.233 103.352 139.654 105.543 138.877C107.733 138.101 109.18 135.285 108.964 132.738C108.747 130.192 109.854 127.882 108.19 127.988C106.526 128.093 104.072 128.251 102.207 128.527C100.341 128.803 96.27 128.185 96.27 128.185C96.27 128.185 93.2282 129.093 93.0192 131.027C92.6487 133.057 92.1318 135.066 91.4712 137.042L67.663 147.122L65.7899 120.473" fill="white"/>
<path d="M50.7743 113.136C50.7743 113.136 47.0204 116.163 46.2696 123.349C45.5189 130.534 55.279 162.598 56.7806 163.401C57.8748 163.906 59.0961 164.179 60.341 164.197L92.849 142.233C92.849 142.233 103.352 139.654 105.543 138.877C107.733 138.101 109.18 135.285 108.964 132.738C108.747 130.192 109.854 127.882 108.19 127.988C106.526 128.093 104.072 128.251 102.207 128.527C100.341 128.803 96.27 128.185 96.27 128.185C96.27 128.185 93.2282 129.093 93.0192 131.027C92.6487 133.057 92.1318 135.066 91.4712 137.042L67.663 147.122L65.7899 120.473" stroke="#263238" stroke-linecap="round" stroke-linejoin="round"/>
<path d="M108.948 132.738C108.724 130.192 109.838 127.882 108.174 127.988C106.51 128.093 104.057 128.251 102.191 128.527C100.326 128.804 96.2546 128.185 96.2546 128.185C96.2546 128.185 93.2128 129.093 93.0038 131.028C92.6333 133.057 92.1163 135.066 91.4558 137.042L67.6631 147.122L67.1677 140.095L50.5499 145.313C53.1196 154.525 56.0144 162.993 56.7419 163.401C57.8361 163.906 59.0575 164.179 60.3023 164.197L92.8103 142.233C92.8103 142.233 103.314 139.654 105.504 138.877C107.694 138.101 109.134 135.285 108.948 132.738Z" fill="white" stroke="#263238" stroke-linecap="round" stroke-linejoin="round"/>
<path d="M17.7323 303.785H371.884" stroke="#263238" stroke-linecap="round" stroke-linejoin="round"/>
</svg>
