<svg width="44" height="48" viewBox="0 0 44 48" fill="none" xmlns="http://www.w3.org/2000/svg">
<path fill-rule="evenodd" clip-rule="evenodd" d="M1 1.5V10.6713C1 10.8603 1.02667 11.0455 1.07735 11.2223H42.9226C42.9733 11.0455 43 10.8603 43 10.6713V1.5C43 1.22386 42.7761 1 42.5 1H1.5C1.22386 1 1 1.22386 1 1.5ZM42.9095 11.2664L22 21.4445L1.09054 11.2664C1.23762 11.7382 1.55693 12.1465 1.99678 12.4015L21.5674 23.7492C21.654 23.6003 21.8153 23.5002 22 23.5002C22.1847 23.5002 22.346 23.6003 22.4326 23.7492L42.0032 12.4015C42.4431 12.1465 42.7624 11.7382 42.9095 11.2664ZM21.5 24.2899L1.99678 35.5985C1.3798 35.9563 1 36.6155 1 37.3287V46.5C1 46.7761 1.22386 47 1.5 47H7.14151C7.06258 46.9956 6.99993 46.9303 6.99993 46.8502V42.1951C6.99993 42.0073 7.10516 41.8353 7.27238 41.7499L21.5 34.478V24.2899ZM36.8584 47C36.9373 46.9956 36.9999 46.9303 36.9999 46.8502V42.1951C36.9999 42.0073 36.8947 41.8353 36.7275 41.7499L22.5 34.478V24.2899L42.0032 35.5985C42.6202 35.9563 43 36.6155 43 37.3287V46.5C43 46.7761 42.7761 47 42.5 47H36.8584Z" fill="#088395"/>
<path d="M22 24L42.0032 35.5985C42.6202 35.9563 43 36.6155 43 37.3287V46.5C43 46.7761 42.7761 47 42.5 47H1.5C1.22386 47 1 46.7761 1 46.5V37.3287C1 36.6155 1.3798 35.9563 1.99678 35.5985L22 24ZM22 24L42.0032 12.4015C42.6202 12.0437 43 11.3845 43 10.6713V1.5C43 1.22386 42.7761 1 42.5 1H1.5C1.22386 1 1 1.22386 1 1.5V10.6713C1 11.3845 1.37979 12.0437 1.99678 12.4015L22 24Z" stroke="#088395" stroke-width="2" stroke-linecap="round" stroke-linejoin="round"/>
</svg>
