<svg width="50" height="50" viewBox="0 0 50 50" fill="none" xmlns="http://www.w3.org/2000/svg">
<path d="M30.3572 1.78577H19.6429C17.6704 1.78577 16.0714 3.38475 16.0714 5.3572V7.14291C16.0714 9.11534 17.6704 10.7143 19.6429 10.7143H30.3572C32.3296 10.7143 33.9286 9.11534 33.9286 7.14291V5.3572C33.9286 3.38475 32.3296 1.78577 30.3572 1.78577Z" stroke="#088395" stroke-width="2" stroke-linecap="round" stroke-linejoin="round"/>
<path d="M34.8214 5.35718H40.1786C41.1257 5.35718 42.0343 5.73346 42.7039 6.40321C43.3736 7.073 43.75 7.98139 43.75 8.92861V44.6429C43.75 45.59 43.3736 46.4986 42.7039 47.1682C42.0343 47.8379 41.1257 48.2143 40.1786 48.2143H9.82143C8.87421 48.2143 7.96582 47.8379 7.29604 47.1682C6.62629 46.4986 6.25 45.59 6.25 44.6429V8.92861C6.25 7.98139 6.62629 7.073 7.29604 6.40321C7.96582 5.73346 8.87421 5.35718 9.82143 5.35718H15.1786" stroke="#088395" stroke-width="2" stroke-linecap="round" stroke-linejoin="round"/>
<path d="M17.8571 32.1429L23.2143 35.7143L33.9286 21.4286" stroke="#088395" stroke-width="2" stroke-linecap="round" stroke-linejoin="round"/>
</svg>
