<svg width="50" height="50" viewBox="0 0 50 50" fill="none" xmlns="http://www.w3.org/2000/svg">
<path d="M6.25 14.3334C6.25 11.5049 6.25 10.0907 7.12868 9.21205C8.00736 8.33337 9.42157 8.33337 12.25 8.33337H40.75C43.5784 8.33337 44.9926 8.33337 45.8713 9.21205C46.75 10.0907 46.75 11.5049 46.75 14.3334V20.2696C46.75 20.9124 46.75 21.2339 46.6077 21.4712C46.5232 21.6123 46.4052 21.7303 46.2641 21.8149C46.0267 21.9571 45.7053 21.9571 45.0625 21.9571H44.5413C43.1047 21.9571 42.3864 21.9571 41.8221 22.198C41.111 22.5016 40.5445 23.0681 40.2409 23.7792C40 24.3435 40 25.0618 40 26.4984V26.4984C40 27.9349 40 28.6532 40.2409 29.2175C40.5445 29.9287 41.111 30.4951 41.8221 30.7987C42.3864 31.0396 43.1047 31.0396 44.5413 31.0396H45.0625C45.7053 31.0396 46.0267 31.0396 46.2641 31.1819C46.4052 31.2664 46.5232 31.3845 46.6077 31.5255C46.75 31.7629 46.75 32.0843 46.75 32.7271V38.6634C46.75 41.4918 46.75 42.906 45.8713 43.7847C44.9926 44.6634 43.5784 44.6634 40.75 44.6634H12.25C9.42157 44.6634 8.00736 44.6634 7.12868 43.7847C6.25 42.906 6.25 41.4918 6.25 38.6634V32.7271C6.25 32.0843 6.25 31.7629 6.39227 31.5255C6.47682 31.3845 6.59484 31.2664 6.7359 31.1819C6.97326 31.0396 7.29468 31.0396 7.9375 31.0396H8.45875C9.89531 31.0396 10.6136 31.0396 11.1779 30.7987C11.889 30.4951 12.4555 29.9287 12.7591 29.2175C13 28.6532 13 27.9349 13 26.4984V26.4984C13 25.0618 13 24.3435 12.7591 23.7792C12.4555 23.0681 11.889 22.5016 11.1779 22.198C10.6136 21.9571 9.89531 21.9571 8.45875 21.9571H7.9375C7.29468 21.9571 6.97326 21.9571 6.7359 21.8149C6.59484 21.7303 6.47682 21.6123 6.39227 21.4712C6.25 21.2339 6.25 20.9124 6.25 20.2696V14.3334Z" stroke="#088395" stroke-width="2"/>
<path d="M25.1183 22.2679C25.4685 21.3617 25.6437 20.9086 25.9282 20.8458C26.003 20.8292 26.0803 20.8292 26.1551 20.8458C26.4397 20.9086 26.6148 21.3617 26.9651 22.2679C27.1643 22.7832 27.2639 23.0409 27.4502 23.2161C27.5025 23.2653 27.5592 23.309 27.6197 23.3468C27.835 23.4816 28.1039 23.5066 28.6417 23.5565C29.5521 23.6411 30.0072 23.6834 30.1462 23.9528C30.175 24.0086 30.1946 24.069 30.2041 24.1315C30.2502 24.4332 29.9156 24.7492 29.2464 25.381L29.0605 25.5565C28.7476 25.8519 28.5912 25.9996 28.5007 26.1839C28.4464 26.2945 28.41 26.4136 28.393 26.5364C28.3645 26.7412 28.4103 26.9555 28.502 27.384L28.5347 27.5371C28.699 28.3057 28.7812 28.6899 28.6786 28.8788C28.5865 29.0485 28.4168 29.1571 28.2294 29.1664C28.0207 29.1767 27.7267 28.9281 27.1386 28.4308C26.7512 28.1032 26.5574 27.9394 26.3424 27.8754C26.1459 27.8169 25.9375 27.8169 25.7409 27.8754C25.5259 27.9394 25.3322 28.1032 24.9447 28.4308C24.3567 28.9281 24.0626 29.1767 23.854 29.1664C23.6665 29.1571 23.4968 29.0485 23.4047 28.8788C23.3022 28.6899 23.3843 28.3057 23.5486 27.5371L23.5814 27.384C23.673 26.9555 23.7188 26.7412 23.6904 26.5364C23.6733 26.4136 23.6369 26.2945 23.5826 26.1839C23.4921 25.9996 23.3357 25.8519 23.0228 25.5565L22.837 25.381C22.1677 24.7492 21.8331 24.4332 21.8792 24.1315C21.8887 24.069 21.9083 24.0086 21.9371 23.9528C22.0761 23.6834 22.5313 23.6411 23.4416 23.5565C23.9794 23.5066 24.2483 23.4816 24.4637 23.3468C24.5241 23.309 24.5808 23.2653 24.6331 23.2161C24.8195 23.0409 24.9191 22.7832 25.1183 22.2679Z" fill="#088395" stroke="#088395"/>
</svg>
