<svg width="50" height="50" viewBox="0 0 50 50" fill="none" xmlns="http://www.w3.org/2000/svg">
<circle cx="25" cy="18.75" r="3.16667" stroke="#088395" stroke-width="2" stroke-linecap="round"/>
<path d="M32.6743 17.1667C33.0942 16.4394 33.7858 15.9086 34.5971 15.6913C35.4083 15.4739 36.2727 15.5877 37 16.0076C37.7273 16.4276 38.2581 17.1192 38.4754 17.9304C38.6928 18.7417 38.579 19.606 38.1591 20.3334C37.7392 21.0607 37.0475 21.5914 36.2363 21.8088C35.425 22.0262 34.5607 21.9124 33.8333 21.4925C33.106 21.0725 32.5753 20.3809 32.3579 19.5696C32.1405 18.7584 32.2543 17.894 32.6743 17.1667L32.6743 17.1667Z" stroke="#088395" stroke-width="2"/>
<path d="M11.8409 17.1667C12.2608 16.4394 12.9525 15.9086 13.7637 15.6913C14.575 15.4739 15.4393 15.5877 16.1667 16.0076C16.894 16.4276 17.4247 17.1192 17.6421 17.9304C17.8595 18.7417 17.7457 19.606 17.3257 20.3334C16.9058 21.0607 16.2142 21.5914 15.4029 21.8088C14.5917 22.0262 13.7273 21.9124 13 21.4925C12.2727 21.0725 11.7419 20.3809 11.5246 19.5696C11.3072 18.7584 11.421 17.894 11.8409 17.1667L11.8409 17.1667Z" stroke="#088395" stroke-width="2"/>
<path d="M42.6248 33.3804L43.6155 33.2443L43.6155 33.2443L42.6248 33.3804ZM29.375 27.4695L28.7937 26.6559L27.7289 27.4165L28.7426 28.2441L29.375 27.4695ZM32.2185 33.3794L33.2114 33.2599L33.2114 33.2599L32.2185 33.3794ZM41.7083 33.375H31.2917V35.375H41.7083V33.375ZM41.6341 33.5165C41.6322 33.5024 41.6328 33.4791 41.6414 33.4531C41.6496 33.4284 41.6619 33.4099 41.6733 33.3978C41.6955 33.3742 41.7125 33.375 41.7083 33.375V35.375C42.7896 35.375 43.7834 34.4663 43.6155 33.2443L41.6341 33.5165ZM34.375 27.0416C37.3371 27.0416 39.0307 28.1828 40.0469 29.4945C41.1011 30.8551 41.4933 32.4913 41.6341 33.5165L43.6155 33.2443C43.4526 32.0587 42.9884 30.0256 41.6279 28.2695C40.2294 26.4645 37.95 25.0416 34.375 25.0416V27.0416ZM29.9563 28.2832C30.9597 27.5664 32.3674 27.0416 34.375 27.0416V25.0416C31.9961 25.0416 30.1717 25.6714 28.7937 26.6559L29.9563 28.2832ZM28.7426 28.2441C30.4884 29.6696 31.0553 32.0821 31.2257 33.4988L33.2114 33.2599C33.0283 31.7382 32.3875 28.6382 30.0074 26.6949L28.7426 28.2441ZM31.2257 33.4988C31.2242 33.4865 31.225 33.466 31.2329 33.4431C31.2403 33.4214 31.2512 33.4054 31.2611 33.3949C31.2806 33.3744 31.2955 33.375 31.2917 33.375V35.375C32.3763 35.375 33.3567 34.4685 33.2114 33.2599L31.2257 33.4988Z" fill="#088395"/>
<path d="M20.6249 27.4695L21.2574 28.2441L22.271 27.4165L21.2062 26.6558L20.6249 27.4695ZM7.37516 33.3804L6.38447 33.2443L6.38447 33.2443L7.37516 33.3804ZM17.7814 33.3794L18.7742 33.4988L18.7742 33.4988L17.7814 33.3794ZM15.625 27.0416C17.6326 27.0416 19.0402 27.5663 20.0436 28.2832L21.2062 26.6558C19.8283 25.6714 18.0039 25.0416 15.625 25.0416V27.0416ZM8.36585 33.5165C8.5067 32.4913 8.89889 30.8551 9.95309 29.4945C10.9694 28.1828 12.6629 27.0416 15.625 27.0416V25.0416C12.05 25.0416 9.77057 26.4645 8.37209 28.2695C7.01156 30.0256 6.54735 32.0587 6.38447 33.2443L8.36585 33.5165ZM8.29171 33.375C8.28744 33.375 8.30442 33.3742 8.32664 33.3978C8.33802 33.4099 8.35041 33.4284 8.35857 33.4531C8.36716 33.4791 8.36779 33.5024 8.36585 33.5165L6.38447 33.2443C6.21657 34.4663 7.21038 35.375 8.29171 35.375V33.375ZM18.7082 33.375H8.29171V35.375H18.7082V33.375ZM18.7082 33.375C18.7043 33.375 18.7193 33.3744 18.7388 33.3949C18.7487 33.4054 18.7596 33.4214 18.767 33.4431C18.7748 33.466 18.7757 33.4865 18.7742 33.4988L16.7885 33.2599C16.6431 34.4685 17.6236 35.375 18.7082 35.375V33.375ZM18.7742 33.4988C18.9446 32.0821 19.5115 29.6696 21.2574 28.2441L19.9925 26.6949C17.6124 28.6381 16.9716 31.7382 16.7885 33.2599L18.7742 33.4988Z" fill="#088395"/>
<path d="M25 26.0416C30.7191 26.0416 31.9525 31.1682 32.2185 33.3794C32.2845 33.9277 31.844 34.375 31.2917 34.375H18.7083C18.1561 34.375 17.7155 33.9277 17.7815 33.3794C18.0475 31.1682 19.2809 26.0416 25 26.0416Z" stroke="#088395" stroke-width="2" stroke-linecap="round"/>
<path d="M38.5417 44.7916H43.2917C44.1201 44.7916 44.7917 44.1201 44.7917 43.2916V38.5416" stroke="#088395" stroke-width="2" stroke-linecap="round"/>
<path d="M38.5417 5.20837H43.2917C44.1201 5.20837 44.7917 5.87995 44.7917 6.70837V11.4584" stroke="#088395" stroke-width="2" stroke-linecap="round"/>
<path d="M11.4583 44.7916H6.70834C5.87992 44.7916 5.20834 44.1201 5.20834 43.2916V38.5416" stroke="#088395" stroke-width="2" stroke-linecap="round"/>
<path d="M11.4583 5.20837H6.70834C5.87992 5.20837 5.20834 5.87995 5.20834 6.70837V11.4584" stroke="#088395" stroke-width="2" stroke-linecap="round"/>
</svg>
