<svg width="52" height="52" viewBox="0 0 52 52" fill="none" xmlns="http://www.w3.org/2000/svg">
<path d="M32.6261 18.6628C32.3955 18.0102 32.0395 17.4167 31.5872 16.9113C30.625 15.8363 29.2268 15.1598 27.6706 15.1598H23.6034C21.013 15.1598 18.913 17.2597 18.913 19.8501C18.913 22.0544 20.4478 23.9612 22.6011 24.4322L28.7935 25.7867C31.2057 26.3144 32.9251 28.4521 32.9251 30.9215C32.9251 33.8235 30.5726 36.1779 27.6706 36.1779H24.1676C21.8797 36.1779 19.9334 34.7158 19.212 32.6749" stroke="#088395" stroke-width="2" stroke-linecap="round" stroke-linejoin="round"/>
<path d="M25.9193 15.1591V9.90454" stroke="#088395" stroke-width="2" stroke-linecap="round" stroke-linejoin="round"/>
<path d="M25.9193 41.4322V36.1775" stroke="#088395" stroke-width="2" stroke-linecap="round" stroke-linejoin="round"/>
<path d="M18.3078 1H2.92309C2.41306 1 1.92391 1.20261 1.56326 1.56326C1.20261 1.9239 1 2.41305 1 2.92308V18.3078" stroke="#088395" stroke-width="2" stroke-linecap="round" stroke-linejoin="round"/>
<path d="M51 18.3078V2.92308C51 2.41305 50.7974 1.9239 50.4369 1.56326C50.0763 1.20261 49.5872 1 49.0772 1H33.6924" stroke="#088395" stroke-width="2" stroke-linecap="round" stroke-linejoin="round"/>
<path d="M33.6924 51H49.0772C49.5872 51 50.0763 50.7975 50.4369 50.4369C50.7974 50.0763 51 49.5872 51 49.0773V33.6924" stroke="#088395" stroke-width="2" stroke-linecap="round" stroke-linejoin="round"/>
<path d="M1 33.6924V49.0773C1 49.5872 1.20261 50.0763 1.56326 50.4369C1.92391 50.7975 2.41306 51 2.92309 51H18.3078" stroke="#088395" stroke-width="2" stroke-linecap="round" stroke-linejoin="round"/>
</svg>
